<svg width="24" height="24" viewBox="0 0 24 24" fill="none" xmlns="http://www.w3.org/2000/svg">
<path d="M18.3321 5H5.66795C4.69544 5.00092 3.76302 5.37928 3.07535 6.05205C2.38768 6.72482 2.00094 7.63704 2 8.58848V16.4167C2.00187 17.3676 2.38903 18.2789 3.0766 18.9509C3.76417 19.6229 4.69605 20.0008 5.66795 20.0017H18.3321C19.304 20.0008 20.2358 19.6229 20.9234 18.9509C21.611 18.2789 21.9981 17.3676 22 16.4167V8.58848C21.9991 7.63704 21.6123 6.72482 20.9247 6.05205C20.237 5.37928 19.3046 5.00092 18.3321 5ZM5.66795 6.95641H18.3321C18.7741 6.95732 19.1978 7.12959 19.5103 7.43549C19.8228 7.74139 19.9987 8.15599 19.9994 8.58848V9.34786H3.99973V8.58848C4.00044 8.15584 4.17642 7.74111 4.48912 7.43519C4.80182 7.12927 5.22573 6.9571 5.66795 6.95641ZM18.3321 18.0436H5.66795C5.22643 18.0436 4.80291 17.8724 4.49021 17.5674C4.17752 17.2625 4.00114 16.8487 3.99973 16.4167V11.3008H20.0012V16.4167C20.0002 16.849 19.824 17.2632 19.5113 17.5685C19.1985 17.8738 18.7748 18.0453 18.3329 18.0453L18.3321 18.0436Z" fill="#424245"/>
<path d="M11.6786 15.6521H6.34514C6.07995 15.6521 5.82563 15.5491 5.63812 15.3656C5.45061 15.1822 5.34527 14.9334 5.34527 14.6739C5.34527 14.4145 5.45061 14.1657 5.63812 13.9822C5.82563 13.7988 6.07995 13.6957 6.34514 13.6957H11.6769C11.9421 13.6957 12.1964 13.7988 12.3839 13.9822C12.5714 14.1657 12.6767 14.4145 12.6767 14.6739C12.6767 14.9334 12.5714 15.1822 12.3839 15.3656C12.1964 15.5491 11.9421 15.6521 11.6769 15.6521H11.6786Z" fill="#424245"/>
</svg>
