<svg width="24" height="24" viewBox="0 0 24 24" fill="none" xmlns="http://www.w3.org/2000/svg">
<path fill-rule="evenodd" clip-rule="evenodd" d="M10.1103 6.45899C7.86531 6.75265 6.27706 8.82036 6.57045 11.0832C6.86384 13.3461 8.92634 14.9362 11.1713 14.6425C13.4162 14.3489 15.0045 12.2812 14.7111 10.0183C14.4177 7.75546 12.3552 6.16532 10.1103 6.45899ZM5.08312 11.2778C4.684 8.19944 6.84496 5.37335 9.91739 4.97144C12.9898 4.56952 15.7993 6.74541 16.1984 9.82375C16.5975 12.9021 14.4366 15.7282 11.3642 16.1301C8.29173 16.532 5.48225 14.3561 5.08312 11.2778Z" fill="#424245"/>
<path fill-rule="evenodd" clip-rule="evenodd" d="M18.5302 2.46964C18.8231 2.76253 18.8231 3.23741 18.5302 3.5303L14.5302 7.5303C14.2373 7.82319 13.7624 7.82319 13.4695 7.5303C13.1766 7.23741 13.1766 6.76253 13.4695 6.46964L17.4695 2.46964C17.7624 2.17675 18.2373 2.17675 18.5302 2.46964Z" fill="#424245"/>
<path fill-rule="evenodd" clip-rule="evenodd" d="M18.4212 2.00303C18.4991 1.99536 18.5778 2.00511 18.6515 2.0316C18.7252 2.05809 18.7921 2.10064 18.8475 2.15621C18.9029 2.21177 18.9454 2.27898 18.9718 2.35299C18.9983 2.42699 19.0081 2.50596 19.0006 2.58423L18.6916 5.79077C18.6837 5.86186 18.6561 5.92929 18.6119 5.98531C18.5676 6.04134 18.5085 6.0837 18.4414 6.10753C18.3742 6.13136 18.3018 6.13569 18.2323 6.12003C18.1628 6.10437 18.0991 6.06935 18.0486 6.019L15.0017 2.95928C14.9513 2.90852 14.9163 2.8445 14.9005 2.7746C14.8848 2.7047 14.8891 2.63176 14.9128 2.56419C14.9366 2.49661 14.9788 2.43714 15.0347 2.39264C15.0907 2.34814 15.158 2.32041 15.2289 2.31265L18.4212 2.00303Z" fill="#424245"/>
<path fill-rule="evenodd" clip-rule="evenodd" d="M10.4893 14.6779C10.9035 14.6779 11.2393 15.0137 11.2393 15.4279V21.364C11.2393 21.7782 10.9035 22.114 10.4893 22.114C10.075 22.114 9.73926 21.7782 9.73926 21.364V15.4279C9.73926 15.0137 10.075 14.6779 10.4893 14.6779Z" fill="#424245"/>
<path fill-rule="evenodd" clip-rule="evenodd" d="M7.83977 19.456C7.83977 19.0418 8.17556 18.706 8.58977 18.706H12.3887C12.803 18.706 13.1387 19.0418 13.1387 19.456C13.1387 19.8703 12.803 20.206 12.3887 20.206H8.58977C8.17556 20.206 7.83977 19.8703 7.83977 19.456Z" fill="#424245"/>
</svg>
