<svg width="24" height="24" viewBox="0 0 24 24" fill="none" xmlns="http://www.w3.org/2000/svg">
<path d="M9.57919 21.7006C4.22361 20.365 0.963327 14.9387 2.29949 9.58197C3.63447 4.22419 9.06044 0.963662 14.4166 2.29923C19.7741 3.63481 23.0343 9.06161 21.6986 14.419C20.363 19.7762 14.937 23.0365 9.57919 21.7006ZM14.2229 8.03729L14.6723 6.23463L13.575 5.9612L13.1375 7.7164C12.849 7.64445 12.5527 7.57665 12.2583 7.50944L12.699 5.74266L11.6023 5.46923L11.1526 7.2713C10.9139 7.21695 10.6794 7.16323 10.4519 7.10663L10.4532 7.10096L8.93997 6.72307L8.64806 7.8951C8.64806 7.8951 9.46219 8.08172 9.44503 8.0932C9.88939 8.20411 9.96975 8.49827 9.95641 8.73142L9.44445 10.7851C9.47505 10.7928 9.51474 10.8041 9.55853 10.8217C9.54808 10.8191 9.53743 10.8164 9.52661 10.8137C9.49955 10.8069 9.47142 10.7999 9.44254 10.793L8.72495 13.6699C8.67064 13.8049 8.5328 14.0075 8.22213 13.9305C8.23313 13.9465 7.42457 13.7315 7.42457 13.7315L6.87976 14.9876L8.30777 15.3436C8.46416 15.3828 8.61872 15.4231 8.7717 15.463C8.87857 15.4908 8.98468 15.5185 9.09012 15.5455L8.63604 17.3688L9.7321 17.6422L10.1818 15.8382C10.4812 15.9195 10.7718 15.9945 11.0563 16.0652L10.6081 17.8607L11.7055 18.1341L12.1595 16.3142C14.0307 16.6683 15.4377 16.5255 16.0299 14.833C16.5071 13.4704 16.0062 12.6844 15.0217 12.1719C15.7388 12.0065 16.2784 11.5348 16.4224 10.5606C16.6215 9.22984 15.6083 8.51449 14.2229 8.03729ZM10.7519 14.5731C11.6472 14.8096 13.6041 15.3265 13.9153 14.0763C14.234 12.7981 12.3366 12.3723 11.4104 12.1645C11.3068 12.1412 11.2154 12.1207 11.1406 12.102L10.538 14.5176C10.5994 14.5329 10.6714 14.5519 10.7519 14.5731ZM11.5962 11.0433C12.3426 11.2426 13.971 11.6771 14.2546 10.5409C14.5442 9.37876 12.9618 9.02839 12.1889 8.85727C12.1019 8.83802 12.0252 8.82104 11.9626 8.80542L11.4163 10.9962C11.4679 11.0091 11.5284 11.0252 11.5962 11.0433Z" fill="#5E5873"/>
</svg>
