<svg width="24" height="24" viewBox="0 0 24 24" fill="none" xmlns="http://www.w3.org/2000/svg">
<path d="M21.8811 17.8228L17.8683 13.7488C18.7991 12.5347 19.2381 11.007 19.096 9.47654C18.9539 7.9461 18.2413 6.52807 17.1034 5.51115C15.9654 4.49424 14.4877 3.9549 12.971 4.00296C11.4543 4.05101 10.0127 4.68283 8.9397 5.76979C7.86671 6.85675 7.24301 8.31712 7.19558 9.85356C7.14814 11.39 7.68055 12.887 8.68439 14.0398C9.68823 15.1925 11.088 15.9144 12.5988 16.0583C14.1096 16.2023 15.6177 15.7576 16.8161 14.8147L20.8378 18.8797C20.983 18.973 21.1554 19.0135 21.3264 18.9943C21.4973 18.9752 21.6568 18.8976 21.7784 18.7743C21.9001 18.6511 21.9767 18.4896 21.9956 18.3164C22.0145 18.1432 21.9746 17.9686 21.8824 17.8214L21.8811 17.8228ZM8.70079 10.0496C8.70133 9.15486 8.96376 8.28038 9.45491 7.53673C9.94606 6.79308 10.6439 6.21367 11.4601 5.87177C12.2763 5.52987 13.1743 5.44083 14.0404 5.61592C14.9066 5.79101 15.7021 6.22236 16.3262 6.85543C16.9504 7.48849 17.3752 8.29484 17.547 9.1725C17.7188 10.0502 17.6298 10.9597 17.2913 11.7861C16.9528 12.6126 16.38 13.3187 15.6453 13.8154C14.9106 14.312 14.0471 14.5768 13.1638 14.5763C12.5774 14.5759 11.9967 14.4585 11.4551 14.2309C10.9134 14.0032 10.4213 13.6696 10.0069 13.2493C9.59242 12.829 9.26378 12.33 9.03968 11.781C8.81559 11.232 8.70043 10.6437 8.70079 10.0496Z" fill="#424245"/>
<path d="M6.21955 4.30816H2.97327C2.43575 4.30816 2 4.74958 2 5.29411C2 5.83863 2.43575 6.28074 2.97327 6.28074H6.21955C6.75707 6.28074 7.19282 5.83932 7.19282 5.2948C7.19282 4.75027 6.75707 4.30816 6.21955 4.30816Z" fill="#424245"/>
<path d="M4.92117 8.25303H2.97327C2.43575 8.25303 2 8.69446 2 9.23898C2 9.7835 2.43575 10.2256 2.97327 10.2256H4.92117C5.4587 10.2256 5.89444 9.78419 5.89444 9.23967C5.89444 8.69514 5.4587 8.25303 4.92117 8.25303Z" fill="#424245"/>
<path d="M5.57002 12.1986H2.97327C2.43575 12.1986 2 12.64 2 13.1845C2 13.729 2.43575 14.1712 2.97327 14.1712H5.57002C6.10754 14.1712 6.54329 13.7297 6.54329 13.1852C6.54329 12.6407 6.10754 12.1986 5.57002 12.1986Z" fill="#424245"/>
<path d="M8.81562 16.1434H2.97327C2.43575 16.1434 2 16.5849 2 17.1294C2 17.6739 2.43575 18.116 2.97327 18.116H8.81562C9.35314 18.116 9.78889 17.6746 9.78889 17.1301C9.78889 16.5856 9.35314 16.1434 8.81562 16.1434Z" fill="#424245"/>
</svg>
