<svg width="24" height="24" viewBox="0 0 24 24" fill="none" xmlns="http://www.w3.org/2000/svg">
<path d="M19.0434 16.3125C19.112 16.382 19.1937 16.4371 19.2838 16.4747C19.3738 16.5124 19.4704 16.5317 19.568 16.5317C19.6655 16.5317 19.7621 16.5124 19.8522 16.4747C19.9422 16.4371 20.0239 16.382 20.0926 16.3125L21.7806 14.6217C21.9191 14.481 21.9968 14.2913 21.997 14.0937C21.9972 13.8961 21.9197 13.7063 21.7815 13.5654L10.4328 2.21625C10.2923 2.07814 10.1033 2.00077 9.90646 2.00077C9.70959 2.00077 9.52059 2.07814 9.38007 2.21625L7.69208 3.90709C7.62275 3.97586 7.56772 4.0577 7.53016 4.1479C7.4926 4.2381 7.47326 4.33486 7.47326 4.43259C7.47326 4.53032 7.4926 4.62708 7.53016 4.71728C7.56772 4.80747 7.62275 4.88932 7.69208 4.95808C8.05482 5.32144 8.25861 5.81425 8.25861 6.32811C8.25861 6.84197 8.05482 7.33479 7.69208 7.69814C7.32934 8.06149 6.83736 8.26562 6.32437 8.26562C5.81137 8.26562 5.31939 8.06149 4.95665 7.69814C4.888 7.62869 4.8063 7.57357 4.71625 7.53594C4.6262 7.49832 4.52961 7.47895 4.43204 7.47895C4.33448 7.47895 4.23788 7.49832 4.14783 7.53594C4.05779 7.57357 3.97608 7.62869 3.90743 7.69814L2.21944 9.38898C2.08157 9.52974 2.00433 9.71906 2.00433 9.91626C2.00433 10.1135 2.08157 10.3028 2.21944 10.4435L13.5849 21.7811C13.7255 21.9192 13.9145 21.9966 14.1113 21.9966C14.3082 21.9966 14.4972 21.9192 14.6377 21.7811L16.3257 20.0902C16.395 20.0215 16.4501 19.9396 16.4876 19.8494C16.5252 19.7592 16.5445 19.6625 16.5445 19.5647C16.5445 19.467 16.5252 19.3702 16.4876 19.2801C16.4501 19.1899 16.395 19.108 16.3257 19.0392C16.1359 18.862 15.9836 18.6484 15.878 18.4109C15.7724 18.1735 15.7156 17.9172 15.711 17.6573C15.7064 17.3974 15.7541 17.1393 15.8513 16.8983C15.9485 16.6572 16.0932 16.4383 16.2766 16.2545C16.4601 16.0707 16.6787 15.9258 16.9193 15.8285C17.1599 15.7311 17.4176 15.6833 17.6771 15.6879C17.9365 15.6925 18.1924 15.7494 18.4294 15.8552C18.6665 15.9609 18.8798 16.1135 19.0567 16.3036L19.0434 16.3125ZM14.7008 10.7425C14.7987 10.7425 14.8956 10.762 14.986 10.7997C15.0763 10.8375 15.1583 10.8928 15.2272 10.9624C15.2961 11.0321 15.3506 11.1148 15.3874 11.2056C15.4242 11.2965 15.4427 11.3938 15.4417 11.4919V12.509C15.4287 12.6975 15.3448 12.8739 15.2069 13.0028C15.0691 13.1316 14.8876 13.2033 14.699 13.2033C14.5105 13.2033 14.3289 13.1316 14.1911 13.0028C14.0532 12.8739 13.9693 12.6975 13.9563 12.509V11.4919C13.9558 11.3936 13.9747 11.2963 14.0119 11.2054C14.0491 11.1145 14.1039 11.0319 14.1731 10.9622C14.2423 10.8926 14.3245 10.8374 14.4151 10.7997C14.5056 10.762 14.6027 10.7425 14.7008 10.7425ZM9.31255 13.2583C9.11722 13.2562 8.93031 13.1784 8.79105 13.0412C8.72043 12.9716 8.66453 12.8884 8.62668 12.7967C8.58883 12.7049 8.5698 12.6065 8.57072 12.5073V11.4919C8.5865 11.3057 8.67148 11.1322 8.80886 11.0057C8.94624 10.8793 9.126 10.8092 9.31255 10.8092C9.49911 10.8092 9.67886 10.8793 9.81624 11.0057C9.95362 11.1322 10.0386 11.3057 10.0544 11.4919V12.509C10.0548 12.6073 10.0359 12.7046 9.99873 12.7955C9.96153 12.8864 9.90676 12.969 9.83758 13.0387C9.7684 13.1083 9.68617 13.1635 9.59561 13.2012C9.50506 13.2389 9.40795 13.2583 9.30989 13.2583H9.31255ZM12.0204 16.7433C11.9233 16.7426 11.8272 16.7228 11.7377 16.685C11.6482 16.6471 11.5671 16.5919 11.4989 16.5226C11.4294 16.4539 11.3744 16.372 11.3372 16.2817C11.3 16.1913 11.2812 16.0944 11.2822 15.9966V8.00338C11.2822 7.80642 11.3603 7.61753 11.4993 7.47826C11.6383 7.33899 11.8269 7.26075 12.0236 7.26075C12.2202 7.26075 12.4088 7.33899 12.5478 7.47826C12.6868 7.61753 12.7649 7.80642 12.7649 8.00338V15.9975C12.7649 16.0966 12.7453 16.1946 12.707 16.286C12.6688 16.3774 12.6127 16.4602 12.5422 16.5296C12.4716 16.599 12.388 16.6537 12.2961 16.6904C12.2042 16.727 12.106 16.745 12.0071 16.7433H12.0204Z" fill="#5E5873"/>
</svg>
