<svg width="24" height="24" viewBox="0 0 24 24" fill="none" xmlns="http://www.w3.org/2000/svg">
<path d="M8.72375 21.9988H4.905C4.78303 21.9979 4.66334 21.9658 4.5575 21.9055C4.45919 21.849 4.37196 21.7753 4.3 21.688C4.18251 21.5509 4.09711 21.3895 4.05 21.2156C4.025 21.1024 3.49875 18.1139 3.005 15.2558C2.63125 13.0778 2 9.39432 2 9.19417C2.07335 8.87507 2.175 8.56306 2.30375 8.2618C2.47375 7.80681 2.71 7.20636 2.98625 6.52138C3.5 5.25459 4.02625 4.03256 4.125 3.86225C4.21934 3.71702 4.34812 3.59706 4.5 3.51292C4.66744 3.41134 4.85891 3.35558 5.055 3.35131C5.22247 3.35024 5.38633 3.39965 5.525 3.49303C5.775 3.66086 6.7575 4.36324 7.76625 5.09422C8.4625 5.60143 9.64625 6.47165 9.75 6.60591C9.88486 6.8015 9.98545 7.01839 10.0475 7.24738L12.585 18.8511L15.1138 9.83192C15.1321 9.77851 15.1577 9.72789 15.19 9.6815C15.2787 9.55098 15.391 9.438 15.5213 9.34833C15.8688 9.09969 18.0337 7.71233 18.3962 7.48358C18.6085 7.35052 18.8529 7.27707 19.1038 7.271C19.2335 7.26864 19.362 7.29675 19.4788 7.35305C19.6049 7.41731 19.7096 7.51665 19.78 7.63898C19.9638 7.94604 20.5588 9.09099 20.8975 9.74614C21.37 10.6599 21.7925 11.4866 21.8263 11.5686C21.8375 11.5947 21.8525 11.6208 21.8675 11.6469C21.9408 11.7803 21.9861 11.9271 22.0005 12.0784C22.0149 12.2298 21.9981 12.3824 21.9513 12.5271C21.8875 12.864 21.4125 15.0134 20.9688 17.0025C20.54 18.9244 20.0575 21.0614 20.0112 21.2143C19.9529 21.3983 19.8557 21.5679 19.7262 21.7116C19.6553 21.7923 19.5707 21.86 19.4762 21.9117C19.3753 21.9647 19.2629 21.9925 19.1488 21.9925H8.72375V21.9988ZM16.77 16.8695L15.6525 20.0196H17.2975L18.1725 17.3083L16.7713 16.8695H16.77ZM7.6825 11.9987L6.205 12.3021L7.625 20.0097H9.1975L7.6825 11.9987Z" fill="#424245"/>
<path d="M12.7052 14.5088L10.8174 5.81637L9.0675 4.50765C9.15535 4.36853 9.27009 4.24791 9.40502 4.15315C9.62502 3.99776 12.2338 2.26634 12.3988 2.17186C12.5638 2.07738 13.1685 1.83621 13.5048 2.17186C13.841 2.50752 16.0836 4.70135 16.5236 5.13894C16.7698 5.35101 16.9245 5.64926 16.9551 5.97176V6.95755L14.2836 8.72032L12.7052 14.5088Z" fill="#424245"/>
</svg>
