<svg width="24" height="24" viewBox="0 0 24 24" fill="none" xmlns="http://www.w3.org/2000/svg">
<path d="M17.7628 4.86361L17.9363 2.91811C17.9461 2.80072 17.9313 2.68257 17.8929 2.57122C17.8545 2.45987 17.7932 2.35774 17.7132 2.27136C17.6331 2.18498 17.5358 2.11624 17.4277 2.06952C17.3196 2.02281 17.2029 1.99914 17.0851 2.00002H6.91547C6.79789 1.99961 6.68151 2.02366 6.57373 2.07064C6.46594 2.11763 6.36911 2.18652 6.28938 2.27294C6.20966 2.35937 6.14878 2.46143 6.11061 2.57265C6.07245 2.68387 6.05784 2.80181 6.06771 2.91898L6.23084 4.86361H2.84761C2.73466 4.8637 2.62286 4.88635 2.51878 4.93025C2.41471 4.97415 2.32045 5.03841 2.24156 5.11925C2.16266 5.20009 2.10071 5.29588 2.05936 5.401C2.018 5.50612 1.99806 5.61844 2.00072 5.73137V7.52762C2.00277 9.08744 2.59396 10.5889 3.65592 11.7314C4.71787 12.8738 6.17219 13.5729 7.72765 13.6887C8.19824 14.34 8.80911 14.8774 9.51515 15.261C9.68366 16.1402 9.66295 17.0452 9.45438 17.9157C9.24581 18.7862 8.85417 19.6023 8.30555 20.3096H6.91721C6.69717 20.3167 6.48851 20.409 6.33536 20.5672C6.1822 20.7253 6.09657 20.9368 6.09657 21.157C6.09657 21.3772 6.1822 21.5887 6.33536 21.7468C6.48851 21.905 6.69717 21.9973 6.91721 22.0044H17.0868C17.3069 21.9973 17.5155 21.905 17.6687 21.7468C17.8218 21.5887 17.9075 21.3772 17.9075 21.157C17.9075 20.9368 17.8218 20.7253 17.6687 20.5672C17.5155 20.409 17.3069 20.3167 17.0868 20.3096H15.702C15.1533 19.6017 14.7619 18.7849 14.5539 17.9137C14.3459 17.0425 14.3261 16.137 14.4958 15.2576C15.2011 14.8741 15.8106 14.3363 16.279 13.6843C17.8345 13.5686 19.2888 12.8695 20.3507 11.727C21.4127 10.5846 22.0039 9.0831 22.0059 7.52328V5.73137C22.0086 5.61837 21.9886 5.50597 21.9472 5.4008C21.9058 5.29562 21.8438 5.19979 21.7648 5.11894C21.6858 5.03809 21.5914 4.97385 21.4873 4.93C21.3831 4.88615 21.2712 4.86358 21.1582 4.86361H17.7628ZM6.86514 11.8308C5.94587 11.5466 5.14193 10.9752 4.57141 10.2003C4.00089 9.42549 3.69385 8.48812 3.69537 7.52588V6.55921H6.37315L6.74627 11.0715C6.75066 11.1855 6.7643 11.299 6.78705 11.4108C6.8044 11.5158 6.81395 11.5635 6.8313 11.6416C6.84866 11.7197 6.8313 11.7093 6.85126 11.7432L6.86514 11.8308ZM10.3256 20.3096C11.0748 18.9481 11.4127 17.3984 11.2983 15.8485C11.5307 15.8838 11.7653 15.9021 12.0003 15.9032C12.2372 15.9004 12.4738 15.8821 12.7083 15.8485C12.5946 17.3984 12.9328 18.9481 13.6819 20.3096H10.3256ZM20.3043 7.52935C20.3059 8.49159 19.9988 9.42896 19.4283 10.2038C18.8578 10.9786 18.0538 11.5501 17.1346 11.8343C17.133 11.8106 17.133 11.7868 17.1346 11.7631C17.1329 11.736 17.1329 11.7087 17.1346 11.6816C17.1519 11.6 17.1684 11.5184 17.1788 11.4342C17.1892 11.3501 17.2127 11.2034 17.2231 11.095L17.5997 6.58263H20.3043V7.52935Z" fill="#424245"/>
</svg>
