<svg width="24" height="24" viewBox="0 0 24 24" fill="none" xmlns="http://www.w3.org/2000/svg">
<path fill-rule="evenodd" clip-rule="evenodd" d="M8.415 0C5.968 0 4 2.053 4 4.568C4 6.097 4.728 7.455 5.847 8.284C5.27028 8.71609 4.80281 9.27728 4.48207 9.92259C4.16132 10.5679 3.99622 11.2794 4 12C4 13.53 4.728 14.887 5.847 15.716C5.27028 16.1481 4.80281 16.7093 4.48207 17.3546C4.16132 17.9999 3.99622 18.7114 4 19.432C4 21.947 5.968 24 8.415 24C10.861 24 12.83 21.947 12.83 19.432V15.57C13.6033 16.2148 14.5781 16.5683 15.585 16.569C18.032 16.568 20 14.515 20 12C20.004 11.2793 19.839 10.5678 19.5183 9.92243C19.1975 9.27708 18.7299 8.71592 18.153 8.284C18.7297 7.85191 19.1972 7.29072 19.5179 6.64541C19.8387 6.0001 20.0038 5.28862 20 4.568C20 2.053 18.032 0 15.585 0H8.415V0ZM5.659 4.568C5.659 2.977 6.901 1.703 8.415 1.703H11.17V7.433H8.415C6.901 7.433 5.659 6.158 5.659 4.568V4.568ZM15.585 7.432H12.83V1.702H15.585C17.1 1.702 18.341 2.977 18.341 4.568C18.341 6.158 17.1 7.432 15.585 7.432ZM5.66 12C5.66 10.41 6.902 9.135 8.416 9.135H11.171V14.865H8.415C6.9 14.865 5.659 13.59 5.659 12H5.66ZM12.83 12C12.83 10.41 14.072 9.135 15.586 9.135C17.101 9.135 18.342 10.409 18.342 12C18.342 13.59 17.101 14.865 15.586 14.865C14.072 14.865 12.831 13.591 12.831 12H12.83ZM5.66 19.432C5.66 17.842 6.902 16.568 8.416 16.568H11.171V19.432C11.171 21.023 9.931 22.297 8.416 22.297C6.902 22.297 5.66 21.023 5.66 19.432Z" fill="#5E5873"/>
</svg>
