<svg width="24" height="24" viewBox="0 0 24 24" fill="none" xmlns="http://www.w3.org/2000/svg">
<path d="M21.7511 11.5951L12.5942 2.267C12.5154 2.18264 12.4206 2.11548 12.3155 2.06959C12.2104 2.02369 12.0973 2.00002 11.983 2C11.7578 1.99997 11.5418 2.09085 11.3822 2.25276L2.2707 11.5612C2.11584 11.7149 2.02147 11.921 2.00539 12.1407C1.9893 12.3603 2.05261 12.5784 2.18337 12.7538C2.25851 12.8476 2.35213 12.9242 2.45817 12.9787C2.56422 13.0332 2.68032 13.0645 2.79895 13.0703C2.91758 13.0762 3.0361 13.0566 3.14683 13.0128C3.25756 12.969 3.35803 12.902 3.44173 12.8161L4.35427 11.8861V18.3759C4.35427 19.3376 4.72909 20.2598 5.39627 20.9398C6.06345 21.6198 6.96834 22.0018 7.91188 22.0018H16.0855C17.028 22.0001 17.9313 21.6174 18.5971 20.9376C19.263 20.2578 19.637 19.3365 19.637 18.3759V11.8896L20.553 12.8197C20.6319 12.9 20.7255 12.9638 20.8285 13.0073C20.9315 13.0508 21.0419 13.0731 21.1534 13.0731C21.2649 13.0731 21.3753 13.0508 21.4783 13.0073C21.5813 12.9638 21.6749 12.9 21.7537 12.8197C21.8326 12.7393 21.8951 12.6439 21.9378 12.539C21.9805 12.434 22.0024 12.3214 22.0024 12.2078C22.0024 12.0942 21.9805 11.9817 21.9378 11.8767C21.8951 11.7717 21.8326 11.6763 21.7537 11.5959L21.7511 11.5951ZM14.029 18.367H9.95878C9.77882 18.367 9.60624 18.2942 9.47899 18.1645C9.35175 18.0348 9.28026 17.8589 9.28026 17.6755V15.754C9.27254 15.0414 9.52913 14.3521 9.99868 13.824C10.4682 13.296 11.1161 12.9681 11.8127 12.906C12.1838 12.8809 12.5561 12.9338 12.9063 13.0615C13.2565 13.1891 13.5773 13.3888 13.8486 13.6481C14.1199 13.9075 14.336 14.2209 14.4834 14.5689C14.6309 14.9169 14.7066 15.2921 14.7058 15.6712V17.6862C14.703 17.8674 14.6305 18.0403 14.504 18.1677C14.3774 18.295 14.2068 18.3666 14.029 18.367Z" fill="#424245"/>
</svg>
