<svg width="24" height="24" viewBox="0 0 24 24" fill="none" xmlns="http://www.w3.org/2000/svg">
<path d="M21.5284 2.4709C21.2973 2.23856 21.0003 2.08302 20.6778 2.02544C20.3553 1.96785 20.0228 2.01101 19.7256 2.14904L2.93948 9.86406C2.6457 9.99756 2.39905 10.2167 2.2318 10.4927C2.06455 10.7688 1.9845 11.0889 2.00213 11.4112C2.01975 11.7335 2.13422 12.043 2.33057 12.2992C2.52691 12.5553 2.79598 12.7462 3.10256 12.8469L8.24947 14.5422L10.8721 11.9212C11.0335 11.7764 11.2442 11.6989 11.4609 11.7048C11.6776 11.7107 11.8838 11.7994 12.0371 11.9528C12.1903 12.1061 12.279 12.3124 12.2849 12.5292C12.2908 12.746 12.2134 12.9568 12.0687 13.1182L9.46551 15.7552L11.1602 20.9041C11.2612 21.2111 11.453 21.4801 11.7102 21.6756C11.9673 21.8712 12.2778 21.984 12.6005 21.9992H12.6891C12.9952 21.9997 13.295 21.9122 13.5528 21.7469C13.8105 21.5817 14.0153 21.3458 14.1427 21.0673L21.8537 4.27442C21.9913 3.97678 22.0338 3.64399 21.9756 3.3213C21.9174 2.99861 21.7613 2.70168 21.5284 2.4709Z" fill="#5E5873"/>
</svg>
