<svg width="24" height="24" viewBox="0 0 24 24" fill="none" xmlns="http://www.w3.org/2000/svg">
<path d="M19 7.62347C19.0001 7.04335 18.8388 6.47465 18.534 5.98111C18.2291 5.48758 17.793 5.08871 17.2743 4.82921C16.7556 4.56971 16.1749 4.45983 15.5973 4.5119C15.0197 4.56396 14.468 4.77591 14.004 5.12398C13.5401 5.47205 13.1822 5.9425 12.9705 6.48259C12.7588 7.02268 12.7017 7.61108 12.8055 8.18183C12.9093 8.75258 13.17 9.28314 13.5583 9.71403C13.9466 10.1449 14.4472 10.4591 15.0039 10.6214C15.0191 11.1362 14.8685 11.6422 14.5744 12.0649C13.9738 12.8144 12.6507 12.9399 11.2443 13.0642C10.1567 13.0991 9.08333 13.3223 8.07188 13.7238V8.10314C8.7836 7.87937 9.39171 7.40807 9.7861 6.77459C10.1805 6.14111 10.3351 5.38731 10.2219 4.64966C10.1088 3.91201 9.73531 3.23927 9.16917 2.75324C8.60303 2.26721 7.88163 2 7.13558 2C6.38953 2 5.66813 2.26721 5.10199 2.75324C4.53585 3.23927 4.1624 3.91201 4.04923 4.64966C3.93607 5.38731 4.09067 6.14111 4.48506 6.77459C4.87945 7.40807 5.48756 7.87937 6.19928 8.10314V15.8812C5.4934 16.101 4.8881 16.5636 4.49066 17.1872C4.09322 17.8107 3.92932 18.5549 4.02801 19.2878C4.1267 20.0206 4.48161 20.6949 5.02982 21.191C5.57803 21.6872 6.28414 21.9731 7.02299 21.9982C7.76184 22.0233 8.48571 21.7859 9.06629 21.3281C9.64687 20.8703 10.0467 20.2216 10.1948 19.4971C10.343 18.7726 10.2299 18.0191 9.87563 17.37C9.52138 16.7209 8.94883 16.2183 8.25947 15.9512C8.39858 15.7241 8.60066 15.5424 8.84112 15.4282C9.66685 15.1178 10.539 14.9489 11.4208 14.9285C13.0681 14.7764 14.9329 14.5954 16.0329 13.2341C16.6063 12.4719 16.9034 11.5372 16.8754 10.5837C17.4937 10.3732 18.0308 9.97471 18.4117 9.44399C18.7926 8.91327 18.9983 8.2768 19 7.62347ZM7.13724 4.50003C7.26085 4.50003 7.38167 4.5367 7.48444 4.60539C7.58721 4.67408 7.66731 4.77171 7.71461 4.88594C7.76191 5.00017 7.77429 5.12586 7.75018 5.24712C7.72606 5.36839 7.66654 5.47977 7.57914 5.5672C7.49174 5.65463 7.38039 5.71416 7.25916 5.73828C7.13794 5.76241 7.01228 5.75003 6.89809 5.70271C6.7839 5.6554 6.6863 5.57527 6.61763 5.47247C6.54896 5.36967 6.51231 5.2488 6.51231 5.12516C6.5126 4.95946 6.57853 4.80063 6.69567 4.68345C6.81281 4.56628 6.97159 4.50033 7.13724 4.50003V4.50003ZM7.13724 19.4899C7.01396 19.4896 6.8935 19.4529 6.79108 19.3842C6.68866 19.3156 6.60888 19.2181 6.5618 19.1041C6.51472 18.9902 6.50246 18.8648 6.52657 18.7438C6.55067 18.6229 6.61006 18.5118 6.69724 18.4246C6.78442 18.3374 6.89547 18.278 7.01638 18.2539C7.13729 18.2298 7.26263 18.242 7.37657 18.2891C7.49052 18.3362 7.58796 18.416 7.65659 18.5185C7.72522 18.6209 7.76197 18.7414 7.76218 18.8647C7.76189 19.0304 7.69596 19.1893 7.57882 19.3064C7.46168 19.4236 7.3029 19.4896 7.13724 19.4899V19.4899ZM15.8786 6.99834C16.0023 6.99812 16.1232 7.0346 16.2261 7.10315C16.329 7.17171 16.4093 7.26926 16.4568 7.38347C16.5043 7.49768 16.5168 7.62341 16.4928 7.74475C16.4688 7.86608 16.4094 7.97757 16.322 8.06511C16.2347 8.15265 16.1233 8.2123 16.0021 8.23651C15.8808 8.26072 15.7551 8.2484 15.6408 8.20112C15.5266 8.15384 15.4289 8.07372 15.3602 7.97089C15.2915 7.86806 15.2548 7.74716 15.2548 7.62347C15.2551 7.45796 15.3209 7.29929 15.4378 7.18215C15.5547 7.06501 15.7132 6.99893 15.8786 6.99834V6.99834Z" fill="#5E5873"/>
</svg>
