<svg width="24" height="24" viewBox="0 0 24 24" fill="none" xmlns="http://www.w3.org/2000/svg">
<path d="M12.4686 6.67856C13.7606 6.67856 14.808 5.63123 14.808 4.33928C14.808 3.04733 13.7606 2 12.4686 2C11.1766 2 10.1293 3.04733 10.1293 4.33928C10.1293 5.63123 11.1766 6.67856 12.4686 6.67856Z" fill="#424245"/>
<path d="M12.4686 22C13.2438 22 13.8721 21.3717 13.8721 20.5966C13.8721 19.8215 13.2438 19.1932 12.4686 19.1932C11.6935 19.1932 11.0652 19.8215 11.0652 20.5966C11.0652 21.3717 11.6935 22 12.4686 22Z" fill="#424245"/>
<path d="M6.72042 8.82505C7.8833 8.82505 8.826 7.88238 8.826 6.71954C8.826 5.55671 7.8833 4.61404 6.72042 4.61404C5.55753 4.61404 4.61483 5.55671 4.61483 6.71954C4.61483 7.88238 5.55753 8.82505 6.72042 8.82505Z" fill="#424245"/>
<path d="M18.2169 19.3844C18.8629 19.3844 19.3866 18.8608 19.3866 18.2148C19.3866 17.5688 18.8629 17.0452 18.2169 17.0452C17.5709 17.0452 17.0472 17.5688 17.0472 18.2148C17.0472 18.8608 17.5709 19.3844 18.2169 19.3844Z" fill="#424245"/>
<path d="M4.3393 14.3393C5.37265 14.3393 6.21034 13.5016 6.21034 12.4683C6.21034 11.435 5.37265 10.5973 4.3393 10.5973C3.30595 10.5973 2.46826 11.435 2.46826 12.4683C2.46826 13.5016 3.30595 14.3393 4.3393 14.3393Z" fill="#424245"/>
<path d="M20.5972 13.4027C21.1137 13.4027 21.5324 12.984 21.5324 12.4676C21.5324 11.9511 21.1137 11.5324 20.5972 11.5324C20.0808 11.5324 19.6621 11.9511 19.6621 12.4676C19.6621 12.984 20.0808 13.4027 20.5972 13.4027Z" fill="#424245"/>
<path d="M5.56288 17.0588C4.923 17.6987 4.923 18.734 5.56288 19.3738C6.20199 20.0137 7.23884 20.0137 7.87795 19.3738C8.51783 18.734 8.51783 17.6987 7.87795 17.0588C7.23884 16.4182 6.20275 16.4121 5.56288 17.0588Z" fill="#424245"/>
<path d="M18.2161 7.42087C18.6035 7.42087 18.9175 7.10688 18.9175 6.71954C18.9175 6.33221 18.6035 6.01822 18.2161 6.01822C17.8288 6.01822 17.5148 6.33221 17.5148 6.71954C17.5148 7.10688 17.8288 7.42087 18.2161 7.42087Z" fill="#424245"/>
</svg>
