<svg width="24" height="24" viewBox="0 0 24 24" fill="none" xmlns="http://www.w3.org/2000/svg">
<g clip-path="url(#clip0_1095_12891)">
<path d="M7.38462 0C6.65017 0 5.94581 0.291757 5.42648 0.811089C4.90714 1.33042 4.61539 2.03479 4.61539 2.76923V21.2308C4.61539 21.9652 4.90714 22.6696 5.42648 23.1889C5.94581 23.7082 6.65017 24 7.38462 24H17.5385C18.2729 24 18.9773 23.7082 19.4966 23.1889C20.0159 22.6696 20.3077 21.9652 20.3077 21.2308V2.76923C20.3077 2.03479 20.0159 1.33042 19.4966 0.811089C18.9773 0.291757 18.2729 0 17.5385 0L7.38462 0ZM11.5385 0.923077H13.3846C13.507 0.923077 13.6244 0.971703 13.711 1.05826C13.7975 1.14481 13.8462 1.26221 13.8462 1.38462C13.8462 1.50702 13.7975 1.62442 13.711 1.71097C13.6244 1.79753 13.507 1.84615 13.3846 1.84615H11.5385C11.4161 1.84615 11.2987 1.79753 11.2121 1.71097C11.1256 1.62442 11.0769 1.50702 11.0769 1.38462C11.0769 1.26221 11.1256 1.14481 11.2121 1.05826C11.2987 0.971703 11.4161 0.923077 11.5385 0.923077ZM6.92308 2.76923H18C18.1224 2.76923 18.2398 2.81786 18.3264 2.90441C18.4129 2.99097 18.4615 3.10836 18.4615 3.23077V18.9231C18.4615 19.0455 18.4129 19.1629 18.3264 19.2494C18.2398 19.336 18.1224 19.3846 18 19.3846H6.92308C6.80067 19.3846 6.68328 19.336 6.59672 19.2494C6.51017 19.1629 6.46154 19.0455 6.46154 18.9231V3.23077C6.46154 3.10836 6.51017 2.99097 6.59672 2.90441C6.68328 2.81786 6.80067 2.76923 6.92308 2.76923V2.76923ZM13.7889 7.38462C13.4077 7.40954 12.9812 7.64492 12.7209 7.96154C12.4846 8.24769 12.2695 8.67138 12.3462 9.08677C12.7625 9.09785 13.1935 8.85969 13.4428 8.53846C13.6754 8.23938 13.8526 7.81662 13.788 7.38462H13.7889ZM11.2209 9.02862C10.6763 9.02862 10.0883 9.38492 9.72093 9.95169C9.20216 10.7474 9.28708 12.2215 10.1252 13.5C10.4262 13.956 10.8415 14.4757 11.3658 14.4812C11.8302 14.4858 11.9446 14.196 12.5769 14.1923C13.2092 14.1886 13.3218 14.4858 13.7889 14.4812C14.3114 14.4757 14.7582 13.9274 15.0572 13.4714C15.2382 13.1981 15.3928 12.9082 15.5188 12.6055C14.3049 12.1468 14.088 10.4068 15.288 9.74954C14.9225 9.29354 14.4175 9.02954 13.9329 9.02954C13.2914 9.02954 13.0228 9.34615 12.5769 9.34615C12.1172 9.34615 11.7766 9.02862 11.2209 9.02862V9.02862ZM12.4615 20.5108C13.1132 20.5108 13.644 21.0415 13.644 21.6932C13.644 22.3449 13.1132 22.8757 12.4615 22.8757C12.1481 22.8752 11.8476 22.7505 11.626 22.5288C11.4043 22.3072 11.2796 22.0067 11.2791 21.6932C11.2791 21.0415 11.8098 20.5108 12.4615 20.5108Z" fill="#5E5873"/>
</g>
<defs>
<clipPath id="clip0_1095_12891">
<rect width="24" height="24" fill="white"/>
</clipPath>
</defs>
</svg>
