<svg width="24" height="24" viewBox="0 0 24 24" fill="none" xmlns="http://www.w3.org/2000/svg">
<path d="M4.75999 10.59C5.0252 10.6245 5.29325 10.5522 5.50517 10.3891C5.71709 10.2259 5.85551 9.98525 5.88999 9.72004C5.92446 9.45482 5.85217 9.18677 5.68902 8.97485C5.52586 8.76294 5.2852 8.62452 5.01999 8.59004L3.25999 8.15004C3.13167 8.1107 2.99675 8.0976 2.86327 8.1115C2.72979 8.12541 2.60047 8.16604 2.48302 8.23098C2.36557 8.29592 2.26239 8.38384 2.17963 8.48949C2.09688 8.59515 2.03624 8.71638 2.00132 8.84597C1.96641 8.97555 1.95793 9.11084 1.97641 9.24377C1.99488 9.3767 2.03992 9.50455 2.10885 9.61971C2.17778 9.73486 2.26918 9.83496 2.37761 9.91405C2.48604 9.99313 2.60928 10.0496 2.73999 10.08L4.49999 10.55C4.58376 10.578 4.67168 10.5915 4.75999 10.59V10.59ZM8.61999 5.00004C8.67859 5.2182 8.80933 5.41009 8.99091 5.54446C9.17249 5.67884 9.39422 5.74777 9.61999 5.74004C9.7061 5.75386 9.79387 5.75386 9.87999 5.74004C10.1338 5.66982 10.3497 5.50232 10.4807 5.27391C10.6118 5.04549 10.6475 4.77459 10.58 4.52004L10.11 2.76004C10.0795 2.62933 10.0231 2.50609 9.944 2.39766C9.86491 2.28923 9.76481 2.19783 9.64966 2.1289C9.5345 2.05997 9.40665 2.01493 9.27372 1.99646C9.14079 1.97798 9.0055 1.98646 8.87592 2.02137C8.74633 2.05629 8.6251 2.11693 8.51944 2.19968C8.41379 2.28244 8.32587 2.38562 8.26093 2.50307C8.19599 2.62052 8.15536 2.74984 8.14145 2.88332C8.12755 3.01681 8.14065 3.15172 8.17999 3.28004L8.61999 5.00004ZM13.45 15C13.3566 14.9017 13.2441 14.8234 13.1195 14.7699C12.9948 14.7164 12.8606 14.6888 12.725 14.6888C12.5893 14.6888 12.4551 14.7164 12.3305 14.7699C12.2059 14.8234 12.0934 14.9017 12 15L8.49999 18.56C8.08847 18.9548 7.54027 19.1753 6.96999 19.1753C6.39971 19.1753 5.8515 18.9548 5.43999 18.56C5.23741 18.36 5.07657 18.1218 4.96679 17.8592C4.85701 17.5965 4.80048 17.3147 4.80048 17.03C4.80048 16.7454 4.85701 16.4635 4.96679 16.2009C5.07657 15.9383 5.23741 15.7 5.43999 15.5L8.99999 12C9.10467 11.9104 9.18969 11.8001 9.24971 11.676C9.30974 11.5519 9.34347 11.4168 9.34879 11.2791C9.3541 11.1414 9.3309 11.004 9.28062 10.8757C9.23035 10.7474 9.15409 10.6308 9.05664 10.5334C8.95918 10.4359 8.84263 10.3597 8.71431 10.3094C8.58598 10.2591 8.44865 10.2359 8.31093 10.2412C8.17321 10.2466 8.03808 10.2803 7.91402 10.3403C7.78995 10.4003 7.67963 10.4854 7.58999 10.59L3.99999 14.08C3.61127 14.4687 3.30293 14.9302 3.09256 15.4381C2.88219 15.946 2.77391 16.4903 2.77391 17.04C2.77391 17.5898 2.88219 18.1341 3.09256 18.642C3.30293 19.1499 3.61127 19.6113 3.99999 20C4.3887 20.3887 4.85017 20.6971 5.35805 20.9075C5.86592 21.1178 6.41026 21.2261 6.95999 21.2261C7.50971 21.2261 8.05405 21.1178 8.56193 20.9075C9.0698 20.6971 9.53127 20.3887 9.91999 20L13.45 16.47C13.5515 16.3764 13.6325 16.2627 13.6879 16.1362C13.7433 16.0097 13.7719 15.8731 13.7719 15.735C13.7719 15.5969 13.7433 15.4603 13.6879 15.3338C13.6325 15.2073 13.5515 15.0937 13.45 15V15ZM5.17999 6.59004C5.36625 6.77478 5.61765 6.87893 5.87999 6.88004C6.01159 6.8808 6.14206 6.85557 6.26389 6.80581C6.38573 6.75604 6.49655 6.68272 6.58999 6.59004C6.77624 6.40267 6.88078 6.14922 6.88078 5.88504C6.88078 5.62085 6.77624 5.3674 6.58999 5.18004L5.29999 3.89004C5.10869 3.72621 4.86261 3.6406 4.61093 3.65033C4.35926 3.66005 4.12052 3.76438 3.94242 3.94247C3.76433 4.12057 3.66 4.35931 3.65027 4.61098C3.64055 4.86266 3.72616 5.10874 3.88999 5.30004L5.17999 6.59004ZM21.26 13.92L19.5 13.45C19.3696 13.405 19.2312 13.3874 19.0937 13.3983C18.9561 13.4093 18.8223 13.4487 18.7007 13.5139C18.5791 13.5791 18.4723 13.6688 18.387 13.7773C18.3018 13.8858 18.2399 14.0108 18.2053 14.1444C18.1707 14.278 18.1641 14.4173 18.1859 14.5535C18.2078 14.6898 18.2576 14.82 18.3322 14.9361C18.4069 15.0522 18.5048 15.1515 18.6197 15.2279C18.7346 15.3043 18.8641 15.3561 19 15.38L20.76 15.85H21.02C21.2852 15.8845 21.5533 15.8122 21.7652 15.6491C21.9771 15.4859 22.1155 15.2453 22.15 14.98C22.1845 14.7148 22.1122 14.4468 21.949 14.2349C21.7859 14.0229 21.5452 13.8845 21.28 13.85L21.26 13.92ZM15.38 19C15.3453 18.8733 15.2859 18.7546 15.2053 18.6508C15.1247 18.5469 15.0243 18.46 14.9101 18.395C14.7959 18.33 14.6699 18.2882 14.5395 18.2719C14.4091 18.2556 14.2767 18.2651 14.15 18.3C13.8962 18.3702 13.6803 18.5377 13.5492 18.7662C13.4182 18.9946 13.3825 19.2655 13.45 19.52L13.92 21.28C13.9786 21.4982 14.1093 21.6901 14.2909 21.8245C14.4725 21.9588 14.6942 22.0278 14.92 22.02C15.0064 22.0299 15.0936 22.0299 15.18 22.02C15.3077 21.9864 15.4274 21.9278 15.5323 21.8476C15.6373 21.7675 15.7253 21.6673 15.7913 21.553C15.8573 21.4386 15.9 21.3123 15.9169 21.1814C15.9339 21.0504 15.9247 20.9174 15.89 20.79L15.38 19ZM18.82 17.43C18.6287 17.2662 18.3826 17.1806 18.1309 17.1903C17.8793 17.2 17.6405 17.3044 17.4624 17.4825C17.2843 17.6606 17.18 17.8993 17.1703 18.151C17.1606 18.4027 17.2462 18.6487 17.41 18.84L18.7 20.13C18.8873 20.3163 19.1408 20.4208 19.405 20.4208C19.6692 20.4208 19.9226 20.3163 20.11 20.13C20.2962 19.9427 20.4008 19.6892 20.4008 19.425C20.4008 19.1608 20.2962 18.9074 20.11 18.72L18.82 17.43ZM21.2 7.00004C21.2155 6.16847 20.9814 5.35134 20.528 4.65414C20.0745 3.95693 19.4224 3.41166 18.656 3.08872C17.8895 2.76577 17.0439 2.67999 16.2282 2.84243C15.4125 3.00488 14.6642 3.4081 14.08 4.00004L10.55 7.56004C10.4554 7.65525 10.3806 7.76814 10.3296 7.89229C10.2787 8.01643 10.2528 8.14939 10.2532 8.28357C10.2537 8.41775 10.2806 8.55053 10.3323 8.67432C10.3841 8.79811 10.4598 8.91049 10.555 9.00504C10.6502 9.09959 10.7631 9.17446 10.8872 9.22538C11.0114 9.2763 11.1443 9.30227 11.2785 9.30181C11.4127 9.30134 11.5455 9.27445 11.6693 9.22268C11.7931 9.1709 11.9054 9.09525 12 9.00004L15.5 5.44004C15.9115 5.04523 16.4597 4.82478 17.03 4.82478C17.6003 4.82478 18.1485 5.04523 18.56 5.44004C18.7626 5.64003 18.9234 5.87826 19.0332 6.1409C19.143 6.40354 19.1995 6.68537 19.1995 6.97004C19.1995 7.2547 19.143 7.53653 19.0332 7.79917C18.9234 8.06182 18.7626 8.30004 18.56 8.50004L15 12C14.8137 12.1874 14.7092 12.4409 14.7092 12.705C14.7092 12.9692 14.8137 13.2227 15 13.41C15.1873 13.5963 15.4408 13.7008 15.705 13.7008C15.9692 13.7008 16.2226 13.5963 16.41 13.41L20 9.92004C20.7654 9.14038 21.196 8.0926 21.2 7.00004V7.00004Z" fill="#5E5873"/>
</svg>
