<svg width="24" height="24" viewBox="0 0 24 24" fill="none" xmlns="http://www.w3.org/2000/svg">
<path fill-rule="evenodd" clip-rule="evenodd" d="M4.45311 11.2248C2.83216 14.1999 3.93022 17.9258 6.90582 19.5466C9.88143 21.1674 13.6076 20.0694 15.2286 17.0942C16.8496 14.119 15.7515 10.3932 12.7759 8.77237C9.80028 7.15154 6.07406 8.24957 4.45311 11.2248ZM6.14034 20.9516C2.38881 18.9081 1.00428 14.2106 3.04804 10.4594C5.0918 6.70818 9.78983 5.32388 13.5414 7.36737C17.2929 9.41085 18.6774 14.1084 16.6337 17.8596C14.5899 21.6108 9.89187 22.9951 6.14034 20.9516Z" fill="#424245"/>
<path fill-rule="evenodd" clip-rule="evenodd" d="M21.4937 2.50862C21.8061 2.82106 21.8061 3.32759 21.4936 3.63999L15.3102 9.82271C14.9978 10.1351 14.4913 10.1351 14.1789 9.82265C13.8665 9.51022 13.8665 9.00368 14.1789 8.69128L20.3623 2.50856C20.6747 2.19616 21.1813 2.19618 21.4937 2.50862Z" fill="#424245"/>
<path fill-rule="evenodd" clip-rule="evenodd" d="M21.1736 2.00325C21.285 1.99232 21.3974 2.00622 21.5028 2.04395C21.6082 2.08168 21.7039 2.14229 21.7831 2.22144C21.8622 2.30058 21.9228 2.39629 21.9606 2.50166C21.9983 2.60704 22.0122 2.71947 22.0013 2.83086L21.5598 7.39082C21.5486 7.49191 21.5091 7.5878 21.4459 7.66747C21.3827 7.74715 21.2983 7.80738 21.2024 7.84127C21.1065 7.87516 21.0029 7.88132 20.9037 7.85905C20.8044 7.83678 20.7135 7.78699 20.6412 7.71537L16.2885 3.36421C16.2166 3.29202 16.1665 3.20099 16.144 3.10158C16.1216 3.00218 16.1277 2.89845 16.1616 2.80235C16.1955 2.70625 16.2559 2.62169 16.3358 2.5584C16.4156 2.49512 16.5118 2.45568 16.6131 2.44464L21.1736 2.00325Z" fill="#424245"/>
</svg>
