<svg width="24" height="24" viewBox="0 0 24 24" fill="none" xmlns="http://www.w3.org/2000/svg">
<path d="M15.4845 22C16.2801 17.5904 13.1732 16.3315 11.5227 16.2542C13.5498 14.9929 15.1198 15.9691 15.4584 16.3339C15.7971 16.6964 16.0481 16.6142 17.3979 15.8603C18.7477 15.1065 19.6168 13.2146 17.7152 11.4725C16.1949 10.0759 13.2466 10.03 11.9632 10.1798C10.907 10.8805 11.1414 12.4486 11.3901 13.1469C9.34407 13.2049 8.45841 10.9457 8.27133 9.80768C4.76658 9.01515 3.29601 6.90819 3 5.95378C8.11504 3.64869 11.7027 3.62695 12.8583 3.90481C16.4222 1.0609 18.7145 2.02015 19.4155 2.85375C18.0823 2.67012 16.9858 4.35423 16.6046 5.21925C17.656 5.41013 20.4409 7.53158 20.9524 11.615C21.4615 15.6985 17.7389 16.3267 16.9835 16.938C16.2281 17.5493 16.6377 17.6822 16.8935 18.9362C17.0971 19.9389 16.0386 21.4008 15.4845 22Z" fill="#424245"/>
</svg>
