<svg width="24" height="24" viewBox="0 0 24 24" fill="none" xmlns="http://www.w3.org/2000/svg">
<path d="M20.5111 17.1322V14.6589C20.5111 14.1695 20.4146 13.6848 20.2271 13.2327C20.0397 12.7806 19.7649 12.3699 19.4186 12.0241C19.0723 11.6783 18.6612 11.4042 18.2088 11.2174C17.7564 11.0306 17.2716 10.9348 16.7822 10.9356H14.66C14.2369 10.9353 13.8312 10.7671 13.5321 10.4679C13.2329 10.1687 13.0647 9.76308 13.0644 9.34V6.86778C13.5947 6.62499 14.026 6.20814 14.2866 5.68644C14.5473 5.16473 14.6217 4.56957 14.4974 3.99976C14.3732 3.42995 14.0578 2.91978 13.6036 2.55395C13.1494 2.18812 12.5837 1.98865 12.0005 1.98865C11.4173 1.98865 10.8517 2.18812 10.3975 2.55395C9.94331 2.91978 9.62791 3.42995 9.50366 3.99976C9.37941 4.56957 9.4538 5.16473 9.71447 5.68644C9.97513 6.20814 10.4064 6.62499 10.9367 6.86778V9.34C10.9365 9.54977 10.895 9.75746 10.8146 9.95119C10.7341 10.1449 10.6163 10.3209 10.4678 10.4691C10.3193 10.6173 10.1431 10.7347 9.94921 10.8148C9.75531 10.8948 9.54754 10.9358 9.33777 10.9356H7.21332C6.22583 10.9356 5.27879 11.3278 4.58053 12.0261C3.88227 12.7244 3.48999 13.6714 3.48999 14.6589V17.1311C2.95973 17.3739 2.52847 17.7908 2.2678 18.3125C2.00713 18.8342 1.93275 19.4293 2.05699 19.9991C2.18124 20.5689 2.49664 21.0791 2.95083 21.4449C3.40503 21.8108 3.97068 22.0102 4.55388 22.0102C5.13708 22.0102 5.70273 21.8108 6.15693 21.4449C6.61112 21.0791 6.92652 20.5689 7.05077 19.9991C7.17501 19.4293 7.10063 18.8342 6.83996 18.3125C6.57929 17.7908 6.14803 17.3739 5.61777 17.1311V14.6589C5.61806 14.2358 5.78626 13.8301 6.08542 13.531C6.38458 13.2318 6.79025 13.0636 7.21332 13.0633H9.33777C9.89082 13.0606 10.4361 12.9334 10.9333 12.6911V17.1356C10.4031 17.3783 9.9718 17.7952 9.71113 18.3169C9.45047 18.8386 9.37608 19.4338 9.50033 20.0036C9.62457 20.5734 9.93998 21.0836 10.3942 21.4494C10.8484 21.8152 11.414 22.0147 11.9972 22.0147C12.5804 22.0147 13.1461 21.8152 13.6003 21.4494C14.0545 21.0836 14.3699 20.5734 14.4941 20.0036C14.6183 19.4338 14.544 18.8386 14.2833 18.3169C14.0226 17.7952 13.5914 17.3783 13.0611 17.1356V12.6911C13.5583 12.9334 14.1036 13.0606 14.6567 13.0633H16.7822C17.2053 13.0636 17.611 13.2318 17.9101 13.531C18.2093 13.8301 18.3775 14.2358 18.3778 14.6589V17.1311C17.8475 17.3739 17.4162 17.7908 17.1556 18.3125C16.8949 18.8342 16.8205 19.4293 16.9448 19.9991C17.069 20.5689 17.3844 21.0791 17.8386 21.4449C18.2928 21.8108 18.8585 22.0102 19.4417 22.0102C20.0249 22.0102 20.5905 21.8108 21.0447 21.4449C21.4989 21.0791 21.8143 20.5689 21.9385 19.9991C22.0628 19.4293 21.9884 18.8342 21.7277 18.3125C21.4671 17.7908 21.0358 17.3739 20.5055 17.1311L20.5111 17.1322ZM12.0044 3.08C12.2959 3.07978 12.5808 3.166 12.8233 3.32776C13.0657 3.48952 13.2547 3.71955 13.3664 3.98874C13.4781 4.25794 13.5074 4.55421 13.4507 4.84009C13.394 5.12596 13.2537 5.38858 13.0477 5.59474C12.8417 5.8009 12.5792 5.94134 12.2934 5.99828C12.0076 6.05521 11.7113 6.0261 11.442 5.91462C11.1727 5.80314 10.9425 5.6143 10.7806 5.37199C10.6186 5.12968 10.5322 4.84478 10.5322 4.55333C10.5321 4.3599 10.57 4.16834 10.644 3.9896C10.7179 3.81085 10.8263 3.64842 10.963 3.5116C11.0997 3.37477 11.2621 3.26623 11.4408 3.19217C11.6195 3.11812 11.811 3.08 12.0044 3.08ZM4.55332 20.9244C4.26207 20.9247 3.97728 20.8386 3.73495 20.677C3.49261 20.5154 3.30359 20.2857 3.19178 20.0167C3.07997 19.7478 3.05037 19.4517 3.10674 19.166C3.1631 18.8802 3.3029 18.6176 3.50846 18.4113C3.71402 18.2049 3.97612 18.0642 4.26166 18.0067C4.54719 17.9493 4.84335 17.9778 5.1127 18.0886C5.38206 18.1994 5.61254 18.3875 5.77501 18.6292C5.93748 18.871 6.02467 19.1554 6.02555 19.4467C6.02613 19.6404 5.98849 19.8324 5.91478 20.0116C5.84107 20.1908 5.73274 20.3537 5.59598 20.491C5.45923 20.6282 5.29675 20.7372 5.11783 20.8116C4.93892 20.8859 4.74709 20.9243 4.55332 20.9244ZM11.9978 20.9244C11.7063 20.9247 11.4214 20.8384 11.1789 20.6767C10.9365 20.5149 10.7475 20.2849 10.6358 20.0157C10.5241 19.7465 10.4948 19.4502 10.5515 19.1644C10.6082 18.8785 10.7485 18.6159 10.9545 18.4097C11.1605 18.2035 11.423 18.0631 11.7088 18.0062C11.9946 17.9492 12.2909 17.9783 12.5602 18.0898C12.8295 18.2013 13.0597 18.3901 13.2216 18.6325C13.3836 18.8748 13.47 19.1597 13.47 19.4511C13.47 19.8405 13.3158 20.2141 13.0412 20.4902C12.7666 20.7663 12.3938 20.9224 12.0044 20.9244H11.9978ZM19.4422 20.9244C19.1508 20.9247 18.8658 20.8384 18.6234 20.6767C18.3809 20.5149 18.1919 20.2849 18.0802 20.0157C17.9686 19.7465 17.9392 19.4502 17.9959 19.1644C18.0527 18.8785 18.1929 18.6159 18.3989 18.4097C18.6049 18.2035 18.8674 18.0631 19.1533 18.0062C19.4391 17.9492 19.7354 17.9783 20.0047 18.0898C20.2739 18.2013 20.5041 18.3901 20.6661 18.6325C20.828 18.8748 20.9144 19.1597 20.9144 19.4511C20.9144 19.8405 20.7603 20.2141 20.4857 20.4902C20.211 20.7663 19.8383 20.9224 19.4489 20.9244H19.4422Z" fill="#5E5873"/>
</svg>
