<svg width="24" height="24" viewBox="0 0 24 24" fill="none" xmlns="http://www.w3.org/2000/svg">
<path d="M21.1525 2H7.59375C7.36963 2.00099 7.15503 2.09072 6.9969 2.24955C6.83877 2.40838 6.75 2.62338 6.75 2.8475V10.135H2.8475C2.62273 10.135 2.40716 10.2243 2.24823 10.3832C2.08929 10.5422 2 10.7577 2 10.9825V18.44C2.00066 19.3838 2.37577 20.2887 3.04299 20.9561C3.7102 21.6236 4.615 21.999 5.55875 22H18.4412C19.3848 21.999 20.2894 21.6237 20.9566 20.9566C21.6237 20.2894 21.999 19.3848 22 18.4412V2.8475C22 2.62273 21.9107 2.40716 21.7518 2.24823C21.5928 2.08929 21.3773 2 21.1525 2ZM6.75 19.1187C6.75 19.4334 6.62502 19.7351 6.40256 19.9576C6.18009 20.18 5.87836 20.305 5.56375 20.305C5.06932 20.3043 4.59534 20.1076 4.24573 19.758C3.89611 19.4084 3.69941 18.9344 3.69875 18.44V11.83H6.75V19.1187ZM17.7625 16.8H10.9825C10.8712 16.8 10.761 16.7781 10.6582 16.7355C10.5554 16.6929 10.4619 16.6305 10.3832 16.5518C10.3045 16.4731 10.2421 16.3796 10.1995 16.2768C10.1569 16.174 10.135 16.0638 10.135 15.9525C10.135 15.8412 10.1569 15.731 10.1995 15.6282C10.2421 15.5254 10.3045 15.4319 10.3832 15.3532C10.4619 15.2745 10.5554 15.2121 10.6582 15.1695C10.761 15.1269 10.8712 15.105 10.9825 15.105H17.7625C17.9873 15.105 18.2028 15.1943 18.3618 15.3532C18.5207 15.5122 18.61 15.7277 18.61 15.9525C18.61 16.1773 18.5207 16.3928 18.3618 16.5518C18.2028 16.7107 17.9873 16.8 17.7625 16.8ZM17.7625 12.8475H10.9825C10.7577 12.8475 10.5422 12.7582 10.3832 12.5993C10.2243 12.4403 10.135 12.2248 10.135 12C10.135 11.7752 10.2243 11.5597 10.3832 11.4007C10.5422 11.2418 10.7577 11.1525 10.9825 11.1525H17.7625C17.9873 11.1525 18.2028 11.2418 18.3618 11.4007C18.5207 11.5597 18.61 11.7752 18.61 12C18.61 12.2248 18.5207 12.4403 18.3618 12.5993C18.2028 12.7582 17.9873 12.8475 17.7625 12.8475ZM17.7625 8.89125H10.9825C10.7577 8.89125 10.5422 8.80196 10.3832 8.64302C10.2243 8.48409 10.135 8.26852 10.135 8.04375C10.135 7.81898 10.2243 7.60341 10.3832 7.44448C10.5422 7.28554 10.7577 7.19625 10.9825 7.19625H17.7625C17.9873 7.19625 18.2028 7.28554 18.3618 7.44448C18.5207 7.60341 18.61 7.81898 18.61 8.04375C18.61 8.26852 18.5207 8.48409 18.3618 8.64302C18.2028 8.80196 17.9873 8.89125 17.7625 8.89125Z" fill="#424245"/>
</svg>
