<svg width="24" height="24" viewBox="0 0 24 24" fill="none" xmlns="http://www.w3.org/2000/svg">
<path d="M19.6299 12.0027C19.5406 12.4513 19.1427 12.7781 18.6657 12.7984C18.5155 12.8045 18.3877 12.9141 18.3592 13.0623C18.3288 13.2104 18.4039 13.3606 18.5399 13.4236C18.9722 13.6265 19.2138 14.0812 19.1224 14.5298L19.0372 14.956C18.9255 15.5183 18.3044 15.8694 17.7604 15.7355C17.6082 15.6989 17.4519 15.6705 17.2977 15.6401C17.0703 15.5954 16.843 15.5487 16.6156 15.5041C16.3152 15.4432 16.0148 15.3843 15.7144 15.3234C15.3572 15.2524 14.9979 15.1793 14.6407 15.1083C14.2408 15.0271 13.841 14.9479 13.4411 14.8667C13.0148 14.7815 12.5866 14.6962 12.1603 14.609C11.7219 14.5217 11.2834 14.4324 10.847 14.3451C10.4127 14.2578 9.98033 14.1705 9.54594 14.0833C9.13188 14 8.71779 13.9168 8.30374 13.8336C7.92417 13.7585 7.54663 13.6814 7.16706 13.6063C6.83824 13.5413 6.50942 13.4743 6.18262 13.4094C5.92078 13.3566 5.65894 13.3038 5.39507 13.251C5.21442 13.2145 5.03375 13.178 4.85312 13.1415C4.76988 13.1252 4.68668 13.107 4.60346 13.0907C4.5994 13.0907 4.59534 13.0887 4.59126 13.0887C4.63592 13.2998 4.61562 13.5251 4.51819 13.7362C4.31316 14.1787 3.83617 14.41 3.37746 14.3207C3.24146 14.2944 3.09329 14.3451 3.03443 14.4709L2.85175 14.8667C2.79291 14.9926 2.85175 15.1387 2.95935 15.226C2.97964 15.2423 17.6102 21.9872 17.6346 21.9932C17.7706 22.0196 17.9187 21.9689 17.9776 21.843L18.1603 21.4472C18.2191 21.3214 18.1603 21.1753 18.0527 21.088C17.6873 20.7977 17.5534 20.2842 17.7584 19.8417C17.9634 19.3992 18.4404 19.1678 18.8991 19.2571C19.0351 19.2835 19.1833 19.2328 19.2421 19.1069L19.4248 18.7111C19.4837 18.5853 19.4248 18.4392 19.3172 18.3519C18.9519 18.0616 18.8179 17.5481 19.0229 17.1056C19.2279 16.6631 19.7049 16.4317 20.1636 16.521C20.2996 16.5474 20.4478 16.4967 20.5067 16.3708L20.6894 15.975C20.7482 15.8492 20.6894 15.703 20.5818 15.6157C20.2164 15.3255 20.0824 14.812 20.2874 14.3695C20.4925 13.927 20.9695 13.6956 21.4282 13.7849C21.5642 13.8113 21.7123 13.7605 21.7712 13.6347L21.9721 13.1963C22.031 13.0704 21.9762 12.9222 21.8504 12.8634L19.6643 11.8546L19.6299 12.0027Z" fill="#5E5873"/>
<path d="M2.19617 11.8627C2.22053 11.8748 18.0142 15.0433 18.0406 15.0433C18.1786 15.0372 18.3126 14.9519 18.3389 14.818L18.4242 14.3917C18.4506 14.2557 18.3613 14.1258 18.2354 14.067C17.8132 13.8681 17.5635 13.4012 17.659 12.9222C17.7544 12.4432 18.1664 12.1082 18.6333 12.0879C18.7713 12.0819 18.9052 11.9966 18.9316 11.8626L18.9946 11.5501L19.0169 11.4344C19.0433 11.2984 18.954 11.1685 18.8281 11.1096C18.4059 10.9107 18.1563 10.4438 18.2517 9.96483C18.3471 9.48578 18.7591 9.15087 19.226 9.13057C19.364 9.12448 19.498 9.03923 19.5243 8.90527L19.6096 8.47902C19.636 8.34302 19.5467 8.21312 19.4208 8.15426C18.9986 7.95534 18.749 7.48849 18.8444 7.00947C18.9398 6.53044 19.3518 6.19553 19.8187 6.17523C19.9567 6.16914 20.0906 6.08389 20.117 5.94993L20.2124 5.47699C20.2388 5.341 20.1515 5.20906 20.0156 5.18268C20.0156 5.18268 4.14477 2 4.12854 2C4.01081 2 3.90729 2.08322 3.88293 2.20095L3.78753 2.67388C3.76115 2.80988 3.85046 2.93978 3.9763 2.99865C4.39849 3.19756 4.64816 3.66441 4.55276 4.14343C4.45736 4.62246 4.04531 4.95737 3.57847 4.97767C3.44042 4.98376 3.30648 5.06901 3.28009 5.20297L3.19484 5.62922C3.16845 5.76522 3.25776 5.89512 3.38361 5.95399C3.8058 6.1529 4.05548 6.61975 3.96006 7.09878C3.86467 7.5778 3.45262 7.91271 2.98577 7.93301C2.84775 7.9391 2.71379 8.02435 2.6874 8.15831L2.60215 8.58457C2.57576 8.72056 2.66509 8.85047 2.79092 8.90933C3.21313 9.10825 3.46279 9.57509 3.36737 10.0541C3.27197 10.5332 2.85993 10.8681 2.39308 10.8884C2.25506 10.8945 2.12109 10.9797 2.09471 11.1137L2.00945 11.5399C1.98102 11.6759 2.07031 11.8038 2.19617 11.8627ZM15.7246 6.66037C15.7794 6.38635 16.0473 6.20773 16.3213 6.26253C16.5954 6.31734 16.774 6.58527 16.7192 6.85928L15.6373 12.2463C15.5886 12.4878 15.3775 12.6543 15.14 12.6543C15.1075 12.6543 15.073 12.6502 15.0406 12.6441C14.7665 12.5893 14.5879 12.3214 14.6427 12.0474L15.7246 6.66037ZM6.57439 4.82343C6.62919 4.54941 6.89712 4.37079 7.17114 4.42559C7.44516 4.4804 7.62378 4.74833 7.56898 5.02234L6.48916 10.4093C6.44046 10.6509 6.22935 10.8174 5.99187 10.8174C5.95939 10.8174 5.92488 10.8133 5.89243 10.8072C5.87822 10.8052 5.86401 10.8011 5.85183 10.7971C5.60014 10.724 5.44383 10.4702 5.49662 10.2105L5.5717 9.83088L6.57439 4.82343Z" fill="#5E5873"/>
</svg>
