<svg width="24" height="24" viewBox="0 0 24 24" fill="none" xmlns="http://www.w3.org/2000/svg">
<path d="M11.4775 2.40401L9.9964 5.4039L6.68208 5.88944C6.54815 5.90926 6.42243 5.96611 6.31908 6.05357C6.21574 6.14103 6.13888 6.25562 6.09718 6.38442C6.05548 6.51322 6.05059 6.65111 6.08307 6.78255C6.11554 6.91398 6.18409 7.03372 6.28098 7.12828L8.682 9.46486L8.11536 12.7647C8.09264 12.8981 8.10764 13.0351 8.15866 13.1604C8.20969 13.2856 8.29471 13.3941 8.40413 13.4736C8.51356 13.5531 8.64302 13.6004 8.77792 13.6102C8.91281 13.6201 9.04776 13.592 9.16754 13.5292L12.1263 11.9703L15.0907 13.5258C15.2104 13.5886 15.3454 13.6167 15.4803 13.6069C15.6152 13.5971 15.7446 13.5498 15.8541 13.4703C15.9635 13.3908 16.0485 13.2823 16.0995 13.157C16.1506 13.0318 16.1656 12.8947 16.1428 12.7614L15.5762 9.46153L17.9739 7.12828C18.0708 7.03358 18.1393 6.91365 18.1717 6.78206C18.2041 6.65046 18.199 6.51244 18.157 6.38358C18.1151 6.25472 18.0379 6.14016 17.9343 6.05284C17.8307 5.96552 17.7047 5.90892 17.5706 5.88944L14.2607 5.40723L12.7796 2.40401C12.7195 2.2827 12.6267 2.18059 12.5117 2.10921C12.3966 2.03782 12.2639 2 12.1285 2C11.9932 2 11.8605 2.03782 11.7454 2.10921C11.6304 2.18059 11.5376 2.2827 11.4775 2.40401Z" fill="#424245"/>
<path d="M6.64553 13.9359L11.9653 15.2458L17.6129 13.9359C17.7677 13.9215 17.922 13.9684 18.0427 14.0664C18.1633 14.1644 18.2408 14.3059 18.2584 14.4603V16.2947C18.2408 16.4492 18.1633 16.5906 18.0427 16.6886C17.922 16.7866 17.7677 16.8335 17.6129 16.8191L11.912 18.1291L6.64553 16.8191C6.49072 16.8335 6.33645 16.7866 6.21577 16.6886C6.0951 16.5906 6.01764 16.4492 6 16.2947V14.4603C6.01764 14.3059 6.0951 14.1644 6.21577 14.0664C6.33645 13.9684 6.49072 13.9215 6.64553 13.9359Z" fill="#424245"/>
<path d="M6.64553 17.8068L11.9653 19.1168L17.6129 17.8068C17.7677 17.7924 17.922 17.8393 18.0427 17.9373C18.1633 18.0354 18.2408 18.1768 18.2584 18.3312V20.1656C18.2408 20.3201 18.1633 20.4615 18.0427 20.5595C17.922 20.6576 17.7677 20.7044 17.6129 20.69L11.912 22L6.64553 20.69C6.49072 20.7044 6.33645 20.6576 6.21577 20.5595C6.0951 20.4615 6.01764 20.3201 6 20.1656V18.3312C6.01764 18.1768 6.0951 18.0354 6.21577 17.9373C6.33645 17.8393 6.49072 17.7924 6.64553 17.8068Z" fill="#424245"/>
</svg>
