<svg width="24" height="24" viewBox="0 0 24 24" fill="none" xmlns="http://www.w3.org/2000/svg">
<path d="M8.83858 19.2341L7.54233 20.5239C7.46239 20.604 7.39901 20.6991 7.35581 20.8037C7.31261 20.9083 7.29043 21.0203 7.29055 21.1335C7.29066 21.2467 7.31307 21.3587 7.35648 21.4632C7.3999 21.5677 7.46348 21.6626 7.54358 21.7425C7.62369 21.8225 7.71876 21.8858 7.82336 21.929C7.92796 21.9722 8.04005 21.9944 8.15322 21.9943C8.26639 21.9942 8.37843 21.9718 8.48294 21.9284C8.58745 21.885 8.68239 21.8214 8.76233 21.7413L10.0586 20.4452C10.1385 20.3651 10.2019 20.27 10.2451 20.1655C10.2883 20.0609 10.3105 19.9488 10.3104 19.8356C10.3103 19.7225 10.2878 19.6105 10.2444 19.506C10.201 19.4015 10.1374 19.3065 10.0573 19.2266C9.97723 19.1467 9.88216 19.0833 9.77756 19.0401C9.67296 18.9969 9.56087 18.9747 9.4477 18.9748C9.33453 18.975 9.22249 18.9974 9.11798 19.0408C9.01346 19.0842 8.91853 19.1478 8.83858 19.2279V19.2341Z" fill="#424245"/>
<path d="M4.75733 15.1496C4.83728 15.0695 4.90066 14.9745 4.94386 14.8699C4.98706 14.7653 5.00924 14.6532 5.00912 14.5401C5.009 14.4269 4.9866 14.3149 4.94318 14.2104C4.89977 14.1059 4.83619 14.0109 4.75608 13.931C4.67598 13.8511 4.58091 13.7877 4.47631 13.7445C4.37171 13.7013 4.25962 13.6791 4.14645 13.6793C4.03328 13.6794 3.92124 13.7018 3.81673 13.7452C3.71221 13.7886 3.61728 13.8522 3.53733 13.9323L2.24983 15.2296C2.16989 15.3097 2.10651 15.4048 2.06331 15.5093C2.02011 15.6139 1.99793 15.726 1.99805 15.8392C1.99816 15.9523 2.02057 16.0643 2.06399 16.1688C2.1074 16.2733 2.17098 16.3683 2.25108 16.4482C2.33119 16.5281 2.42626 16.5915 2.53086 16.6347C2.63546 16.6779 2.74755 16.7001 2.86072 16.7C2.97389 16.6998 3.08593 16.6774 3.19044 16.634C3.29495 16.5906 3.38989 16.527 3.46983 16.4469L4.75733 15.1496Z" fill="#424245"/>
<path d="M7.41108 16.5769C7.33129 16.4967 7.23643 16.4331 7.13196 16.3897C7.02749 16.3463 6.91547 16.3239 6.80233 16.3239C6.6892 16.3239 6.57718 16.3463 6.47271 16.3897C6.36824 16.4331 6.27338 16.4967 6.19358 16.5769L3.24358 19.5266C3.16331 19.6066 3.09961 19.7016 3.05615 19.8063C3.01269 19.911 2.99032 20.0232 2.99032 20.1365C2.99032 20.2498 3.01269 20.362 3.05615 20.4667C3.09961 20.5714 3.16331 20.6664 3.24358 20.7464C3.40655 20.9061 3.62543 20.9958 3.85358 20.9964C4.08078 20.9965 4.29878 20.9066 4.45983 20.7464L7.41108 17.7955C7.49136 17.7155 7.55505 17.6205 7.59851 17.5158C7.64197 17.4111 7.66434 17.2989 7.66434 17.1856C7.66434 17.0723 7.64197 16.9601 7.59851 16.8554C7.55505 16.7507 7.49136 16.6557 7.41108 16.5757V16.5769Z" fill="#424245"/>
<path d="M18.6986 13.4473C19.9899 11.9888 20.9387 10.26 21.4755 8.38742C22.0123 6.51487 22.1236 4.546 21.8011 2.62493C21.7842 2.51764 21.7337 2.41847 21.6569 2.34167C21.5801 2.26487 21.4809 2.21439 21.3736 2.19748C19.4526 1.87343 17.4833 1.98375 15.6105 2.52035C13.7377 3.05694 12.0089 4.00618 10.5511 5.29834L6.53233 4.49969C6.39339 4.47242 6.24987 4.47983 6.11447 4.52125C5.97907 4.56267 5.85598 4.63683 5.75608 4.73716L2.42608 8.06675C2.31902 8.17287 2.24168 8.30524 2.20182 8.45061C2.16196 8.59599 2.16095 8.74928 2.19892 8.89516C2.23688 9.04104 2.31247 9.17441 2.41815 9.28192C2.52382 9.38943 2.65586 9.46733 2.80108 9.50782L6.73108 10.6177C6.53661 11.0905 6.37212 11.5752 6.23858 12.0687C6.21544 12.1566 6.21572 12.249 6.23941 12.3367C6.26309 12.4244 6.30936 12.5044 6.37358 12.5687L11.4386 17.6143C11.486 17.663 11.5428 17.7015 11.6055 17.7275C11.6683 17.7535 11.7357 17.7664 11.8036 17.7655C11.8492 17.7666 11.8947 17.7607 11.9386 17.748C12.4275 17.614 12.9076 17.4495 13.3761 17.2556L14.4648 21.1889C14.5074 21.3362 14.5887 21.4696 14.7001 21.575C14.8115 21.6805 14.9491 21.7543 15.0986 21.7888C15.1693 21.8093 15.2425 21.8198 15.3161 21.82C15.4293 21.821 15.5415 21.7994 15.6463 21.7565C15.751 21.7136 15.8461 21.6502 15.9261 21.5701L19.2598 18.2405C19.3599 18.1399 19.4336 18.0163 19.4746 17.8805C19.5156 17.7447 19.5225 17.6009 19.4948 17.4618L18.6986 13.4473ZM14.0648 7.49932C14.3057 7.25771 14.6128 7.093 14.9473 7.02604C15.2819 6.95908 15.6287 6.99288 15.9441 7.12316C16.2594 7.25345 16.5289 7.47435 16.7186 7.75791C16.9082 8.04147 17.0095 8.37492 17.0095 8.71604C17.0095 9.05716 16.9082 9.39062 16.7186 9.67417C16.5289 9.95773 16.2594 10.1786 15.9441 10.3089C15.6287 10.4392 15.2819 10.473 14.9473 10.406C14.6128 10.3391 14.3057 10.1744 14.0648 9.93276C13.7428 9.6097 13.562 9.17217 13.562 8.71604C13.562 8.25991 13.7428 7.82238 14.0648 7.49932Z" fill="#424245"/>
</svg>
