<svg width="24" height="24" viewBox="0 0 24 24" fill="none" xmlns="http://www.w3.org/2000/svg">
<path d="M21.5282 2.4709C21.2971 2.23856 21.0001 2.08302 20.6776 2.02544C20.355 1.96785 20.0226 2.01101 19.7254 2.14904L2.93925 9.86406C2.64548 9.99756 2.39882 10.2167 2.23158 10.4927C2.06433 10.7688 1.98428 11.0889 2.0019 11.4112C2.01953 11.7335 2.134 12.043 2.33034 12.2992C2.52669 12.5553 2.79576 12.7462 3.10234 12.8469L8.24925 14.5422L10.8719 11.9212C11.0333 11.7764 11.244 11.6989 11.4607 11.7048C11.6774 11.7107 11.8836 11.7994 12.0368 11.9528C12.1901 12.1061 12.2788 12.3124 12.2847 12.5292C12.2906 12.746 12.2132 12.9568 12.0684 13.1182L9.46529 15.7552L11.16 20.9041C11.261 21.2111 11.4528 21.4801 11.7099 21.6756C11.9671 21.8712 12.2776 21.984 12.6002 21.9992H12.6889C12.995 21.9997 13.2948 21.9122 13.5525 21.7469C13.8103 21.5817 14.0151 21.3458 14.1424 21.0673L21.8535 4.27442C21.991 3.97678 22.0336 3.64399 21.9754 3.3213C21.9172 2.99861 21.7611 2.70168 21.5282 2.4709Z" fill="#424245"/>
</svg>
