<svg width="24" height="24" viewBox="0 0 24 24" fill="none" xmlns="http://www.w3.org/2000/svg">
<path d="M2.48474 7.78407L11.5845 11.9105C11.7151 11.9701 11.857 12.001 12.0006 12.001C12.1441 12.001 12.2861 11.9701 12.4167 11.9105L21.5153 7.78407C21.6608 7.71175 21.7833 7.60025 21.869 7.46211C21.9546 7.32397 22 7.16468 22 7.00216C22 6.83965 21.9546 6.68036 21.869 6.54222C21.7833 6.40408 21.6608 6.29258 21.5153 6.22026L12.4167 2.09052C12.2861 2.03087 12.1441 2 12.0006 2C11.857 2 11.7151 2.03087 11.5845 2.09052L2.48474 6.21692C2.33915 6.28924 2.21665 6.40074 2.13101 6.53888C2.04537 6.67702 2 6.83631 2 6.99883C2 7.16134 2.04537 7.32063 2.13101 7.45877C2.21665 7.59691 2.33915 7.70841 2.48474 7.78073V7.78407ZM21.5164 11.232L19.2445 10.1998L12.9318 13.0616C12.639 13.1948 12.3211 13.2636 11.9994 13.2636C11.6778 13.2636 11.3599 13.1948 11.0671 13.0616L4.75438 10.1998L2.48474 11.232C2.34057 11.3047 2.21941 11.416 2.13476 11.5534C2.05011 11.6909 2.00529 11.8491 2.00529 12.0106C2.00529 12.172 2.05011 12.3302 2.13476 12.4677C2.21941 12.6052 2.34057 12.7164 2.48474 12.7891L11.5845 16.9133C11.7151 16.973 11.857 17.0038 12.0006 17.0038C12.1441 17.0038 12.2861 16.973 12.4167 16.9133L21.5164 12.7891C21.6605 12.7164 21.7817 12.6052 21.8663 12.4677C21.951 12.3302 21.9958 12.172 21.9958 12.0106C21.9958 11.8491 21.951 11.6909 21.8663 11.5534C21.7817 11.416 21.6605 11.3047 21.5164 11.232ZM21.5164 16.2226L19.2556 15.1982L12.9318 18.06C12.639 18.1932 12.3211 18.262 11.9994 18.262C11.6778 18.262 11.3599 18.1932 11.0671 18.06L4.74548 15.1949L2.48474 16.2193C2.34057 16.292 2.21941 16.4032 2.13476 16.5407C2.05011 16.6782 2.00529 16.8364 2.00529 16.9978C2.00529 17.1593 2.05011 17.3175 2.13476 17.455C2.21941 17.5924 2.34057 17.7037 2.48474 17.7764L11.5845 21.9095C11.7151 21.9691 11.857 22 12.0006 22C12.1441 22 12.2861 21.9691 12.4167 21.9095L21.5164 17.7853C21.6605 17.7126 21.7817 17.6013 21.8663 17.4639C21.951 17.3264 21.9958 17.1682 21.9958 17.0067C21.9958 16.8453 21.951 16.6871 21.8663 16.5496C21.7817 16.4121 21.6605 16.3009 21.5164 16.2282V16.2226Z" fill="#424245"/>
</svg>
