<svg width="24" height="24" viewBox="0 0 24 24" fill="none" xmlns="http://www.w3.org/2000/svg">
<path d="M21.6973 11.9061L19.0667 9.15526C18.9772 9.06045 18.8693 8.98389 18.7493 8.93004C18.6292 8.87619 18.4993 8.84611 18.3672 8.84157C18.2351 8.83703 18.1034 8.85811 17.9797 8.90358C17.856 8.94906 17.7429 9.01802 17.6468 9.10646L14.8237 11.6712C14.6276 11.8481 14.5117 12.0937 14.5015 12.3538C14.4913 12.6139 14.5876 12.8674 14.7693 13.0584C14.9509 13.2493 15.203 13.3622 15.4701 13.3722C15.7372 13.3821 15.9974 13.2883 16.1935 13.1114L17.7029 11.7447C17.7591 12.7573 17.5504 13.7671 17.0966 14.6797C16.6427 15.5923 15.9584 16.3777 15.1079 16.9625C14.2573 17.5472 13.2683 17.9122 12.2334 18.0231C11.1985 18.134 10.1517 17.9873 9.19095 17.5966C8.94794 17.5042 8.67745 17.5083 8.43744 17.6078C8.19742 17.7073 8.00698 17.8944 7.90693 18.1291C7.80688 18.3637 7.80517 18.6272 7.90217 18.8631C7.99918 19.0989 8.18718 19.2884 8.42589 19.3909C9.61706 19.8755 10.9096 20.0772 12.1966 19.9792C13.4836 19.8812 14.7282 19.4864 15.8276 18.8273C16.9269 18.1681 17.8495 17.2637 18.519 16.1887C19.1886 15.1137 19.5858 13.8989 19.6781 12.6448L20.2433 13.2344C20.3305 13.3351 20.4378 13.4174 20.5587 13.4765C20.6796 13.5355 20.8115 13.57 20.9465 13.5779C21.0815 13.5857 21.2167 13.5667 21.344 13.5221C21.4712 13.4775 21.5878 13.4081 21.6866 13.3182C21.7855 13.2283 21.8646 13.1198 21.919 12.9993C21.9735 12.8787 22.0022 12.7486 22.0035 12.6169C22.0047 12.4852 21.9784 12.3546 21.9263 12.2331C21.8741 12.1116 21.7971 12.0017 21.7 11.91L21.6973 11.9061Z" fill="#424245"/>
<path d="M15.5426 5.61106C14.3529 5.12761 13.0623 4.92627 11.7771 5.02363C10.4919 5.12099 9.24883 5.51426 8.15019 6.17106C7.05155 6.82786 6.12879 7.72942 5.45787 8.8015C4.78695 9.87359 4.38706 11.0855 4.29111 12.3376L3.72583 11.748C3.54516 11.5596 3.29506 11.4488 3.03053 11.44C2.766 11.4312 2.50873 11.5252 2.3153 11.7011C2.12187 11.8771 2.00814 12.1207 1.99912 12.3783C1.99009 12.636 2.08652 12.8866 2.26719 13.0749L4.90049 15.8245C5.08025 16.012 5.32886 16.1227 5.59206 16.1323H5.62881C5.87703 16.1296 6.11528 16.0367 6.29699 15.872L9.1234 13.3073C9.31421 13.131 9.42582 12.8884 9.43396 12.6324C9.4421 12.3764 9.34611 12.1276 9.16687 11.9401C8.98762 11.7527 8.73963 11.6418 8.47684 11.6315C8.21406 11.6212 7.95774 11.7124 7.76365 11.8853L6.25757 13.252C6.20109 12.2385 6.40987 11.2277 6.86433 10.3144C7.31878 9.40106 8.00402 8.61515 8.85573 8.0304C9.70745 7.44564 10.6977 7.08121 11.7337 6.9713C12.7696 6.86139 13.8172 7.0096 14.7782 7.40203C14.9005 7.46041 15.0338 7.49378 15.1698 7.50009C15.3059 7.5064 15.4418 7.48551 15.5692 7.43871C15.6966 7.39191 15.8129 7.3202 15.9108 7.22798C16.0087 7.13577 16.0862 7.02501 16.1384 6.90252C16.1907 6.78004 16.2167 6.64842 16.2148 6.51579C16.2128 6.38316 16.183 6.25232 16.1272 6.13132C16.0714 6.01033 15.9907 5.90175 15.8902 5.81228C15.7896 5.7228 15.6714 5.65432 15.5426 5.61106Z" fill="#424245"/>
</svg>
