<svg width="24" height="24" viewBox="0 0 24 24" fill="none" xmlns="http://www.w3.org/2000/svg">
<path d="M20.5113 17.1322V14.6589C20.5113 14.1695 20.4148 13.6848 20.2274 13.2327C20.0399 12.7807 19.7651 12.3699 19.4188 12.0241C19.0725 11.6783 18.6614 11.4042 18.209 11.2174C17.7566 11.0306 17.2718 10.9348 16.7824 10.9356H14.6602C14.2371 10.9353 13.8315 10.7671 13.5323 10.4679C13.2331 10.1687 13.0649 9.76308 13.0646 9.34V6.86778C13.5949 6.62499 14.0262 6.20814 14.2868 5.68644C14.5475 5.16474 14.6219 4.56957 14.4976 3.99976C14.3734 3.42995 14.058 2.91978 13.6038 2.55395C13.1496 2.18812 12.584 1.98865 12.0008 1.98865C11.4176 1.98865 10.8519 2.18812 10.3977 2.55395C9.94352 2.91978 9.62812 3.42995 9.50387 3.99976C9.37963 4.56957 9.45401 5.16474 9.71468 5.68644C9.97535 6.20814 10.4066 6.62499 10.9369 6.86778V9.34C10.9367 9.54977 10.8952 9.75746 10.8148 9.95119C10.7344 10.1449 10.6165 10.3209 10.468 10.4691C10.3196 10.6173 10.1433 10.7347 9.94943 10.8148C9.75553 10.8948 9.54775 10.9358 9.33798 10.9356H7.21354C6.22605 10.9356 5.279 11.3278 4.58074 12.0261C3.88248 12.7244 3.4902 13.6714 3.4902 14.6589V17.1311C2.95995 17.3739 2.52868 17.7908 2.26801 18.3125C2.00735 18.8342 1.93296 19.4293 2.05721 19.9991C2.18145 20.5689 2.49686 21.0791 2.95105 21.4449C3.40524 21.8108 3.9709 22.0102 4.55409 22.0102C5.13729 22.0102 5.70295 21.8108 6.15714 21.4449C6.61133 21.0791 6.92673 20.5689 7.05098 19.9991C7.17523 19.4293 7.10084 18.8342 6.84017 18.3125C6.57951 17.7908 6.14824 17.3739 5.61798 17.1311V14.6589C5.61828 14.2358 5.78647 13.8301 6.08563 13.531C6.3848 13.2318 6.79046 13.0636 7.21354 13.0633H9.33798C9.89103 13.0606 10.4364 12.9334 10.9335 12.6911V17.1356C10.4033 17.3783 9.97201 17.7952 9.71135 18.3169C9.45068 18.8386 9.37629 19.4338 9.50054 20.0036C9.62479 20.5734 9.94019 21.0836 10.3944 21.4494C10.8486 21.8152 11.4142 22.0147 11.9974 22.0147C12.5806 22.0147 13.1463 21.8152 13.6005 21.4494C14.0547 21.0836 14.3701 20.5734 14.4943 20.0036C14.6186 19.4338 14.5442 18.8386 14.2835 18.3169C14.0228 17.7952 13.5916 17.3783 13.0613 17.1356V12.6911C13.5585 12.9334 14.1038 13.0606 14.6569 13.0633H16.7824C17.2055 13.0636 17.6112 13.2318 17.9103 13.531C18.2095 13.8301 18.3777 14.2358 18.378 14.6589V17.1311C17.8477 17.3739 17.4165 17.7908 17.1558 18.3125C16.8951 18.8342 16.8207 19.4293 16.945 19.9991C17.0692 20.5689 17.3846 21.0791 17.8388 21.4449C18.293 21.8108 18.8587 22.0102 19.4419 22.0102C20.0251 22.0102 20.5907 21.8108 21.0449 21.4449C21.4991 21.0791 21.8145 20.5689 21.9388 19.9991C22.063 19.4293 21.9886 18.8342 21.728 18.3125C21.4673 17.7908 21.036 17.3739 20.5058 17.1311L20.5113 17.1322ZM12.0046 3.08C12.2961 3.07978 12.5811 3.166 12.8235 3.32776C13.0659 3.48952 13.2549 3.71955 13.3666 3.98874C13.4783 4.25794 13.5076 4.55421 13.4509 4.84009C13.3942 5.12596 13.254 5.38858 13.048 5.59475C12.842 5.80091 12.5794 5.94134 12.2936 5.99828C12.0078 6.05522 11.7115 6.0261 11.4422 5.91462C11.1729 5.80314 10.9427 5.6143 10.7808 5.37199C10.6189 5.12968 10.5324 4.84478 10.5324 4.55333C10.5323 4.35991 10.5703 4.16834 10.6442 3.9896C10.7181 3.81085 10.8265 3.64842 10.9632 3.5116C11.1 3.37477 11.2623 3.26623 11.441 3.19217C11.6197 3.11812 11.8112 3.08 12.0046 3.08ZM4.55354 20.9244C4.26228 20.9247 3.9775 20.8386 3.73516 20.677C3.49282 20.5154 3.30381 20.2857 3.19199 20.0167C3.08018 19.7478 3.05059 19.4517 3.10695 19.166C3.16332 18.8802 3.30311 18.6176 3.50867 18.4113C3.71423 18.2049 3.97633 18.0642 4.26187 18.0067C4.54741 17.9493 4.84356 17.9778 5.11292 18.0886C5.38227 18.1994 5.61275 18.3875 5.77522 18.6292C5.9377 18.871 6.02488 19.1554 6.02576 19.4467C6.02634 19.6404 5.9887 19.8324 5.91499 20.0116C5.84128 20.1908 5.73295 20.3537 5.5962 20.491C5.45945 20.6282 5.29696 20.7372 5.11805 20.8116C4.93913 20.8859 4.7473 20.9243 4.55354 20.9244ZM11.998 20.9244C11.7065 20.9247 11.4216 20.8384 11.1791 20.6767C10.9367 20.5149 10.7477 20.2849 10.636 20.0157C10.5243 19.7465 10.495 19.4502 10.5517 19.1644C10.6084 18.8785 10.7487 18.6159 10.9547 18.4097C11.1607 18.2035 11.4232 18.0631 11.709 18.0062C11.9949 17.9492 12.2912 17.9783 12.5604 18.0898C12.8297 18.2013 13.0599 18.3901 13.2218 18.6325C13.3838 18.8748 13.4702 19.1597 13.4702 19.4511C13.4702 19.8405 13.3161 20.2141 13.0414 20.4902C12.7668 20.7663 12.3941 20.9224 12.0046 20.9244H11.998ZM19.4424 20.9244C19.151 20.9247 18.866 20.8384 18.6236 20.6767C18.3811 20.5149 18.1921 20.2849 18.0805 20.0157C17.9688 19.7465 17.9394 19.4502 17.9962 19.1644C18.0529 18.8785 18.1931 18.6159 18.3991 18.4097C18.6051 18.2035 18.8676 18.0631 19.1535 18.0062C19.4393 17.9492 19.7356 17.9783 20.0049 18.0898C20.2742 18.2013 20.5043 18.3901 20.6663 18.6325C20.8282 18.8748 20.9146 19.1597 20.9146 19.4511C20.9147 19.8405 20.7605 20.2141 20.4859 20.4902C20.2113 20.7663 19.8385 20.9224 19.4491 20.9244H19.4424Z" fill="#424245"/>
</svg>
