<svg width="24" height="24" viewBox="0 0 24 24" fill="none" xmlns="http://www.w3.org/2000/svg">
<path d="M19.0434 16.3125C19.1121 16.3819 19.1938 16.4371 19.2838 16.4747C19.3739 16.5123 19.4705 16.5317 19.568 16.5317C19.6656 16.5317 19.7622 16.5123 19.8522 16.4747C19.9423 16.4371 20.024 16.3819 20.0926 16.3125L21.7806 14.6217C21.9192 14.4809 21.9969 14.2913 21.9971 14.0937C21.9972 13.896 21.9198 13.7063 21.7815 13.5653L10.4329 2.21621C10.2924 2.0781 10.1034 2.00073 9.90652 2.00073C9.70966 2.00073 9.52065 2.0781 9.38013 2.21621L7.69214 3.90705C7.62281 3.97581 7.56778 4.05766 7.53022 4.14786C7.49266 4.23806 7.47332 4.33482 7.47332 4.43255C7.47332 4.53028 7.49266 4.62704 7.53022 4.71723C7.56778 4.80743 7.62281 4.88928 7.69214 4.95804C8.05488 5.3214 8.25867 5.81421 8.25867 6.32807C8.25867 6.84193 8.05488 7.33474 7.69214 7.6981C7.3294 8.06145 6.83742 8.26558 6.32443 8.26558C5.81144 8.26558 5.31945 8.06145 4.95671 7.6981C4.88807 7.62865 4.80636 7.57352 4.71631 7.5359C4.62627 7.49828 4.52967 7.47891 4.4321 7.47891C4.33454 7.47891 4.23794 7.49828 4.1479 7.5359C4.05785 7.57352 3.97614 7.62865 3.90749 7.6981L2.21951 9.38894C2.08163 9.5297 2.00439 9.71902 2.00439 9.91622C2.00439 10.1134 2.08163 10.3027 2.21951 10.4435L13.585 21.781C13.7255 21.9191 13.9145 21.9965 14.1114 21.9965C14.3082 21.9965 14.4973 21.9191 14.6378 21.781L16.3258 20.0902C16.3951 20.0214 16.4501 19.9396 16.4877 19.8494C16.5252 19.7592 16.5446 19.6624 16.5446 19.5647C16.5446 19.467 16.5252 19.3702 16.4877 19.28C16.4501 19.1898 16.3951 19.108 16.3258 19.0392C16.1359 18.862 15.9836 18.6483 15.878 18.4109C15.7724 18.1735 15.7156 17.9172 15.7111 17.6573C15.7065 17.3974 15.7542 17.1392 15.8514 16.8982C15.9486 16.6572 16.0932 16.4383 16.2767 16.2545C16.4602 16.0707 16.6788 15.9258 16.9194 15.8284C17.16 15.7311 17.4177 15.6833 17.6771 15.6878C17.9366 15.6924 18.1925 15.7493 18.4295 15.8551C18.6665 15.9609 18.8798 16.1134 19.0567 16.3036L19.0434 16.3125ZM14.7008 10.7425C14.7988 10.7425 14.8957 10.7619 14.986 10.7997C15.0764 10.8374 15.1584 10.8927 15.2273 10.9624C15.2962 11.0321 15.3506 11.1147 15.3874 11.2056C15.4243 11.2965 15.4427 11.3938 15.4418 11.4918V12.509C15.4288 12.6974 15.3449 12.8739 15.207 13.0027C15.0692 13.1316 14.8876 13.2032 14.6991 13.2032C14.5105 13.2032 14.329 13.1316 14.1911 13.0027C14.0533 12.8739 13.9694 12.6974 13.9564 12.509V11.4918C13.9559 11.3936 13.9748 11.2962 14.012 11.2053C14.0492 11.1144 14.104 11.0318 14.1732 10.9622C14.2423 10.8926 14.3246 10.8373 14.4151 10.7996C14.5057 10.7619 14.6028 10.7425 14.7008 10.7425ZM9.31261 13.2583C9.11728 13.2562 8.93037 13.1784 8.79111 13.0412C8.72049 12.9715 8.66459 12.8884 8.62674 12.7966C8.58889 12.7049 8.56986 12.6065 8.57079 12.5072V11.4918C8.58656 11.3056 8.67154 11.1321 8.80892 11.0057C8.9463 10.8793 9.12606 10.8091 9.31261 10.8091C9.49917 10.8091 9.67893 10.8793 9.8163 11.0057C9.95368 11.1321 10.0387 11.3056 10.0544 11.4918V12.509C10.0549 12.6072 10.036 12.7046 9.99879 12.7955C9.96159 12.8864 9.90682 12.969 9.83764 13.0386C9.76846 13.1082 9.68623 13.1635 9.59567 13.2012C9.50512 13.2389 9.40801 13.2583 9.30995 13.2583H9.31261ZM12.0205 16.7432C11.9234 16.7426 11.8273 16.7228 11.7378 16.6849C11.6483 16.6471 11.5672 16.5919 11.499 16.5225C11.4295 16.4539 11.3745 16.372 11.3373 16.2816C11.3 16.1913 11.2813 16.0943 11.2822 15.9966V8.00334C11.2822 7.80638 11.3603 7.61749 11.4994 7.47822C11.6384 7.33894 11.827 7.2607 12.0236 7.2607C12.2202 7.2607 12.4088 7.33894 12.5478 7.47822C12.6869 7.61749 12.765 7.80638 12.765 8.00334V15.9975C12.765 16.0965 12.7453 16.1946 12.7071 16.286C12.6688 16.3773 12.6128 16.4601 12.5422 16.5296C12.4717 16.599 12.388 16.6536 12.2962 16.6903C12.2043 16.727 12.1061 16.745 12.0072 16.7432H12.0205Z" fill="#424245"/>
</svg>
