<svg width="24" height="24" viewBox="0 0 24 24" fill="none" xmlns="http://www.w3.org/2000/svg">
<path d="M18.6102 6.74173V5.55932C18.6094 4.61558 18.2341 3.71072 17.5668 3.04339C16.8995 2.37606 15.9946 2.0008 15.0508 2H5.55932C4.61558 2.0008 3.71072 2.37606 3.04339 3.04339C2.37606 3.71072 2.0008 4.61558 2 5.55932V18.4447C2.0008 19.3885 2.37606 20.2933 3.04339 20.9606C3.71072 21.628 4.61558 22.0032 5.55932 22.004H18.4447C19.3878 22.0022 20.2916 21.6264 20.958 20.9592C21.6245 20.292 21.9992 19.3878 22 18.4447V10.3051C22.0021 9.38904 21.6509 8.50747 21.0195 7.84377C20.3881 7.18007 19.5252 6.78535 18.6102 6.74173ZM4.88136 6.74173C4.56739 6.74173 4.26622 6.61728 4.04384 6.39566C3.82145 6.17403 3.69598 5.87329 3.69492 5.55932C3.69572 5.0651 3.8924 4.59134 4.24187 4.24187C4.59134 3.8924 5.0651 3.69572 5.55932 3.69492H15.0508C15.5451 3.69572 16.0188 3.8924 16.3683 4.24187C16.7178 4.59134 16.9145 5.0651 16.9153 5.55932V6.74173H4.88136ZM19.9661 17.0847H15.7288C15.3727 17.0847 15.02 17.0146 14.691 16.8783C14.362 16.742 14.0631 16.5423 13.8112 16.2905C13.5594 16.0386 13.3597 15.7397 13.2234 15.4107C13.0871 15.0816 13.0169 14.729 13.0169 14.3729C13.0169 14.0168 13.0871 13.6641 13.2234 13.3351C13.3597 13.0061 13.5594 12.7071 13.8112 12.4553C14.0631 12.2035 14.362 12.0037 14.691 11.8674C15.02 11.7312 15.3727 11.661 15.7288 11.661H19.9661V17.0847Z" fill="#424245"/>
<path d="M17.0847 15.3898C17.6464 15.3898 18.1017 14.9345 18.1017 14.3729C18.1017 13.8112 17.6464 13.3559 17.0847 13.3559C16.5231 13.3559 16.0678 13.8112 16.0678 14.3729C16.0678 14.9345 16.5231 15.3898 17.0847 15.3898Z" fill="#424245"/>
</svg>
