<svg width="24" height="24" viewBox="0 0 24 24" fill="none" xmlns="http://www.w3.org/2000/svg">
<path d="M20.0156 6.857H5.12556C5.04126 6.86065 4.95712 6.84673 4.87819 6.81608C4.79927 6.78542 4.72718 6.73866 4.66628 6.6786C4.60538 6.61855 4.55692 6.54645 4.52381 6.46663C4.49071 6.38682 4.47364 6.30094 4.47364 6.21416C4.47364 6.12739 4.49071 6.04151 4.52381 5.96169C4.55692 5.88188 4.60538 5.80977 4.66628 5.74972C4.72718 5.68967 4.79927 5.64291 4.87819 5.61225C4.95712 5.58159 5.04126 5.56767 5.12556 5.57133H20.1256C20.2077 5.57148 20.289 5.55498 20.3649 5.52277C20.4408 5.49056 20.5097 5.44328 20.5678 5.38362C20.6259 5.32397 20.672 5.25311 20.7035 5.17512C20.7349 5.09712 20.7511 5.01351 20.7511 4.92907C20.7513 4.6757 20.7028 4.42478 20.6086 4.19067C20.5144 3.95656 20.3763 3.74384 20.2021 3.56468C20.0279 3.38552 19.8211 3.24343 19.5935 3.14654C19.3659 3.04964 19.1219 2.99985 18.8756 3H4.5C3.83696 3 3.20107 3.27091 2.73223 3.75313C2.26339 4.23534 2 4.88937 2 5.57133V18.428C2 19.1099 2.26339 19.764 2.73223 20.2462C3.20107 20.7284 3.83696 20.9993 4.5 20.9993H20.0156C20.527 21.0132 21.0229 20.8181 21.3948 20.4568C21.7667 20.0954 21.9843 19.5973 22 19.0714V8.78606C21.9846 8.25993 21.7671 7.76151 21.3952 7.39995C21.0232 7.03839 20.5272 6.84315 20.0156 6.857ZM18.25 15.2144C18.0028 15.2144 17.7611 15.139 17.5555 14.9977C17.35 14.8564 17.1898 14.6557 17.0952 14.4207C17.0005 14.1858 16.9758 13.9273 17.024 13.6779C17.0723 13.4285 17.1913 13.1994 17.3661 13.0196C17.5409 12.8398 17.7637 12.7174 18.0061 12.6678C18.2486 12.6182 18.4999 12.6436 18.7284 12.7409C18.9568 12.8382 19.152 13.003 19.2893 13.2144C19.4267 13.4259 19.5 13.6744 19.5 13.9287C19.5 14.0976 19.4677 14.2647 19.4049 14.4207C19.342 14.5767 19.25 14.7184 19.1339 14.8378C19.0178 14.9572 18.88 15.0519 18.7284 15.1165C18.5767 15.1811 18.4142 15.2144 18.25 15.2144Z" fill="#424245"/>
</svg>
