<svg width="24" height="24" viewBox="0 0 24 24" fill="none" xmlns="http://www.w3.org/2000/svg">
<path fill-rule="evenodd" clip-rule="evenodd" d="M11.5001 3.5C8.73862 3.5 6.5 5.73864 6.5 8.50017C6.5 11.2617 8.73862 13.5003 11.5001 13.5003C14.2615 13.5003 16.5001 11.2617 16.5001 8.50017C16.5001 5.73864 14.2615 3.5 11.5001 3.5ZM5 8.50017C5 4.91024 7.91017 2 11.5001 2C15.09 2 18.0001 4.91024 18.0001 8.50017C18.0001 12.0901 15.09 15.0003 11.5001 15.0003C7.91017 15.0003 5 12.0901 5 8.50017Z" fill="#424245"/>
<path fill-rule="evenodd" clip-rule="evenodd" d="M11.5001 13.5003C11.9143 13.5003 12.2501 13.8361 12.2501 14.2503V21.2501C12.2501 21.6643 11.9143 22.0001 11.5001 22.0001C11.0859 22.0001 10.7501 21.6643 10.7501 21.2501V14.2503C10.7501 13.8361 11.0859 13.5003 11.5001 13.5003Z" fill="#424245"/>
<path fill-rule="evenodd" clip-rule="evenodd" d="M8.50028 19.0003C8.50028 18.5861 8.83606 18.2503 9.25028 18.2503H13.7499C14.1641 18.2503 14.4999 18.5861 14.4999 19.0003C14.4999 19.4145 14.1641 19.7503 13.7499 19.7503H9.25028C8.83606 19.7503 8.50028 19.4145 8.50028 19.0003Z" fill="#424245"/>
</svg>
