<svg width="24" height="24" viewBox="0 0 24 24" fill="none" xmlns="http://www.w3.org/2000/svg">
<g id="ETH">
<g id="ETH_2">
<g id="eth">
<path id="Shape" d="M12.0359 0.130057V0.14188C12.0477 0.200993 12.0477 0.271929 12.0477 0.342865V8.867C12.0359 8.91429 12.0004 8.92612 11.965 8.94976C11.7167 9.06799 11.4802 9.17439 11.232 9.2808C10.8891 9.43449 10.5344 9.60001 10.1916 9.7537L8.9502 10.3212C8.60734 10.4749 8.26449 10.6286 7.93345 10.7823C7.53148 10.9714 7.11769 11.1488 6.71572 11.3379C6.37286 11.4916 6.03 11.6572 5.67532 11.8108C5.39158 11.9409 5.10784 12.0591 4.83591 12.1892C4.81227 12.201 4.78862 12.2128 4.76498 12.2128C4.75316 12.2128 4.75316 12.2128 4.74133 12.201L5.06054 11.669C5.67532 10.6522 6.27828 9.6473 6.89306 8.63055C7.5433 7.54287 8.20537 6.45518 8.85562 5.3675C9.45857 4.36257 10.0734 3.35764 10.6763 2.35272C11.1137 1.61971 11.563 0.886708 12.0004 0.153703C12.0123 0.130057 12.0241 0.118235 12.0241 0.0945892H12.0359C12.0241 0.106412 12.0359 0.118235 12.0359 0.130057Z" fill="#8A92B2"/>
<path id="Shape_2" d="M19.2945 12.201L19.3063 12.2128L17.5684 13.2414L12.1063 16.469C12.0827 16.4808 12.059 16.4926 12.0472 16.5044C12.0117 16.5044 12.0117 16.469 12.0117 16.4572V16.3508V9.04435C12.0117 9.00889 12.0117 8.96159 12.0235 8.92613C12.0354 8.87884 12.0708 8.89066 12.1063 8.90248C12.26 8.97342 12.4255 9.04435 12.5792 9.11529C13.0403 9.3281 13.5014 9.5409 13.9625 9.74189C14.3644 9.91923 14.7546 10.1084 15.1565 10.2857C15.5585 10.4631 15.9605 10.6522 16.3625 10.8296C16.7053 10.9833 17.06 11.1488 17.4029 11.3025C17.7457 11.4562 18.1004 11.6217 18.4432 11.7754C18.7152 11.8936 18.9871 12.0237 19.259 12.1419C19.259 12.1774 19.2708 12.1892 19.2945 12.201Z" fill="#454A75"/>
<path id="Shape_3" d="M12.0354 23.8463C12.0354 23.8581 12.0236 23.87 12.0236 23.8818H12.0118C12.0118 23.8581 11.9881 23.8463 11.9763 23.8227C11.2433 22.7941 10.5103 21.7537 9.7773 20.7251C9.03247 19.6729 8.27582 18.6089 7.53099 17.5567C6.80981 16.5399 6.07681 15.5113 5.35562 14.4946C5.16646 14.2227 4.9773 13.9626 4.78814 13.6907C4.77631 13.667 4.76449 13.6552 4.74084 13.6197C4.77631 13.6197 4.79996 13.6434 4.81178 13.6552C5.84035 14.2581 6.8571 14.8611 7.88567 15.4641C9.06794 16.1616 10.2384 16.8591 11.4206 17.5567L12.0236 17.9113C12.0472 17.935 12.0472 17.9586 12.0472 17.9823V23.6808C12.0472 23.7399 12.0472 23.799 12.0354 23.8463Z" fill="#8A92B2"/>
<path id="Path" d="M4.729 12.2246V12.2128C5.10733 12.0473 5.47383 11.87 5.85216 11.7044C6.33689 11.4798 6.82161 11.267 7.30634 11.0424C7.67285 10.8768 8.05117 10.6995 8.41767 10.534C8.96152 10.2857 9.49354 10.0493 10.0374 9.80098C10.4039 9.63547 10.7704 9.46995 11.1487 9.29261C11.4088 9.17438 11.6807 9.05616 11.9408 8.93793C11.9645 8.92611 11.9999 8.91429 12.0118 8.89064C12.0236 8.89064 12.0236 8.90246 12.0118 8.91429V16.4217C12.0118 16.4571 11.9999 16.4926 12.0236 16.5163C11.9999 16.5517 11.9763 16.5163 11.9645 16.5044C11.8581 16.4453 11.7517 16.3862 11.6453 16.3153C9.36349 14.9675 7.06989 13.6079 4.78812 12.2601C4.77629 12.2483 4.75265 12.2365 4.729 12.2246Z" fill="#62688F"/>
<path id="Path_2" d="M19.2708 13.6197H19.2827C19.2827 13.6434 19.259 13.667 19.2472 13.6907C17.0718 16.7527 14.8965 19.8266 12.7211 22.8887C12.4965 23.2079 12.26 23.5271 12.0354 23.8463C12.0236 23.8345 12.0236 23.8227 12.0236 23.8109V23.7399V18.0059V17.8995C12.5201 17.604 13.0048 17.3202 13.5014 17.0246C15.4167 15.8897 17.3319 14.7665 19.2354 13.6315C19.2472 13.6434 19.259 13.6315 19.2708 13.6197Z" fill="#62688F"/>
<path id="Shape_4" d="M12.0236 8.91429V8.89065V8.81971V0.236458C12.0236 0.20099 12.0118 0.177344 12.0355 0.141876C14.4355 4.12611 16.8355 8.09853 19.2236 12.0828C19.2473 12.1182 19.2828 12.1655 19.2946 12.2128C19.1291 12.1537 18.9754 12.0709 18.8217 12C18.6325 11.9172 18.4315 11.8227 18.2424 11.7399C18.1241 11.6808 17.9941 11.6335 17.8759 11.5744C17.6749 11.4798 17.4739 11.397 17.2729 11.3025C17.1547 11.2552 17.0365 11.1961 16.9182 11.137L16.1379 10.7823C16.0079 10.7232 15.8778 10.664 15.736 10.6049L15.1685 10.3567C15.0502 10.3094 14.932 10.2503 14.8138 10.1911L14.0335 9.83646C13.9034 9.77734 13.7734 9.71823 13.6315 9.65912L13.064 9.41084C12.934 9.35173 12.8158 9.29262 12.6857 9.2335C12.4611 9.1271 12.2365 9.02069 12 8.92611C12.0355 8.91429 12.0236 8.91429 12.0236 8.91429Z" fill="#62688F"/>
</g>
</g>
</g>
</svg>
