<svg width="24" height="24" viewBox="0 0 24 24" fill="none" xmlns="http://www.w3.org/2000/svg">
<g id="GTO">
<g id="GTO_2">
<g id="Group">
<path id="Oval" d="M12 24C18.6274 24 24 18.6274 24 12C24 5.37258 18.6274 0 12 0C5.37258 0 0 5.37258 0 12C0 18.6274 5.37258 24 12 24Z" fill="#7F27FF"/>
<g id="Group_2">
<path id="Shape" d="M11.6 10.4H6.4V15.6C6.39473 16.132 6.60375 16.6438 6.97997 17.02C7.35619 17.3962 7.86797 17.6053 8.4 17.6H11.6V10.4ZM12.4 10.4H17.6V15.6C17.6053 16.132 17.3963 16.6438 17.02 17.02C16.6438 17.3962 16.132 17.6053 15.6 17.6H12.4V10.4Z" fill="white"/>
<path id="Shape_2" d="M12.4001 9.59999H17.4419C18.0001 9.59999 18.4019 9.11999 18.4019 8.63999C18.4019 8.08185 17.9219 7.67999 17.4419 7.67999H6.64005C6.08191 7.67999 5.68005 8.15999 5.68005 8.63999C5.68005 9.19813 6.16005 9.59999 6.64005 9.59999H11.6001V8.31999H12.4001" fill="white"/>
</g>
<g id="Group_3">
<path id="Shape_3" d="M12.733 8.23107C13.853 6.23107 14.733 5.59107 15.373 6.23107C16.013 6.87107 15.613 7.51107 14.253 8.23107" stroke="white"/>
<path id="Shape_4" d="M11.6167 8.23107C10.4967 6.23107 9.61671 5.59107 8.97671 6.23107C8.33671 6.87107 8.73671 7.51107 10.0967 8.23107" stroke="white"/>
</g>
</g>
</g>
</g>
</svg>
