<svg width="32" height="33" viewBox="0 0 32 33" fill="none" xmlns="http://www.w3.org/2000/svg">
<path d="M20.646 29.8333C21.7069 23.9538 17.5643 22.2753 15.3636 22.1723C18.0664 20.4906 20.1597 21.7921 20.6112 22.2786C21.0628 22.7618 21.3974 22.6523 23.1972 21.6471C24.9969 20.642 26.1557 18.1194 23.6203 15.7966C21.5932 13.9345 17.6622 13.8733 15.9509 14.073C14.5427 15.0073 14.8552 17.0982 15.1868 18.0292C12.4588 18.1065 11.2779 15.0943 11.0284 13.5769C6.35544 12.5202 4.39468 9.71092 4 8.43837C10.82 5.36492 15.6036 5.33593 17.1444 5.70642C21.8963 1.91454 24.9527 3.19353 25.8873 4.305C24.1097 4.06015 22.6478 6.30564 22.1394 7.45899C23.5413 7.7135 27.2545 10.5421 27.9365 15.9867C28.6153 21.4313 23.6518 22.2689 22.6446 23.084C21.6374 23.8991 22.1836 24.0762 22.5246 25.7483C22.7962 27.0853 21.3848 29.0344 20.646 29.8333Z" fill="#18CBC7"/>
</svg>
