<svg width="141" height="141" viewBox="0 0 141 141" fill="none" xmlns="http://www.w3.org/2000/svg">
    <defs>
        <radialGradient id="paint0_radial_99_3088" cx="0" cy="0" r="1" gradientUnits="userSpaceOnUse" gradientTransform="translate(57.2632 53.8381) rotate(-1.84971) scale(6.71135 4.63011)">
            <stop offset="0.17" stop-color="#662346"/>
            <stop offset="1" stop-color="#662346" stop-opacity="0"/>
        </radialGradient>
        <radialGradient id="paint1_radial_99_3088" cx="0" cy="0" r="1" gradientUnits="userSpaceOnUse" gradientTransform="translate(90.0227 52.9944) rotate(-1.84971) scale(6.71135 4.63011)">
            <stop offset="0.17" stop-color="#662346"/>
            <stop offset="1" stop-color="#662346" stop-opacity="0"/>
        </radialGradient>
        <clipPath id="clip0_99_3088">
            <rect width="141" height="141" fill="white"/>
        </clipPath>
    </defs>
    <g clip-path="url(#clip0_99_3088)">
<path d="M138.659 26.0096C138.329 24.3155 135.921 20.3025 134.416 19.4533C132.911 18.6084 128.167 17.8384 127.291 17.0464C125.201 15.1499 124.017 11.3085 126.842 11.1985C129.487 11.0929 131.674 8.72999 131.776 7.76635C131.877 6.8027 132.717 4.41339 127.291 0.00439453C128.814 3.52455 129.153 5.84346 128.184 8.08316C127.221 10.3185 120.567 10.9961 121.777 13.1126C122.327 14.0806 121.882 18.6876 122.683 19.4621C124.998 21.7062 129.804 23.0218 129.791 23.9591C129.778 24.8963 128.585 29.1117 126.908 29.1733C125.236 29.2349 124.017 28.0821 123.85 27.1272C123.682 26.1768 124.052 24.6807 125.689 24.3331C124.316 22.3706 120.197 23.6687 119.854 24.7335C119.506 25.7984 119.788 30.1766 121.614 31.7254C123.44 33.2743 125.474 32.7815 127.859 33.0147C130.209 33.2435 131.375 34.8496 133.461 33.7495C135.547 32.6495 139.116 28.3329 138.663 26.0184L138.659 26.0096Z" fill="#61376B"/>
<g style="mix-blend-mode:multiply" opacity="0.48">
<g style="mix-blend-mode:multiply" opacity="0.48">
<path d="M138.659 26.0096C138.329 24.3155 135.921 20.3025 134.416 19.4533C134.319 19.4005 134.214 19.3477 134.095 19.2949C134.165 19.6865 134.368 20.0649 134.619 20.3817C134.984 20.8349 135.437 21.2045 135.807 21.6534C136.731 22.7798 137.026 24.3463 136.779 25.7852C136.533 27.224 135.789 28.5397 134.852 29.6573C134.007 30.6606 132.849 31.5758 131.542 31.4834C132.955 29.5429 133.417 26.938 132.753 24.6323C132.304 25.8644 131.855 27.1052 131.168 28.2229C130.486 29.3405 129.544 30.3394 128.347 30.8762C126.261 31.809 123.634 31.0962 122.107 29.3977C120.826 27.9721 120.307 25.9788 120.505 24.0691C120.162 24.2803 119.915 24.5135 119.84 24.7379C119.493 25.8028 119.774 30.181 121.601 31.7298C123.427 33.2787 125.46 32.7859 127.846 33.0191C130.196 33.2479 131.362 34.854 133.448 33.7539C135.534 32.6539 139.103 28.3373 138.65 26.0228L138.659 26.0096Z" fill="#84529C"/>
</g>
<g style="mix-blend-mode:multiply" opacity="0.48">
<path d="M122.683 19.4533C123.722 20.4609 125.267 21.2794 126.648 21.9658C126.094 21.517 125.553 21.0506 125.029 20.5621C124.342 19.9197 123.665 19.2025 123.427 18.2916C123.137 17.1696 123.581 15.9639 123.33 14.8375C123.22 14.3491 122.987 13.9002 122.85 13.4206C122.714 12.941 122.692 12.3866 122.974 11.9773C123.352 11.4273 124.105 11.3305 124.738 11.1193C125.605 10.8289 126.362 10.2261 126.842 9.44723C126.864 9.41203 126.882 9.36803 126.904 9.32843C124.716 10.6705 120.822 11.4449 121.772 13.1082C122.322 14.0762 121.878 18.6833 122.679 19.4577L122.683 19.4533Z" fill="#84529C"/>
</g>
</g>
<path d="M5.16651 59.8559C5.46137 58.3598 7.609 54.8133 8.95568 54.0652C10.3023 53.3172 13.3918 52.3404 14.1751 51.6407C16.0455 49.9643 17.1061 47.1657 14.5844 47.0645C12.2211 46.9721 11.4026 44.5872 11.3146 43.7336C11.2265 42.8843 10.5532 39.6502 15.3194 36.8737C13.9595 39.9846 13.6602 42.0351 14.5228 44.0108C15.3854 45.9865 21.331 46.5849 20.2483 48.455C19.7555 49.3086 20.1515 53.3788 19.4386 54.0608C18.0479 55.3897 15.6538 56.3533 14.2367 57.0926C13.5458 57.4534 13.603 59.0111 13.6074 59.2839C13.6206 60.1111 14.1707 62.584 15.6626 62.6412C17.1589 62.694 18.2459 61.6776 18.3956 60.8327C18.5452 59.9923 18.2151 58.6722 16.754 58.3642C17.9775 56.6306 21.661 57.779 21.9691 58.7163C22.2772 59.6579 22.0307 63.5257 20.398 64.8941C18.7653 66.2626 16.9521 65.827 14.8221 66.0338C12.7228 66.2362 11.6842 67.6531 9.81825 66.6806C7.95227 65.7082 4.76603 61.8976 5.17091 59.8515L5.16651 59.8559Z" fill="#61376B"/>
<g style="mix-blend-mode:multiply" opacity="0.48">
<g style="mix-blend-mode:multiply" opacity="0.48">
<path d="M5.16651 59.8559C5.46137 58.3598 7.609 54.8133 8.95568 54.0652C9.03929 54.0168 9.13611 53.9728 9.24173 53.9244C9.18012 54.2721 8.99969 54.6065 8.77084 54.8837C8.44517 55.2841 8.03589 55.6097 7.71023 56.0057C6.88286 57.0002 6.62321 58.3862 6.84325 59.6535C7.06329 60.9252 7.72783 62.0868 8.5684 63.0725C9.32095 63.9569 10.3596 64.7709 11.5258 64.6873C10.2627 62.9712 9.84906 60.6743 10.4432 58.6327C10.8437 59.7195 11.2441 60.8152 11.8559 61.8052C12.4676 62.7908 13.3038 63.6753 14.3732 64.1461C16.2347 64.9689 18.5804 64.3397 19.9447 62.8392C21.0889 61.5808 21.551 59.8207 21.375 58.131C21.683 58.3202 21.9031 58.5226 21.9691 58.7207C22.2772 59.6623 22.0307 63.5301 20.398 64.8985C18.7653 66.267 16.9521 65.8314 14.8221 66.0382C12.7228 66.2406 11.6842 67.6575 9.81825 66.685C7.95227 65.7126 4.76603 61.902 5.17091 59.8559H5.16651Z" fill="#84529C"/>
</g>
<g style="mix-blend-mode:multiply" opacity="0.48">
<path d="M19.4386 54.0652C18.51 54.9541 17.1325 55.6801 15.8958 56.2829C16.3887 55.8869 16.8772 55.4733 17.3393 55.0421C17.9511 54.4745 18.5584 53.8408 18.7696 53.0356C19.0293 52.0456 18.6288 50.9807 18.8576 49.9819C18.9545 49.5506 19.1613 49.1546 19.2845 48.7278C19.4077 48.3054 19.4297 47.817 19.1745 47.4517C18.8356 46.9677 18.1623 46.8797 17.599 46.6949C16.8244 46.4397 16.1467 45.9073 15.7198 45.2208C15.6978 45.19 15.6846 45.1504 15.667 45.1152C17.621 46.2989 21.0977 46.9853 20.2483 48.455C19.7554 49.3086 20.1515 53.3788 19.4386 54.0608V54.0652Z" fill="#84529C"/>
</g>
</g>
<path d="M4.08809 124.319C4.08809 124.319 4.26412 123.364 3.95166 122.832" stroke="#268E26" stroke-width="0.63" stroke-linecap="round" stroke-linejoin="round"/>
<path d="M3.81071 124.424C3.81071 124.424 3.66108 123.276 3.01855 123.153" stroke="white" stroke-width="0.63" stroke-linecap="round" stroke-linejoin="round"/>
<path d="M3.47209 124.455C3.47209 124.455 3.15522 123.487 2.5127 123.566" stroke="#0032D0" stroke-width="0.63" stroke-linecap="round" stroke-linejoin="round"/>
<path d="M4.54127 124.504C4.54127 124.504 4.43565 123.285 5.06938 122.924" stroke="#D30000" stroke-width="0.63" stroke-linecap="round" stroke-linejoin="round"/>
<path d="M4.82767 123.896L3.11572 124.306C3.18174 124.583 4.80566 131.135 10.6016 134.334C14.404 136.433 19.0601 136.573 24.4424 134.756C40.51 129.317 60.2656 133.77 60.4637 133.814L60.8597 132.098C60.0324 131.909 40.4264 127.487 23.8791 133.088C18.9897 134.743 14.8177 134.646 11.4686 132.802C6.35477 129.986 4.84527 123.958 4.82767 123.896V123.896Z" fill="#2B232D"/>
<path d="M3.11555 124.306C3.11555 124.306 3.11555 124.103 2.89551 123.94C3.3444 124.033 3.3532 124.125 3.3532 124.125L3.52924 123.575L3.71407 124.006C3.71407 124.006 4.08815 123.386 4.44462 123.28C4.40061 123.448 4.44462 123.83 4.44462 123.83L5.06514 123.346C5.06514 123.346 4.80989 123.478 4.8231 123.896C4.8363 124.314 4.64266 124.526 4.52824 124.565C4.41381 124.6 3.71847 124.693 3.67006 124.684C3.62605 124.675 3.11115 124.31 3.11115 124.31L3.11555 124.306Z" fill="#2B232D"/>
<g style="mix-blend-mode:multiply" opacity="0.5">
<path d="M24.8999 134.298C19.5177 136.12 14.8615 135.979 11.0591 133.876C6.41621 131.311 4.44901 126.589 3.81969 124.675C3.75367 124.473 3.70086 124.306 3.66566 124.174C3.61285 123.993 3.58644 123.879 3.57764 123.848C3.57764 123.848 3.57764 123.756 3.51163 123.65L3.35759 124.125C3.35759 124.125 3.35319 124.099 3.28718 124.064C3.22997 124.028 3.11555 123.984 2.8999 123.94C3.11114 124.103 3.11555 124.292 3.11555 124.306C3.18596 124.583 4.80989 131.135 10.6015 134.338C14.4038 136.437 19.06 136.578 24.4422 134.756C40.5099 129.322 60.2699 133.77 60.4679 133.819L60.5911 133.286C57.9242 132.728 39.8189 129.247 24.8999 134.298V134.298Z" fill="#140716"/>
</g>
<path d="M0.13623 120.156C0.13623 120.156 1.23645 120.411 2.04181 121.696" stroke="white" stroke-width="0.63" stroke-linecap="round" stroke-linejoin="round"/>
<path d="M2.4292 119.091C2.4292 119.091 2.4292 120.799 2.89569 121.529" stroke="white" stroke-width="0.63" stroke-linecap="round" stroke-linejoin="round"/>
<path d="M4.86269 119.175C4.86269 119.175 3.78888 120.275 3.81088 121.472" stroke="white" stroke-width="0.63" stroke-linecap="round" stroke-linejoin="round"/>
<path d="M115.254 134.681L115.232 132.921C126.908 132.78 135.274 129.502 138.179 123.923C139.895 120.627 139.495 116.698 137.07 113.147C131.379 104.8 117.71 112.152 117.574 112.227L116.729 110.683C117.349 110.344 131.947 102.498 138.526 112.152C141.325 116.258 141.77 120.843 139.741 124.732C137.853 128.358 132.158 134.474 115.254 134.677V134.681Z" fill="#2B232D"/>
<g style="mix-blend-mode:multiply" opacity="0.5">
<g style="mix-blend-mode:multiply" opacity="0.5">
<path d="M138.782 126.272C136.167 129.863 129.945 134.505 115.254 134.681L115.232 132.921C115.408 132.921 115.584 132.917 115.756 132.912L115.769 134.021C129.571 133.854 135.899 129.749 138.782 126.272Z" fill="#140716"/>
</g>
<g style="mix-blend-mode:multiply" opacity="0.5">
<path d="M117.578 112.227L116.729 110.683C116.799 110.647 117.037 110.52 117.415 110.335L118.088 111.567C118.229 111.492 131.898 104.139 137.584 112.487C140.009 116.038 140.41 119.967 138.693 123.263C138.332 123.954 137.888 124.614 137.364 125.234C137.672 124.812 137.941 124.376 138.178 123.923C139.899 120.627 139.494 116.698 137.074 113.147C131.383 104.8 117.714 112.152 117.578 112.227V112.227Z" fill="#140716"/>
</g>
</g>
<path d="M97.2201 91.7441C96.2167 96.2191 90.3195 97.6668 73.1648 97.4072C56.0146 97.6668 50.113 96.2191 49.114 91.7441C48.1194 85.9843 50.5487 79.5996 54.3686 72.5681C55.5305 70.4296 56.4327 68.2251 57.1324 66.1262C57.6825 64.4673 58.1138 62.8744 58.4351 61.44C58.6419 60.5599 58.8003 59.7371 58.9368 58.9935C59.0248 58.4742 59.104 57.999 59.17 57.5678C59.1876 57.4666 59.2008 57.3742 59.2096 57.2774C59.2448 57.0618 59.2712 56.855 59.2976 56.6657C59.3196 56.4721 59.3417 56.2961 59.3593 56.1377C59.4517 55.3589 59.4781 54.9145 59.4781 54.9145L61.4585 54.8485L62.3431 54.8133L64.3543 54.7429L71.3385 54.4921C71.3385 54.4084 71.3341 54.36 71.3341 54.36L73.1648 54.4304L74.9956 54.36C74.9956 54.36 74.9912 54.4084 74.9912 54.4921L85.1484 54.8573L86.3851 54.9013H86.3895L86.8516 54.9145C86.8516 54.9145 86.856 55.0113 86.8736 55.1785V55.1873C86.8824 55.2709 86.8912 55.3809 86.9 55.5085C86.922 55.7505 86.9528 56.0673 86.9968 56.4545C87.0144 56.6085 87.032 56.7758 87.054 56.9562C87.1156 57.493 87.1949 58.1222 87.2961 58.8306C87.3313 59.0683 87.3665 59.3147 87.4061 59.5655C87.4853 60.0891 87.5777 60.6479 87.6834 61.242C87.9298 62.6544 88.2467 64.2473 88.6472 65.9546C88.6648 66.0074 88.678 66.069 88.6912 66.1262C88.766 66.443 88.8452 66.7642 88.9288 67.0898C89.3689 68.8323 89.9014 70.6848 90.5351 72.5681C92.7796 79.2344 98.1751 86.2175 97.2201 91.7441V91.7441Z" fill="#61376B"/>
<path d="M48.119 32.4559C47.362 30.5638 47.1376 28.3989 46.7987 25.0767C46.3014 20.1661 46.055 16.0959 45.8305 13.5834C45.5401 10.3581 47.3092 10.9917 48.5723 11.5109C50.8343 12.435 54.0338 14.6043 55.6621 15.7747C58.197 17.6008 62.1754 22.7842 62.0698 25.1867C59.5525 28.3549 55.0108 31.5934 48.119 32.4559V32.4559Z" fill="#61376B"/>
<g style="mix-blend-mode:multiply" opacity="0.5">
<path d="M62.0743 25.1911C61.951 25.3451 61.8278 25.4991 61.6958 25.6532C60.8552 23.0218 57.6558 19.0397 55.4949 17.482C53.871 16.3071 50.6672 14.1422 48.4095 13.2182C47.4809 12.8398 46.2883 12.3954 45.8262 13.4514C45.5973 10.3801 47.3313 11.0005 48.5811 11.5109C50.8432 12.435 54.0426 14.5999 55.671 15.7747C58.2059 17.6008 62.1843 22.7842 62.0787 25.1867L62.0743 25.1911Z" fill="#61376B"/>
</g>
<path d="M50.2978 32.0951C49.7432 30.6342 49.9413 28.7377 49.6244 26.2032C49.1623 22.4586 48.8895 19.3565 48.6738 17.4424C48.3966 14.9827 49.5848 15.5151 50.4342 15.9419C51.9569 16.7032 54.1353 18.4412 55.2444 19.3741C56.9739 20.8306 60.455 25.1339 60.4506 26.9556C58.8707 29.2965 54.8351 31.6286 50.2934 32.0951H50.2978Z" fill="#A62E3A"/>
<g style="mix-blend-mode:multiply" opacity="0.35">
<path d="M60.4198 26.6432C59.2536 24.8435 57.546 22.8987 56.4942 22.0142C55.3852 21.0814 53.2067 19.3477 51.684 18.5821C50.8347 18.1552 49.6464 17.6228 49.9237 20.0825C50.1393 21.9966 50.4078 25.0988 50.8743 28.8433C51.0195 30.0226 51.0547 31.061 51.1075 31.9851C50.8391 32.0291 50.5662 32.0643 50.2934 32.0907C49.7432 30.6342 49.9369 28.7333 49.6244 26.1988C49.1623 22.4542 48.8895 19.3565 48.6738 17.438C48.3966 14.9783 49.5848 15.5063 50.4386 15.9331C51.9613 16.6944 54.1397 18.4324 55.2488 19.3653C56.8859 20.747 60.0941 24.6763 60.4242 26.6344L60.4198 26.6432Z" fill="#A62E3A"/>
</g>
<path d="M86.2705 22.0934C87.2475 26.0448 99.3632 33.0763 101.057 31.6242C102.285 30.5726 102.439 24.2627 102.483 22.6566C102.62 17.7328 101.99 14.2962 102.431 12.4482C102.866 10.6001 101.436 8.8224 98.3069 10.7541C95.1779 12.6858 89.6944 16.8308 86.2749 22.0934H86.2705Z" fill="#3D243E"/>
<path d="M86.2705 22.0934C87.2475 26.0448 99.3632 33.0763 101.057 31.6242C102.285 30.5726 102.439 24.2627 102.483 22.6566C102.62 17.7328 101.99 14.2962 102.431 12.4482C102.866 10.6001 101.436 8.8224 98.3069 10.7541C95.1779 12.6858 89.6944 16.8308 86.2749 22.0934H86.2705Z" fill="#3D243E"/>
<path d="M86.2705 22.0934C87.2475 26.0448 99.3632 33.0763 101.057 31.6242C102.285 30.5726 102.439 24.2627 102.483 22.6566C102.62 17.7328 101.99 14.2962 102.431 12.4482C102.866 10.6001 101.436 8.8224 98.3069 10.7541C95.1779 12.6858 89.6944 16.8308 86.2749 22.0934H86.2705Z" fill="#61376B"/>
<g style="mix-blend-mode:multiply" opacity="0.5">
<path d="M101.053 31.6242C100.872 31.7782 100.578 31.8354 100.19 31.809C100.965 29.7365 101.075 25.0371 101.119 23.6819C101.255 18.758 100.626 15.3215 101.062 13.4734C101.502 11.6209 100.067 9.84764 96.9381 11.7793C96.2339 12.2149 95.4153 12.7562 94.5264 13.403C95.939 12.2986 97.2505 11.4009 98.2979 10.7541C101.427 8.8224 102.857 10.6001 102.422 12.4482C101.981 14.3006 102.611 17.7372 102.474 22.6566C102.43 24.2627 102.276 30.5726 101.048 31.6242H101.053Z" fill="#61376B"/>
</g>
<path d="M87.5645 24.2451C88.1454 26.5992 96.1242 31.7474 97.132 30.8806C97.8625 30.2558 99.3148 25.0811 99.6713 21.4642C99.9617 18.5424 99.3808 16.4832 99.6405 15.3787C99.9001 14.2787 99.0508 13.2182 97.1848 14.3711C95.3188 15.5239 89.6065 21.1078 87.5645 24.2407V24.2451Z" fill="#A62E3A"/>
<g style="mix-blend-mode:multiply" opacity="0.35">
<path d="M99.6713 21.4642C99.3148 25.0812 97.8625 30.2514 97.132 30.8762C97.0748 30.929 96.9956 30.9554 96.8943 30.9686C97.5281 28.9797 98.1838 26.102 98.4082 23.8315C98.6987 20.9098 98.1178 18.8505 98.3774 17.746C98.6371 16.646 97.7877 15.5855 95.9217 16.7384C94.399 17.6756 90.3062 21.5742 87.7449 24.6807C87.6613 24.5223 87.6041 24.3771 87.5688 24.2363C89.6065 21.099 95.3232 15.5151 97.1892 14.3667C99.0552 13.2138 99.9045 14.2743 99.6449 15.3743C99.3852 16.4744 99.9662 18.5381 99.6757 21.4598L99.6713 21.4642Z" fill="#A62E3A"/>
</g>
<path d="M104.917 42.9459C105.027 46.0965 104.164 48.8774 102.651 51.2711C101.696 52.7892 100.477 54.1532 99.0859 55.3589C98.813 55.5921 98.5402 55.8209 98.2541 56.0409C97.9724 56.2653 97.6864 56.4809 97.3915 56.6877C97.1715 56.8418 96.947 57.0002 96.7182 57.1498C96.4893 57.2994 96.2605 57.449 96.0273 57.5898C95.3055 58.0386 94.5618 58.4522 93.796 58.8306C93.7564 58.8482 93.7124 58.8702 93.6684 58.8878C93.5848 58.9274 93.4967 58.9626 93.3999 59.0022H93.3955C93.3339 59.0242 93.2723 59.0507 93.2063 59.0727C93.1491 59.0947 93.0919 59.1123 93.0302 59.1343C92.8498 59.1959 92.6518 59.2575 92.4361 59.3191C92.2953 59.3587 92.1457 59.3983 91.9872 59.4379C91.8728 59.4687 91.7496 59.4995 91.6264 59.5303C91.5515 59.5479 91.4679 59.5655 91.3887 59.5875C91.3887 59.5875 91.3843 59.5875 91.3799 59.5875C91.1643 59.6359 90.9354 59.6887 90.6978 59.7371C90.4205 59.7943 90.1257 59.8515 89.8176 59.9087C89.4259 59.9879 89.0166 60.0583 88.5898 60.1287H88.5854C88.4577 60.1507 88.3257 60.1683 88.1937 60.1903C87.9648 60.2255 87.7316 60.2607 87.4939 60.2959C87.4763 60.3003 87.4587 60.3003 87.4411 60.3047C87.4279 60.3047 87.4103 60.3091 87.3927 60.3135H87.3795C87.1815 60.3443 86.9746 60.3707 86.7678 60.4015C86.5213 60.4367 86.2705 60.4675 86.0196 60.5027L85.9272 60.5159C85.9272 60.5159 85.9052 60.5203 85.8964 60.5203C85.5267 60.5643 85.1527 60.6127 84.7698 60.6567C84.5497 60.6831 84.3297 60.7095 84.1053 60.7359C83.894 60.7579 83.6784 60.7799 83.4627 60.8019L82.961 60.8547C82.6354 60.8855 82.3053 60.9207 81.9752 60.9515C81.6892 60.9779 81.4075 60.9999 81.1171 61.0263C80.9762 61.0395 80.831 61.0527 80.6858 61.0615C80.2545 61.0967 79.8188 61.1319 79.3787 61.1627C79.0838 61.1847 78.789 61.2067 78.4941 61.2243C78.0936 61.2508 77.6932 61.2772 77.2883 61.2992C77.1078 61.308 76.923 61.3168 76.7426 61.33C76.5841 61.3344 76.4257 61.3432 76.2629 61.352C75.9988 61.3652 75.7348 61.374 75.4663 61.3872C75.2507 61.396 75.0394 61.4048 74.8194 61.4136C74.5553 61.4224 74.2913 61.4312 74.0272 61.4356C73.8424 61.4444 73.6575 61.4488 73.4683 61.4532L72.7818 61.4664C68.843 61.5368 65.089 61.3916 62.2328 60.9251C62.0876 60.9031 61.9468 60.8767 61.8016 60.8547C61.6651 60.8371 61.5287 60.8195 61.3923 60.7975C61.0402 60.7491 60.6881 60.7051 60.3361 60.6611C60.3229 60.6611 60.3097 60.6611 60.3009 60.6567C60.2481 60.6479 60.1952 60.6435 60.1424 60.6347L59.4559 60.5555H59.4515C59.2094 60.5247 58.9674 60.4983 58.7253 60.4675C58.4921 60.4411 58.2588 60.4103 58.0212 60.3795C57.81 60.3487 57.6031 60.3223 57.3963 60.2915L57.3171 60.2783C57.0838 60.2431 56.8506 60.2079 56.6173 60.1639C56.3841 60.1287 56.1508 60.0847 55.9176 60.0363C55.6931 59.9879 55.4731 59.9395 55.2486 59.8867C55.2354 59.8823 55.2178 59.8823 55.2046 59.8779C55.011 59.8295 54.8174 59.7811 54.6237 59.7239C54.5973 59.7195 54.5665 59.7107 54.5401 59.7019C53.0834 59.2839 51.7455 58.6634 50.5265 57.8714C50.324 57.7394 50.1216 57.603 49.928 57.4622C49.7343 57.3214 49.5495 57.1762 49.3647 57.031C49.3647 57.0266 49.3515 57.0222 49.3471 57.0178C49.127 56.8506 48.9114 56.6701 48.7045 56.4809C48.6649 56.4457 48.6253 56.4105 48.5857 56.3709C47.7627 55.6361 47.0146 54.8045 46.3324 53.8936C45.9188 53.3392 45.5931 52.732 45.3466 52.0895C44.2728 49.3306 44.5721 45.9117 44.8802 43.1395C45.0254 41.7975 45.2278 40.473 45.4259 39.1397C45.8175 36.5568 46.6141 34.0355 47.8816 31.7914C48.4361 30.7926 49.0918 29.8509 49.8356 28.9841C50.1304 28.6365 50.4385 28.3065 50.7685 27.9896C51.5651 27.2064 52.4497 26.5068 53.4311 25.8995C54.8218 25.0371 56.3709 24.2539 58.0476 23.5718C58.2632 23.4838 58.4789 23.3958 58.6989 23.3122H58.7033C59.1962 23.1186 59.7023 22.9338 60.2172 22.7578C60.5385 22.6478 60.8686 22.5378 61.203 22.4366C61.203 22.4366 61.2074 22.4322 61.2074 22.4366C63.7159 21.6446 66.4137 21.0549 69.2082 20.6809H69.2127C71.6287 20.3597 74.1108 20.2013 76.6061 20.2277C77.7944 20.2409 78.987 20.2629 80.1753 20.3157C82.4725 20.4169 84.7566 20.6237 86.9658 21.0681H86.9702C87.8284 21.2441 88.6822 21.4553 89.5139 21.715H89.5183C89.7472 21.781 89.976 21.8558 90.2005 21.9306C92.4625 22.7006 94.5926 23.8139 96.5157 25.4375C97.0042 25.8555 97.4795 26.3044 97.946 26.7884C98.0825 26.9292 98.2145 27.0744 98.3465 27.2196C98.3553 27.224 98.3597 27.2372 98.3685 27.2416C98.4169 27.2944 98.4609 27.3472 98.505 27.4044C98.5622 27.466 98.6194 27.532 98.6722 27.598C98.813 27.7564 98.945 27.9192 99.0815 28.0908H99.0859C99.0859 28.0908 99.0947 28.104 99.0947 28.1084C99.2399 28.2889 99.3807 28.4693 99.5216 28.6629C99.5964 28.7641 99.6668 28.8609 99.7416 28.9665L99.7548 28.9797C99.7768 29.0105 99.8032 29.0457 99.8252 29.0765C99.9132 29.1997 99.9925 29.3273 100.08 29.4549C100.164 29.5737 100.248 29.7013 100.327 29.8289C100.375 29.8993 100.424 29.9741 100.468 30.0489C100.507 30.1105 100.547 30.1721 100.591 30.2381C100.635 30.3129 100.679 30.3877 100.723 30.467C100.829 30.643 100.934 30.8146 101.035 30.995C101.11 31.1314 101.181 31.259 101.251 31.3866C101.656 32.117 102.021 32.8299 102.356 33.5251C102.615 34.0707 102.853 34.6075 103.069 35.1312C103.179 35.3952 103.28 35.6548 103.381 35.9144C103.482 36.1696 103.575 36.4292 103.663 36.68C103.751 36.9352 103.834 37.1905 103.914 37.4369C104.01 37.7449 104.098 38.0529 104.182 38.3565C104.266 38.6601 104.345 38.9593 104.411 39.2586C104.547 39.8482 104.653 40.429 104.737 40.9922C104.754 41.1154 104.772 41.2342 104.785 41.3618C104.803 41.4851 104.816 41.6127 104.825 41.7359C104.829 41.7667 104.833 41.8019 104.838 41.8371L104.851 41.9427C104.851 41.9955 104.851 42.0439 104.86 42.0923C104.864 42.1451 104.869 42.1979 104.873 42.2463C104.891 42.4839 104.904 42.7171 104.913 42.9459H104.917Z" fill="#61376B"/>
<path d="M68.9396 41.5511L68.8164 40.2354C68.7768 39.5358 68.3147 39.4654 68.0639 40.1826L67.9891 40.5083C67.813 41.4675 67.4698 41.7359 66.4619 41.5467L47.9562 38.8142C47.1773 38.6514 47.1773 40.0814 47.7626 40.1562L67.527 42.8888C68.3191 42.9988 68.9396 42.5763 68.9352 41.5423L68.9396 41.5511Z" fill="#1D111E"/>
<path d="M68.1606 42.9768C67.3332 56.7978 46.5522 54.7121 48.119 40.2047L68.1606 42.9768Z" fill="#FABD3C"/>
<g style="mix-blend-mode:multiply" opacity="0.9">
<path d="M68.0904 43.782C66.5413 56.5074 47.1994 54.4921 48.0664 40.8603C48.8541 52.2876 65.1506 54.0433 68.0904 43.782Z" fill="#FABD3C"/>
</g>
<path d="M65.344 42.4927C64.7499 52.4504 49.7781 50.9455 50.9091 40.4951L65.344 42.4927Z" fill="#1D111E"/>
<path d="M53.4618 43.1087C50.8037 44.0592 49.6991 45.9777 50.8521 46.2461C52.0051 46.5145 53.8491 44.5168 54.2584 44.1252C55.0902 43.3288 54.8657 42.6027 53.4618 43.1087Z" fill="white"/>
<path d="M54.1393 45.9425C52.3217 46.5938 51.5648 47.905 52.3569 48.0898C53.1447 48.2746 54.4034 46.9062 54.685 46.6378C55.2527 46.0921 55.1031 45.5993 54.1393 45.9425V45.9425Z" fill="white"/>
<path d="M98.4124 40.0198L78.6568 42.7523C77.4201 42.9107 76.9404 42.5103 77.0064 41.1771C77.0196 40.9043 77.1077 40.099 77.1077 40.099C77.1561 39.2938 77.7546 39.6326 77.8514 40.0462C78.0318 41.4939 78.9164 41.5247 79.823 41.3883L98.3111 38.6601C99.3013 38.5325 99.3585 39.9186 98.4168 40.0198H98.4124Z" fill="#1D111E"/>
<path d="M77.7944 42.8755C78.6218 56.6965 99.4028 54.6109 97.8361 40.1034L77.7944 42.8755Z" fill="#FABD3C"/>
<g style="mix-blend-mode:multiply" opacity="0.9">
<path d="M78.0273 44.6796C81.4864 54.2457 97.2812 52.2524 97.8973 40.9263C98.5751 54.0345 80.4346 56.2434 78.0273 44.6796Z" fill="#FABD3C"/>
</g>
<path d="M80.6064 42.3871C81.2006 52.3447 96.1724 50.8399 95.0414 40.3894L80.6064 42.3871V42.3871Z" fill="#1D111E"/>
<path d="M92.493 43.0075C95.1511 43.958 96.2557 45.8765 95.1027 46.1449C93.9497 46.4133 92.1057 44.4156 91.6964 44.024C90.8646 43.2276 91.0891 42.5015 92.493 43.0075V43.0075Z" fill="white"/>
<path d="M91.8154 45.8369C93.633 46.4881 94.3899 47.7994 93.5977 47.9842C92.81 48.169 91.5513 46.8005 91.2697 46.5321C90.702 45.9865 90.8516 45.4937 91.8154 45.8369V45.8369Z" fill="white"/>
<path d="M74.9117 46.5673C74.6697 45.9821 70.9862 45.9821 70.6077 46.7213C70.3128 47.2977 71.8311 49.3218 72.7553 49.3218C73.4683 49.3218 75.2242 47.3373 74.9074 46.5673H74.9117Z" fill="#A62E3A"/>
<g style="mix-blend-mode:multiply" opacity="0.28">
<path d="M72.7643 49.3218C72.0293 49.3218 70.9291 48.059 70.6431 47.2405C71.1096 47.8742 71.7829 48.4682 72.2846 48.4638C72.8567 48.4638 74.0978 47.1877 74.4058 46.2857C74.6787 46.3561 74.8635 46.4485 74.9119 46.5673C75.2288 47.3374 73.4728 49.3174 72.7599 49.3218H72.7643Z" fill="#A62E3A"/>
</g>
<g style="mix-blend-mode:multiply" opacity="0.5">
<path d="M85.4917 57.5106C85.4917 57.5106 85.5225 57.515 85.5401 57.5194C85.8614 57.5854 86.2355 57.6514 86.6447 57.7174H86.6535C86.9088 57.757 87.1816 57.801 87.4633 57.845C87.9518 57.9198 88.4711 57.999 89.0036 58.0826C89.3777 58.1442 89.765 58.2102 90.1478 58.2762H90.1566C91.3185 58.4786 92.4627 58.7118 93.3957 59.0022H93.4001C93.8138 59.1299 94.1879 59.2663 94.5003 59.4159C95.4069 59.8515 96.3311 60.4015 97.3389 60.3399C97.8758 60.3091 98.4039 60.0979 98.9364 60.1727C99.6494 60.2695 100.23 60.8547 100.948 60.9295C101.515 60.9823 102.074 60.7051 102.642 60.7491C103.038 60.7799 103.403 60.9647 103.791 61.0395C104.504 61.1759 105.415 61.0087 105.797 61.6204C105.947 61.8536 105.969 62.1484 106.11 62.386C106.229 62.5928 106.431 62.738 106.638 62.848C107.681 63.4069 108.948 63.2572 110.119 63.0944C110.44 63.0504 110.819 62.9624 110.946 62.6588C111.061 62.3816 110.863 62.0428 110.586 61.9196C110.308 61.8008 109.983 61.8536 109.701 61.968M114.599 50.9895C114.062 50.9015 113.433 50.5231 113.539 49.9906C113.6 49.687 113.904 49.4758 114.212 49.4318C114.52 49.3922 114.828 49.4802 115.123 49.5814C115.845 49.8278 116.659 50.3559 116.58 51.1171C116.54 51.5307 116.223 51.8739 115.853 52.0631C115.484 52.2523 115.061 52.3139 114.652 52.3711C113.609 52.5208 112.412 52.622 111.646 51.9003C111.422 51.6891 111.241 51.4075 110.951 51.2931C110.357 51.0599 109.78 51.6495 109.397 52.1599C109.014 52.6748 108.398 53.2424 107.822 52.9564C107.43 52.7628 107.311 52.2699 107.043 51.9267C106.647 51.4075 105.846 51.2447 105.278 51.5703C105.054 51.6979 104.869 51.8827 104.64 52.0059C104.416 52.1247 104.107 52.1555 103.918 51.9795C103.826 51.8959 103.777 51.7683 103.703 51.6627C103.483 51.3503 103.064 51.2359 102.682 51.2667C102.673 51.2667 102.66 51.2667 102.651 51.2711C102.285 51.3063 101.938 51.4559 101.586 51.5835C100.829 51.8519 100.045 52.0103 99.2489 52.1203C98.6151 52.2039 97.9726 52.2567 97.3301 52.3051C96.8284 52.3492 96.3267 52.3844 95.8338 52.4372C92.1414 52.8112 89.7562 54.2412 86.121 53.5152L114.599 50.9895ZM113.728 57.867C114.177 57.8714 114.652 57.8494 115.026 57.5986C115.4 57.3522 115.611 56.7977 115.343 56.4369C115.198 56.2345 114.947 56.1377 114.709 56.0717C113.459 55.7109 112.073 55.8385 110.907 56.4105C110.458 56.6305 110.018 56.921 109.516 56.9298C108.834 56.9386 108.24 56.4105 107.558 56.3797C106.933 56.3489 106.374 56.7361 105.784 56.943C104.763 57.3038 103.566 57.1146 102.708 56.4501C102.426 56.2301 102.123 55.9485 101.771 56.0145C101.643 56.0365 101.533 56.1069 101.423 56.1773C100.833 56.5821 100.305 57.1674 99.5965 57.2554C99.0816 57.3214 98.5799 57.1146 98.1002 56.9298C97.8802 56.8462 97.647 56.7626 97.3917 56.6877H97.3873C96.934 56.5469 96.4323 56.4193 95.891 56.3049C95.4465 56.2081 94.9756 56.1201 94.4871 56.0409C91.5957 55.5569 88.163 55.3545 86.121 55.4557L113.728 57.867Z" stroke="#1D111E" stroke-width="0.68" stroke-linecap="round" stroke-linejoin="round"/>
</g>
<g style="mix-blend-mode:screen" opacity="0.65">
<path d="M73.1118 46.4441C72.4825 46.2593 71.5099 46.3913 70.9686 46.7697C70.8586 46.8489 70.8938 47.0689 71.0434 47.0733C71.3735 47.0821 71.6815 46.9545 72.0028 46.8929C72.3549 46.8269 72.7069 46.8137 73.059 46.7917C73.2306 46.7785 73.2879 46.4969 73.1118 46.4441V46.4441Z" fill="#A62E3A"/>
</g>
<path style="mix-blend-mode:color-dodge" d="M57.2685 59.1255C61.364 59.1255 64.684 56.8481 64.684 54.0388C64.684 51.2296 61.364 48.9522 57.2685 48.9522C53.1731 48.9522 49.853 51.2296 49.853 54.0388C49.853 56.8481 53.1731 59.1255 57.2685 59.1255Z" fill="url(#paint0_radial_99_3088)"/>
<path style="mix-blend-mode:color-dodge" d="M90.0288 58.2806C94.1242 58.2806 97.4443 56.0033 97.4443 53.194C97.4443 50.3847 94.1242 48.1074 90.0288 48.1074C85.9333 48.1074 82.6133 50.3847 82.6133 53.194C82.6133 56.0033 85.9333 58.2806 90.0288 58.2806Z" fill="url(#paint1_radial_99_3088)"/>
<g style="mix-blend-mode:screen" opacity="0.43">
<path d="M67.1048 40.583C65.3752 40.6006 63.6149 40.033 61.9249 39.6722C60.2966 39.3246 58.6595 38.9022 57.0092 38.6953C56.7803 38.6645 56.7495 39.0254 56.9563 39.087C58.6903 39.6194 60.5211 39.9186 62.2946 40.297C63.144 40.4774 63.9934 40.6622 64.8427 40.8426C65.5865 41.001 66.4138 41.2651 67.1664 41.0406C67.4172 40.9658 67.3732 40.5786 67.1048 40.583Z" fill="#3D243E"/>
</g>
<g style="mix-blend-mode:screen" opacity="0.43">
<path d="M98.0605 37.8593C94.8786 37.9517 91.6792 38.6118 88.5369 39.0606C86.9262 39.2894 85.3155 39.5226 83.7004 39.7514C82.8334 39.8746 78.5601 40.8779 78.5953 39.3158C78.5997 39.0518 78.1597 38.977 78.12 39.2498C77.8912 40.7899 79.9024 40.7195 80.897 40.6403C82.7542 40.4995 84.6114 40.1518 86.4553 39.8878C90.3105 39.3378 94.1745 38.647 98.0605 38.3742C98.3905 38.3522 98.3993 37.8417 98.0605 37.8549V37.8593Z" fill="#3D243E"/>
</g>
<path d="M68.064 22.0494C69.459 20.0561 72.9577 17.1828 73.9127 17.9308C74.1724 18.1728 72.9489 19.2861 72.7817 20.0913C74.0844 19.1585 77.0726 17.0244 77.0418 17.9132C77.0682 18.3621 76.4344 19.2157 76.1264 19.8625C76.8261 19.2113 80.0872 17.3016 80.2192 18.2389C80.3424 19.1761 80.272 20.1397 80.0168 21.055C77.6359 21.3498 75.2506 21.649 72.8697 21.9438L68.064 22.045V22.0494Z" fill="#61376B"/>
<g style="mix-blend-mode:multiply" opacity="0.5">
<path d="M104.917 42.9459C105.027 46.0965 104.165 48.8774 102.651 51.2711C101.696 52.7892 100.477 54.1532 99.086 55.3589C98.8131 55.5921 98.5403 55.8209 98.2542 56.0409C97.9725 56.2609 97.6821 56.4766 97.3872 56.6834C97.1672 56.8418 96.9427 56.9958 96.7183 57.1498C96.4895 57.2994 96.2606 57.449 96.0274 57.5898C95.3056 58.0342 94.5619 58.4478 93.7961 58.8263C93.7565 58.8483 93.7125 58.8659 93.6685 58.8879C93.5849 58.9275 93.4968 58.9627 93.4 59.0023H93.3956C93.334 59.0243 93.2724 59.0507 93.2064 59.0727C93.1492 59.0947 93.092 59.1123 93.0304 59.1343C92.8499 59.1959 92.6519 59.2575 92.4362 59.3191C92.2954 59.3587 92.1458 59.3983 91.9873 59.4379C91.8729 59.4687 91.7497 59.4995 91.6265 59.5303C91.5517 59.5479 91.468 59.5655 91.3888 59.5875C91.3888 59.5875 91.3844 59.5875 91.38 59.5875C91.1644 59.6359 90.9355 59.6887 90.6979 59.7371C90.4206 59.7943 90.1258 59.8515 89.8177 59.9087C89.3072 60.0055 88.7659 60.0979 88.1938 60.1903C87.9649 60.2255 87.7317 60.2607 87.494 60.2959C87.4764 60.3003 87.4588 60.3003 87.4412 60.3047C87.4236 60.3091 87.406 60.3091 87.3884 60.3091C87.3884 60.3091 87.384 60.3135 87.3796 60.3135C87.1816 60.3443 86.9747 60.3707 86.7679 60.4015C86.5214 60.4367 86.2706 60.4675 86.0198 60.5027L85.9273 60.5159H85.8965C85.5268 60.5643 85.1528 60.6127 84.7699 60.6567C84.5498 60.6831 84.3298 60.7095 84.1054 60.7359C83.8941 60.7579 83.6785 60.7799 83.4628 60.8019L82.9611 60.8548C82.6355 60.8856 82.3054 60.9208 81.9753 60.9516C81.6893 60.978 81.4076 61 81.1172 61.0264C80.9763 61.0396 80.8311 61.0528 80.6859 61.0616C80.2546 61.0968 79.8189 61.132 79.3788 61.1628C79.0839 61.1848 78.7891 61.2068 78.4942 61.2244C78.0938 61.2508 77.6933 61.2772 77.2884 61.2992C77.108 61.308 76.9231 61.3168 76.7427 61.33C76.5843 61.3344 76.4258 61.3432 76.263 61.352C75.9989 61.3652 75.7349 61.374 75.4664 61.3872C75.2508 61.396 75.0395 61.4048 74.8195 61.4136C74.5554 61.4224 74.2914 61.4312 74.0273 61.4356C73.8425 61.4444 73.6577 61.4488 73.4684 61.4532L72.7819 61.4664C68.8431 61.5368 65.0891 61.3916 62.233 60.9252C61.9513 60.8812 61.674 60.8371 61.3924 60.7975C61.0403 60.7491 60.6883 60.7051 60.3362 60.6611C60.323 60.6611 60.3098 60.6611 60.301 60.6567C60.0193 60.6259 59.7377 60.5907 59.456 60.5555H59.4516C59.2096 60.5247 58.9675 60.4983 58.7255 60.4675C58.4922 60.4411 58.259 60.4103 58.0213 60.3795C57.8101 60.3487 57.6032 60.3223 57.3964 60.2915L57.3172 60.2783C57.0839 60.2431 56.8507 60.2079 56.6174 60.1639C56.3842 60.1287 56.1509 60.0847 55.9177 60.0363C55.6932 59.9879 55.4732 59.9395 55.2488 59.8867C55.2356 59.8823 55.218 59.8823 55.2047 59.8779C55.0111 59.8295 54.8175 59.7811 54.6238 59.7239C54.5974 59.7195 54.5666 59.7107 54.5402 59.7019C53.0835 59.2839 51.7457 58.6635 50.5266 57.8714C50.3242 57.7394 50.1217 57.603 49.9281 57.4622C49.73 57.3214 49.5364 57.1762 49.3472 57.0222C49.3516 57.0266 49.3604 57.0266 49.3648 57.031C50.0953 57.4314 51.354 57.8362 53.0087 58.2058H53.0175C54.0957 58.4522 55.3456 58.6811 56.7275 58.8879C57.1851 58.9583 57.6516 59.0243 58.1357 59.0903H58.1401C58.8619 59.1871 59.61 59.2751 60.3846 59.3587C60.4418 59.3631 60.4946 59.3675 60.5474 59.3719C61.1591 59.4379 61.7885 59.4995 62.4266 59.5523C69.6088 60.1683 78.3886 60.1727 85.6765 58.8263L86.0198 58.7603C86.6755 58.637 87.3136 58.5006 87.9385 58.351C88.1674 58.2982 88.3918 58.2454 88.6163 58.1838C88.7439 58.153 88.8759 58.1178 89.0035 58.0826C91.0412 57.5458 92.8983 56.8726 94.487 56.0409C95.5565 55.4865 96.5071 54.8617 97.308 54.1576H97.3124C98.0474 53.5108 98.6899 52.8288 99.2488 52.1204C104.393 45.5949 102.409 36.7241 100.653 31.7914C100.569 31.5582 100.485 31.3382 100.406 31.127C99.7505 29.3889 99.1784 28.2625 99.0992 28.1085C99.2444 28.2889 99.3852 28.4693 99.5261 28.6629C99.6009 28.7641 99.6713 28.8609 99.7461 28.9665L99.7593 28.9797C99.7813 29.0105 99.8077 29.0457 99.8297 29.0765C99.9177 29.1997 99.997 29.3273 100.085 29.4549C100.169 29.5737 100.252 29.7013 100.331 29.8289C100.38 29.8993 100.428 29.9741 100.472 30.0489C100.512 30.1106 100.551 30.1722 100.595 30.2382C100.639 30.313 100.683 30.3878 100.728 30.467C100.833 30.643 100.939 30.8146 101.04 30.995C101.115 31.1314 101.185 31.259 101.256 31.3866C101.66 32.117 102.026 32.8299 102.36 33.5251C102.62 34.0707 102.858 34.6076 103.073 35.1312C103.183 35.3952 103.284 35.6548 103.386 35.9144C103.487 36.1696 103.579 36.4292 103.667 36.68C103.755 36.9353 103.839 37.1905 103.914 37.4369C104.015 37.7449 104.103 38.0529 104.187 38.3565C104.27 38.6601 104.349 38.9594 104.415 39.2586C104.552 39.8482 104.657 40.429 104.741 40.9922C104.759 41.1155 104.776 41.2343 104.79 41.3619C104.807 41.4851 104.82 41.6127 104.829 41.7359C104.834 41.7667 104.838 41.8019 104.842 41.8371C104.847 41.8723 104.851 41.9075 104.851 41.9427C104.856 41.9955 104.86 42.0439 104.864 42.0923C104.869 42.1451 104.873 42.1979 104.878 42.2463C104.895 42.4839 104.908 42.7171 104.917 42.9459V42.9459Z" fill="#61376B"/>
</g>
<g style="mix-blend-mode:multiply" opacity="0.5">
<path d="M40.0436 61.968C39.7619 61.8536 39.4363 61.8008 39.159 61.9196C38.8773 62.0428 38.6837 62.3816 38.7981 62.6588C38.9213 62.9624 39.2998 63.0504 39.6255 63.0944C40.7961 63.2572 42.0636 63.4069 43.1022 62.848C43.3134 62.738 43.5159 62.5928 43.6347 62.386C43.7755 62.1484 43.7975 61.8536 43.9428 61.6204C44.33 61.0087 45.241 61.1759 45.9496 61.0395C46.3412 60.9647 46.7065 60.7799 47.1026 60.7491C47.6703 60.7051 48.2292 60.9823 48.7969 60.9295C49.5143 60.8547 50.0952 60.2695 50.8081 60.1727C51.3406 60.0979 51.8688 60.3091 52.4057 60.3399C53.1802 60.3883 53.9108 60.0715 54.6237 59.7239C54.8306 59.6183 55.0374 59.5171 55.2442 59.4159C55.5039 59.2927 55.8031 59.1739 56.1332 59.0683H56.1376C56.3269 59.0067 56.5205 58.945 56.7273 58.8878C57.9024 58.5622 59.3459 58.307 60.7145 58.087C61.0182 58.0386 61.3175 57.9946 61.6079 57.9462C61.7928 57.9198 61.9688 57.8934 62.1448 57.8626H62.1492C62.9546 57.7438 63.6807 57.625 64.2528 57.5106M63.6235 53.5152C59.984 54.2412 57.5987 52.8112 53.9108 52.4372C52.7445 52.3183 51.5651 52.2699 50.4077 52.1071C49.6419 51.9971 48.8894 51.8431 48.1588 51.5835C47.7979 51.4515 47.4415 51.2975 47.0586 51.2667C46.6801 51.2359 46.2576 51.3503 46.042 51.6627C45.9672 51.7683 45.9188 51.8959 45.8263 51.9795C45.6987 52.0983 45.5227 52.1203 45.3466 52.0895C45.2586 52.0763 45.175 52.0455 45.1002 52.0059C44.8757 51.8827 44.6865 51.6979 44.4665 51.5703C43.8943 51.2447 43.0978 51.4075 42.6973 51.9267C42.4333 52.2699 42.31 52.7628 41.9183 52.9564C41.3462 53.2424 40.7301 52.6748 40.3472 52.1599C39.9644 51.6495 39.3878 51.0599 38.7893 51.2931C38.5033 51.4075 38.3228 51.6891 38.094 51.9003C37.3326 52.622 36.1312 52.5208 35.0926 52.3711C34.6789 52.3139 34.2608 52.2523 33.8911 52.0631C33.5215 51.8739 33.2046 51.5307 33.1606 51.1171C33.0858 50.3559 33.8955 49.8278 34.6217 49.5814C34.9121 49.4802 35.2246 49.3922 35.5327 49.4318C35.8363 49.4758 36.14 49.687 36.2016 49.9906C36.3116 50.5231 35.6823 50.9015 35.1454 50.9895L63.6235 53.5152ZM63.6235 55.4557C60.5869 55.3061 54.4785 55.8297 51.6443 56.9298C51.5299 56.9738 51.4243 57.0178 51.3098 57.0618H51.3054C50.927 57.1938 50.5397 57.3082 50.148 57.2554C49.5495 57.1806 49.0786 56.7493 48.5857 56.3709C48.4977 56.3049 48.4097 56.2389 48.3172 56.1773C48.2116 56.1069 48.0972 56.0365 47.9696 56.0145C47.6219 55.9485 47.3138 56.2301 47.0322 56.4501C46.1784 57.1146 44.9814 57.3038 43.9604 56.943C43.3706 56.7361 42.8117 56.3489 42.1868 56.3797C41.5047 56.4105 40.9105 56.9386 40.224 56.9298C39.7267 56.921 39.2822 56.6305 38.8377 56.4105C37.6671 55.8385 36.2852 55.7109 35.0354 56.0717C34.7933 56.1377 34.5469 56.2345 34.4016 56.4369C34.1332 56.7977 34.34 57.3522 34.7141 57.5986C35.0926 57.8494 35.5679 57.8714 36.0168 57.867L63.6235 55.4557Z" stroke="#1D111E" stroke-width="0.68" stroke-linecap="round" stroke-linejoin="round"/>
</g>
<g style="mix-blend-mode:multiply" opacity="0.5">
<path d="M87.3885 60.3091C86.9704 59.7767 86.5128 59.2619 86.0199 58.7602C85.8922 58.6282 85.7602 58.5006 85.6282 58.373C85.1045 57.867 84.5456 57.3786 83.9602 56.9342C81.8874 55.3105 79.4669 54.0608 76.9056 53.524C76.8396 53.8056 76.7428 54.0256 76.6064 54.0696C76.3159 54.1576 75.8846 53.722 75.5457 53.3084C73.9526 53.1368 72.3243 53.2556 70.7048 53.744C70.4935 54.074 70.2559 54.3424 70.0358 54.3204C69.9346 54.3116 69.8422 54.2104 69.7542 54.0696C69.3185 54.2368 68.8872 54.4437 68.4559 54.6637C67.5317 55.1345 66.6251 55.7109 65.7362 56.4061C65.5601 56.5425 65.3885 56.6834 65.2169 56.8286C63.7998 58.0254 62.5279 59.3807 61.3001 60.7711C60.0898 62.1396 58.8576 63.5037 57.7706 64.9733C57.7618 64.9865 57.7354 65.0129 57.731 65.0305C57.9158 64.2385 58.9104 61.3916 59.0336 60.7227C59.0204 60.7227 59.4649 60.5599 59.4561 60.5555C59.1745 60.5247 59.7378 60.5907 59.4561 60.5555C59.7554 60.1507 60.0634 59.7547 60.3847 59.3587C60.4507 59.2795 60.5167 59.1959 60.5827 59.1167C60.8072 58.8483 61.0316 58.5842 61.2693 58.3202C61.3837 58.1926 61.4937 58.0694 61.6081 57.9462C61.9338 57.5986 62.2639 57.2554 62.6071 56.9254C63.1969 56.3445 63.813 55.7945 64.4643 55.2753C64.5435 55.2093 64.6227 55.1433 64.702 55.0817C66.0794 54.0036 67.5141 53.1632 68.9752 52.5692C68.4075 52.0719 68.4383 51.6803 68.4383 51.6803L77.7198 51.2315C77.7374 51.4867 77.6714 51.7287 77.5569 51.9575C79.3701 52.38 81.1129 53.1148 82.7192 54.0696C84.4927 55.1081 86.0991 56.4149 87.4589 57.845C87.5117 57.8934 87.5602 57.9462 87.6086 57.999C87.7186 58.1134 87.8286 58.2322 87.9342 58.351C88.3391 58.8043 88.722 59.2663 89.0741 59.7371C89.8266 59.4775 90.6232 59.4335 91.3757 59.5875C91.1601 59.6359 90.9312 59.6887 90.6936 59.7371C90.4163 59.7943 90.1215 59.8515 89.8134 59.9087C89.4217 59.9879 89.0125 60.0583 88.5812 60.1287C88.4535 60.1507 88.3215 60.1683 88.1895 60.1903C87.9606 60.2255 87.7274 60.2607 87.4897 60.2959C87.4721 60.3003 87.4545 60.3003 87.4369 60.3047C87.4237 60.3047 87.4061 60.3091 87.3841 60.3091H87.3885Z" fill="#61376B"/>
</g>
<path d="M124.752 141H22.2816C18.9546 141 16.2612 138.307 16.2612 134.981H130.772C130.772 138.307 128.079 141 124.752 141V141Z" fill="#5E2600"/>
<path d="M127.445 75.6922V128.662C127.445 133.414 123.59 137.269 118.837 137.269H28.1916C23.4387 137.269 19.5879 133.418 19.5879 128.666V75.6922C19.5879 70.94 23.4387 67.0898 28.1916 67.0898H118.841C123.594 67.0898 127.445 70.94 127.445 75.6922V75.6922Z" fill="#5E2600"/>
<path d="M117.974 69.3779H29.0589C25.7704 69.3779 23.1045 72.0434 23.1045 75.3314V129.027C23.1045 132.315 25.7704 134.981 29.0589 134.981H117.974C121.263 134.981 123.929 132.315 123.929 129.027V75.3314C123.929 72.0434 121.263 69.3779 117.974 69.3779Z" fill="#FFC33B"/>
<g style="mix-blend-mode:multiply">
<path d="M123.929 73.5405V129.027C123.929 130.981 122.987 132.71 121.539 133.801C122.278 132.807 122.714 131.575 122.714 130.241V74.755C122.714 72.4581 120.852 70.5924 118.551 70.5924H27.844C26.5105 70.5924 25.2783 71.0324 24.2837 71.7716C25.3751 70.3196 27.1047 69.3779 29.0587 69.3779H119.765C122.063 69.3779 123.929 71.2392 123.929 73.5405V73.5405Z" fill="#FFD47D"/>
</g>
<g style="mix-blend-mode:multiply" opacity="0.78">
<g style="mix-blend-mode:multiply" opacity="0.78">
<path d="M128.567 134.981C119.444 135.236 110.321 135.407 101.198 135.495C96.6388 135.557 92.0751 135.566 87.5158 135.605L73.8334 135.636L60.1467 135.601C55.5874 135.566 51.0236 135.553 46.4643 135.491C37.3413 135.403 28.2183 135.236 19.0952 134.981H128.567Z" fill="#E17022"/>
</g>
</g>
<g style="mix-blend-mode:multiply" opacity="0.5">
<path d="M55.4684 67.0898H57.3652C56.9163 67.9259 56.507 68.7487 56.1241 69.5452C55.9921 69.8224 55.8601 70.0996 55.7325 70.3724C55.2352 71.4372 54.7467 72.4933 54.2714 73.5493C53.0479 76.2599 51.9125 78.9704 50.9795 81.7293C50.7067 82.5433 50.4426 83.3618 50.205 84.189C50.183 84.3122 50.1741 84.4266 50.1697 84.5322C50.1697 84.563 50.1697 84.5894 50.1697 84.6158V84.8138C50.1697 84.8403 50.1697 84.8666 50.1697 84.8931C50.1741 84.9459 50.1829 84.9943 50.1874 85.0383C50.1918 85.0559 50.1962 85.0779 50.2006 85.0955C50.2094 85.1395 50.2182 85.1791 50.2314 85.2143C50.2314 85.2275 50.2358 85.2363 50.2402 85.2495C50.2886 85.3771 50.3414 85.4431 50.3678 85.4695H50.3634C50.3634 85.4695 50.3414 85.4519 50.3282 85.4431C50.2094 85.3595 49.9409 85.1659 49.8573 85.0823C49.8485 85.0735 49.8397 85.0735 49.8265 85.0691L50.1521 85.9535C49.8265 85.8391 49.7253 85.4959 49.6945 85.2011C49.6724 85.2715 49.6504 85.3595 49.6284 85.4827C49.558 85.2187 49.4832 85.0779 49.4216 85.0075L49.514 86.0899C49.1839 85.8391 49.2236 85.3023 49.294 84.9459C49.2412 84.9547 49.206 84.9987 49.206 84.9987C49.206 84.9987 48.9419 85.1923 48.8451 85.1835L48.537 85.9535C48.5194 85.6499 48.6558 85.3111 48.7967 85.0427C48.7703 84.8843 48.691 84.6466 48.5678 84.5938C48.3654 84.9239 48.0221 85.3463 47.5864 85.3639L48.295 84.6686C47.9385 84.827 47.8021 84.7258 47.8021 84.7258C48.1805 84.5806 48.537 83.8854 48.537 83.8854H48.5414C49.9233 79.01 52.0093 74.3722 54.2098 69.664C54.597 68.8367 55.0107 67.9743 55.4684 67.0898V67.0898Z" fill="#61376B"/>
</g>
<g style="mix-blend-mode:multiply" opacity="0.5">
<path d="M96.4802 69.1931L96.3658 69.2679C96.1193 69.4219 95.7893 69.3471 95.6352 69.0963L94.7902 67.7455L92.735 69.0303L93.5756 70.3812C93.734 70.632 93.6592 70.9576 93.4084 71.1116L93.2939 71.1864C93.0431 71.3404 92.7174 71.2656 92.5634 71.0148L91.7184 69.664L90.4246 70.4692C89.9889 70.742 89.4168 70.61 89.1439 70.1744L87.2823 67.1998L87.2119 67.0898H95.8421L95.8069 67.1118L96.6518 68.4627C96.8059 68.7135 96.731 69.0391 96.4802 69.1931V69.1931Z" fill="#61376B"/>
</g>
<path d="M63.441 114.625H84.4288C86.575 114.625 87.9129 112.298 86.8398 110.445L76.3459 92.3169C75.2728 90.4637 72.597 90.4637 71.524 92.3169L61.03 110.445C59.957 112.298 61.2948 114.625 63.441 114.625V114.625ZM73.9349 104.871C73.1684 104.871 72.5413 104.244 72.5413 103.478V100.691C72.5413 99.9249 73.1684 99.2978 73.9349 99.2978C74.7014 99.2978 75.3285 99.9249 75.3285 100.691V103.478C75.3285 104.244 74.7014 104.871 73.9349 104.871ZM75.3285 110.445H72.5413V107.658H75.3285V110.445Z" fill="white"/>
<path d="M49.0917 83.2958C49.0917 83.2958 48.502 84.0658 48.5372 84.6818" stroke="#268E26" stroke-width="0.63" stroke-linecap="round" stroke-linejoin="round"/>
<path d="M49.3863 83.3265C49.3863 83.3265 48.999 84.4178 49.5139 84.8182" stroke="white" stroke-width="0.63" stroke-linecap="round" stroke-linejoin="round"/>
<path d="M49.7035 83.4542C49.7035 83.4542 49.5451 84.4618 50.1568 84.6818" stroke="#0032D0" stroke-width="0.63" stroke-linecap="round" stroke-linejoin="round"/>
<path d="M48.7703 82.9261C48.7703 82.9261 48.3082 84.0614 47.582 84.0922" stroke="#D30000" stroke-width="0.63" stroke-linecap="round" stroke-linejoin="round"/>
<path d="M89.0913 58.483C84.8797 52.8772 76.8393 48.2174 69.1509 51.2227C67.6326 51.8167 66.1363 52.688 64.7016 53.8056C59.5702 57.8186 56.4016 63.7061 54.2099 68.3879C52.0095 73.0961 49.9235 77.7339 48.5416 82.6093H48.5372C48.5372 82.6093 48.1807 83.3046 47.8022 83.4542C47.8022 83.4542 47.9695 83.5818 48.4316 83.3265C48.6824 83.1813 48.81 83.727 48.81 83.8722C48.81 84.0174 49.2061 83.727 49.2061 83.727C49.2061 83.727 49.4174 83.4322 49.6286 84.211C49.6902 83.8546 49.7562 83.705 49.8619 83.8106C49.9675 83.9162 50.3856 84.211 50.3856 84.211C50.3856 84.211 50.0511 83.991 50.2051 82.9173C51.5562 78.2179 53.585 73.6989 55.7326 69.1051C57.8407 64.5949 60.8861 58.9274 65.7358 55.1345C67.0385 54.1136 68.394 53.326 69.7627 52.7892C76.6368 50.1006 83.9027 54.3776 87.7491 59.4951C88.2024 60.0979 88.6425 60.7447 89.0649 61.418L90.4908 60.5291C90.0463 59.8163 89.5754 59.1299 89.0957 58.4874L89.0913 58.483Z" fill="#2B232D"/>
<g style="mix-blend-mode:multiply" opacity="0.5">
<path d="M90.4906 60.5247L89.0647 61.4136C88.6422 60.7403 88.2021 60.0935 87.7488 59.4907C83.9025 54.3777 76.6366 50.0963 69.7624 52.7892C68.3937 53.3216 67.0427 54.1092 65.7312 55.1301C60.8814 58.9231 57.8404 64.5905 55.728 69.1007C53.5804 73.6901 51.5516 78.2091 50.2005 82.9086C50.0685 83.8282 50.2929 84.123 50.3633 84.1934C50.3061 84.1538 50.1433 84.035 50.0112 83.9338C50.0024 83.8106 49.998 83.6874 49.998 83.5642C50.0112 82.8734 50.1785 82.2089 50.3677 81.5489C50.5394 80.9637 50.7242 80.3916 50.9178 79.8152C51.3051 78.658 51.732 77.5139 52.1765 76.3831C52.6298 75.239 53.1051 74.1038 53.6024 72.9773C54.0997 71.8377 54.619 70.7024 55.1383 69.5759C55.3319 69.1535 55.53 68.7355 55.7236 68.3131C57.836 63.8029 60.877 58.1354 65.7268 54.3425C67.0339 53.3216 68.3849 52.534 69.758 51.9971C76.6322 49.3086 83.8981 53.59 87.7444 58.7031C88.1977 59.3059 88.6378 59.9527 89.0603 60.6215L90.1297 59.9571C90.2529 60.1419 90.3718 60.3311 90.4862 60.5203L90.4906 60.5247Z" fill="#140716"/>
</g>
<path d="M77.0502 50.8575C77.0502 50.8575 77.0326 52.666 76.6058 52.798C76.0777 52.9608 75.0522 51.3547 75.0522 51.3547L77.0502 50.8575Z" fill="white"/>
<path d="M69.2212 51.2315C69.2212 51.2315 69.5953 53.0048 70.0354 53.0444C70.5855 53.0972 71.2764 51.3239 71.2764 51.3239L69.2212 51.2315V51.2315Z" fill="white"/>
<path d="M68.1343 50.193C68.1343 50.193 69.6702 53.568 72.9356 50.9499C74.674 52.9344 77.847 51.6319 77.7282 49.9598" fill="#61376B"/>
<path d="M91.1924 67.0514L91.7672 66.6924C91.8866 66.6178 92.048 66.6519 92.125 66.7751L93.5775 69.1001C93.7337 69.3502 93.658 69.6776 93.408 69.8338L93.296 69.9037C93.0459 70.0599 92.7184 69.9842 92.5622 69.7342L91.1097 67.4092C91.0351 67.2897 91.0692 67.1284 91.1924 67.0514V67.0514Z" fill="white"/>
<g style="mix-blend-mode:multiply" opacity="0.5">
<path d="M88.9282 67.0898H87.1943L86.2305 65.5453C84.9806 63.5388 85.5131 60.9251 87.4055 59.5654C87.4847 60.0891 87.5772 60.6479 87.6828 61.2419C87.9292 62.6544 88.2461 64.2472 88.6466 65.9545C88.6642 66.0073 88.6774 66.0689 88.6906 66.1261C88.7654 66.4429 88.8446 66.7642 88.9282 67.0898V67.0898Z" fill="#61376B"/>
</g>
<path d="M94.6076 64.916L94.4956 64.9859C94.2462 65.1417 94.1702 65.4701 94.326 65.7195L95.634 67.8132C95.7898 68.0625 96.1183 68.1384 96.3677 67.9827L96.4797 67.9127C96.7292 67.757 96.8051 67.4285 96.6493 67.1791L95.3413 65.0855C95.1855 64.8361 94.857 64.7602 94.6076 64.916Z" fill="white"/>
<path d="M96.5464 65.3737L90.2883 69.2811C89.9275 69.5055 89.4478 69.3955 89.2233 69.0347L86.728 65.0437C85.421 62.9536 86.0591 60.2035 88.1495 58.8966C90.2399 57.5898 92.9905 58.2278 94.2975 60.3179L96.7929 64.3089C97.0173 64.6697 96.9073 65.1493 96.5464 65.3737V65.3737Z" fill="#6BB1A2"/>
<g style="mix-blend-mode:multiply" opacity="0.3">
<path d="M88.7524 58.593C87.1021 59.9967 86.6972 62.4344 87.881 64.3309L90.7812 68.9731L90.2663 69.2943C89.9186 69.5099 89.4609 69.4043 89.2453 69.0567L86.75 65.0613C85.4473 62.9712 86.0811 60.1859 88.1715 58.8878C88.3607 58.769 88.5544 58.6678 88.7568 58.593H88.7524Z" fill="#583929"/>
</g>
</g>
</svg>
