<svg width="191" height="55" viewBox="0 0 191 55" fill="none" xmlns="http://www.w3.org/2000/svg">
<g clip-path="url(#clip0_30_4289)">
<path d="M0 52.8005V0.863083L8.93446 3.93894L10.8045 26.8318L12.2849 4.88893L21.2518 7.29381V47.074L15.3366 48.3296V22.022L12.8822 48.9208L8.49293 50.11L6.10348 21.7231V50.8208L0 52.8005Z" fill="#FF6C2C"/>
<path d="M23.2314 7.91875V46.4101C23.2314 46.4101 30.7894 44.9021 35.2956 44.4304V37.7207L30.205 38.2455V30.7518H34.5878V24.1749H30.192V17.0998L34.6917 17.5648V9.91838C34.6982 9.91838 30.9647 9.68587 23.2314 7.91875Z" fill="#FF6C2C"/>
<path d="M36.2173 10.0245V17.6842L40.2235 18.0961V43.8589C40.2235 43.8589 46.2945 42.8757 47.4113 42.8757V18.8069L51.4176 19.2122V11.9776C51.424 11.9776 41.8143 11.0542 36.2173 10.0245Z" fill="#FF6C2C"/>
<path d="M136.687 42.4705C136.687 42.4705 142.322 43.0684 143.102 43.1747L143.634 37.488L147.231 37.8268L147.751 43.6862L154.568 44.5299L149.796 9.63261C149.796 9.63261 142.595 10.576 141.375 10.649L136.687 42.4705ZM144.082 32.6517L145.173 20.6937L146.816 32.851L144.082 32.6517Z" fill="#FF6C2C"/>
<path d="M119.278 12.5562C119.278 12.5562 123.258 12.6558 126.07 12.3701V22.8201H128.433V12.1509C128.433 12.1509 133.439 11.7922 135.147 11.46V42.3248C135.147 42.3248 130.589 41.8465 128.446 41.6738V29.3039H126.037V41.6605H119.246L119.278 12.5562Z" fill="#FF6C2C"/>
<path d="M155.638 8.35752V8.35088C155.638 8.35088 155.326 8.41066 155.638 8.35752Z" fill="#7367F0"/>
<path d="M167.806 24.9718C167.806 24.9718 170.065 23.1117 170.065 20.4876V11.2666C170.065 11.2666 170.033 5.66632 162.014 7.17435C157.501 8.0247 156.053 8.28379 155.651 8.35686V44.7423C155.651 44.7423 159.67 45.3336 161.767 45.8451L161.741 27.4431C161.741 27.4431 164.962 27.091 164.962 32.5651V46.4762C164.962 46.4762 169.669 47.5059 171.228 47.9842V32.605C171.221 32.605 171.221 26.7655 167.806 24.9718ZM161.709 22.2281V12.675C161.709 12.675 164.436 11.2467 164.436 16.176C164.436 19.9627 164.267 22.2281 161.709 22.2281Z" fill="#FF6C2C"/>
<path d="M172.974 4.89606V48.6356C172.974 48.6356 177.98 50.0241 179.402 50.6087V29.2704L183.805 51.8776C183.805 51.8776 189.148 53.5185 191.005 54.608L184.701 23.2183L188.928 0.391891L183.889 2.22545L182.441 2.67719L179.402 20.3949V3.38803C179.409 3.38803 175.701 4.53068 172.974 4.89606Z" fill="#FF6C2C"/>
<path d="M91.8247 55C94.0064 42.876 85.4875 39.4148 80.9618 39.2022C86.5199 35.7344 90.8248 38.4183 91.7533 39.4214C92.6818 40.4179 93.37 40.1921 97.0711 38.1193C100.772 36.0466 103.155 30.8449 97.9412 26.0551C93.7726 22.2152 85.6888 22.089 82.1695 22.5009C79.2736 24.4275 79.9164 28.739 80.5982 30.6589C74.9882 30.8183 72.5598 24.6068 72.0468 21.4778C62.4371 19.2988 58.4049 13.5059 57.5933 10.8818C71.6183 4.54403 81.4553 4.48424 84.6239 5.24822C94.396 -2.57096 100.681 0.066433 102.603 2.35838C98.9476 1.85348 95.9413 6.48388 94.8959 8.86218C97.7788 9.387 105.415 15.2198 106.817 26.447C108.213 37.6742 98.0061 39.4015 95.9348 41.0823C93.8635 42.763 94.9868 43.1284 95.6881 46.5763C96.2465 49.3333 93.3441 53.3525 91.8247 55Z" fill="#18CBC7"/>
<path d="M56.2114 12.3371L53.4908 12.1644L50.1079 42.6306C50.7507 42.5509 56.7178 41.9928 56.7178 41.9928L57.1853 36.7712H60.1916L60.8864 41.7537C61.6656 41.6474 67.7236 41.4149 67.7236 41.4149L64.49 20.3024C59.8085 17.8112 57.2633 14.5493 56.2114 12.3371ZM57.6009 31.7953L58.6982 19.8374L59.7891 31.7953H57.6009Z" fill="#FF6C2C"/>
<path d="M117.232 31.7287C117.225 30.7854 117.037 29.8553 116.674 28.985C116.31 28.1147 115.777 27.3308 115.109 26.6798C114.758 26.3343 114.381 26.0221 113.979 25.7364C112.771 24.8861 108.778 22.4148 108.453 21.9232C107.603 20.6211 107.979 18.3092 107.979 18.3092C108.012 18.0302 108.142 17.7777 108.349 17.5917C108.557 17.4057 108.817 17.3061 109.09 17.3061C110.005 17.2729 110.232 18.1564 110.271 18.3491C110.271 18.369 110.271 18.3956 110.271 18.4155V21.5844H116.661C117.284 15.725 114.102 13.639 113.836 13.4397C113.57 13.2404 111.414 11.9981 107.116 12.4631C105.512 12.6358 104.402 13.2005 103.616 13.8715C105.804 16.9673 107.694 21.1193 108.33 26.3277C108.486 27.5235 108.512 28.7259 108.414 29.9284C109.194 30.4333 109.888 31.0046 110.265 31.6822C110.538 32.1605 110.59 32.6056 110.603 33.1637C110.654 36.0934 110.687 37.0234 109.512 37.0234C108.233 37.0234 108.31 35.4224 108.31 35.4224V31.2238H108.233C107.518 34.9374 105.324 37.2692 102.993 38.8636C103.324 39.5147 103.817 40.0594 104.434 40.4381C107.616 42.2849 111.778 41.7003 113.732 41.0426C116.992 39.9465 117.303 35.7147 117.232 31.7287Z" fill="#FF6C2C"/>
</g>
<defs>
<clipPath id="clip0_30_4289">
<rect width="191" height="55" fill="white"/>
</clipPath>
</defs>
</svg>
