<svg width="24" height="24" viewBox="0 0 24 24" fill="none" xmlns="http://www.w3.org/2000/svg">
<g clip-path="url(#clip0_11_1664)">
<path d="M20.5111 17.1322V14.6589C20.5111 14.1695 20.4146 13.6848 20.2271 13.2327C20.0397 12.7807 19.7649 12.3699 19.4186 12.0241C19.0722 11.6783 18.6611 11.4042 18.2087 11.2174C17.7564 11.0306 17.2716 10.9348 16.7822 10.9356H14.66C14.2369 10.9353 13.8312 10.7671 13.5321 10.4679C13.2329 10.1687 13.0647 9.76308 13.0644 9.34V6.86778C13.5947 6.62499 14.0259 6.20814 14.2866 5.68644C14.5473 5.16474 14.6216 4.56957 14.4974 3.99976C14.3732 3.42995 14.0578 2.91978 13.6036 2.55395C13.1494 2.18812 12.5837 1.98865 12.0005 1.98865C11.4173 1.98865 10.8517 2.18812 10.3975 2.55395C9.94328 2.91978 9.62788 3.42995 9.50363 3.99976C9.37938 4.56957 9.45377 5.16474 9.71444 5.68644C9.9751 6.20814 10.4064 6.62499 10.9366 6.86778V9.34C10.9365 9.54977 10.895 9.75746 10.8146 9.95119C10.7341 10.1449 10.6163 10.3209 10.4678 10.4691C10.3193 10.6173 10.1431 10.7347 9.94918 10.8148C9.75528 10.8948 9.54751 10.9358 9.33774 10.9356H7.21329C6.2258 10.9356 5.27876 11.3278 4.5805 12.0261C3.88224 12.7244 3.48996 13.6714 3.48996 14.6589V17.1311C2.9597 17.3739 2.52844 17.7908 2.26777 18.3125C2.0071 18.8342 1.93272 19.4293 2.05696 19.9991C2.18121 20.5689 2.49661 21.0791 2.9508 21.4449C3.405 21.8108 3.97065 22.0102 4.55385 22.0102C5.13705 22.0102 5.7027 21.8108 6.15689 21.4449C6.61109 21.0791 6.92649 20.5689 7.05074 19.9991C7.17498 19.4293 7.1006 18.8342 6.83993 18.3125C6.57926 17.7908 6.148 17.3739 5.61774 17.1311V14.6589C5.61803 14.2358 5.78623 13.8301 6.08539 13.531C6.38455 13.2318 6.79022 13.0636 7.21329 13.0633H9.33774C9.89079 13.0606 10.4361 12.9334 10.9333 12.6911V17.1356C10.403 17.3783 9.97177 17.7952 9.7111 18.3169C9.45043 18.8386 9.37605 19.4338 9.5003 20.0036C9.62454 20.5734 9.93995 21.0836 10.3941 21.4494C10.8483 21.8152 11.414 22.0147 11.9972 22.0147C12.5804 22.0147 13.146 21.8152 13.6002 21.4494C14.0544 21.0836 14.3698 20.5734 14.4941 20.0036C14.6183 19.4338 14.5439 18.8386 14.2833 18.3169C14.0226 17.7952 13.5913 17.3783 13.0611 17.1356V12.6911C13.5582 12.9334 14.1036 13.0606 14.6566 13.0633H16.7822C17.2053 13.0636 17.6109 13.2318 17.9101 13.531C18.2092 13.8301 18.3774 14.2358 18.3777 14.6589V17.1311C17.8475 17.3739 17.4162 17.7908 17.1555 18.3125C16.8949 18.8342 16.8205 19.4293 16.9447 19.9991C17.069 20.5689 17.3844 21.0791 17.8386 21.4449C18.2928 21.8108 18.8584 22.0102 19.4416 22.0102C20.0248 22.0102 20.5905 21.8108 21.0447 21.4449C21.4989 21.0791 21.8143 20.5689 21.9385 19.9991C22.0628 19.4293 21.9884 18.8342 21.7277 18.3125C21.467 17.7908 21.0358 17.3739 20.5055 17.1311L20.5111 17.1322ZM12.0044 3.08C12.2958 3.07978 12.5808 3.166 12.8232 3.32776C13.0657 3.48952 13.2547 3.71955 13.3664 3.98874C13.4781 4.25794 13.5074 4.55421 13.4507 4.84009C13.394 5.12596 13.2537 5.38858 13.0477 5.59475C12.8417 5.80091 12.5792 5.94134 12.2934 5.99828C12.0075 6.05522 11.7112 6.0261 11.442 5.91462C11.1727 5.80314 10.9425 5.6143 10.7806 5.37199C10.6186 5.12968 10.5322 4.84478 10.5322 4.55333C10.532 4.35991 10.57 4.16834 10.6439 3.9896C10.7179 3.81085 10.8263 3.64842 10.963 3.5116C11.0997 3.37477 11.2621 3.26623 11.4408 3.19217C11.6194 3.11812 11.811 3.08 12.0044 3.08ZM4.55329 20.9244C4.26204 20.9247 3.97725 20.8386 3.73492 20.677C3.49258 20.5154 3.30356 20.2857 3.19175 20.0167C3.07994 19.7478 3.05034 19.4517 3.10671 19.166C3.16307 18.8802 3.30286 18.6176 3.50843 18.4113C3.71399 18.2049 3.97609 18.0642 4.26163 18.0067C4.54716 17.9493 4.84332 17.9778 5.11267 18.0886C5.38203 18.1994 5.61251 18.3875 5.77498 18.6292C5.93745 18.871 6.02464 19.1554 6.02552 19.4467C6.0261 19.6404 5.98846 19.8324 5.91475 20.0116C5.84104 20.1908 5.73271 20.3537 5.59595 20.491C5.4592 20.6282 5.29672 20.7372 5.1178 20.8116C4.93889 20.8859 4.74706 20.9243 4.55329 20.9244ZM11.9977 20.9244C11.7063 20.9247 11.4213 20.8384 11.1789 20.6767C10.9365 20.5149 10.7474 20.2849 10.6358 20.0157C10.5241 19.7465 10.4947 19.4502 10.5515 19.1644C10.6082 18.8785 10.7484 18.6159 10.9544 18.4097C11.1604 18.2035 11.423 18.0631 11.7088 18.0062C11.9946 17.9492 12.2909 17.9783 12.5602 18.0898C12.8295 18.2013 13.0596 18.3901 13.2216 18.6325C13.3835 18.8748 13.47 19.1597 13.47 19.4511C13.47 19.8405 13.3158 20.2141 13.0412 20.4902C12.7666 20.7663 12.3938 20.9224 12.0044 20.9244H11.9977ZM19.4422 20.9244C19.1507 20.9247 18.8658 20.8384 18.6233 20.6767C18.3809 20.5149 18.1919 20.2849 18.0802 20.0157C17.9685 19.7465 17.9392 19.4502 17.9959 19.1644C18.0526 18.8785 18.1929 18.6159 18.3989 18.4097C18.6049 18.2035 18.8674 18.0631 19.1532 18.0062C19.4391 17.9492 19.7354 17.9783 20.0046 18.0898C20.2739 18.2013 20.5041 18.3901 20.666 18.6325C20.828 18.8748 20.9144 19.1597 20.9144 19.4511C20.9144 19.8405 20.7603 20.2141 20.4856 20.4902C20.211 20.7663 19.8383 20.9224 19.4488 20.9244H19.4422Z" fill="#5E5873"/>
</g>
<defs>
<clipPath id="clip0_11_1664">
<rect width="20" height="20" fill="white" transform="translate(2 2)"/>
</clipPath>
</defs>
</svg>
