<svg width="25" height="18" viewBox="0 0 25 18" fill="none" xmlns="http://www.w3.org/2000/svg">
    <defs>
        <linearGradient id="paint0_linear_1132_3782" x1="9.07502" y1="17.3376" x2="9.07502"
                y2="0.662407" gradientUnits="userSpaceOnUse">
            <stop offset="0.13" stop-color="white" />
            <stop offset="0.18" stop-color="white" />
            <stop offset="0.57" stop-color="white" />
            <stop offset="0.99" stop-color="white" />
            <stop offset="1" stop-color="white" />
        </linearGradient>
    </defs>
    <path d="M19.7961 0.662407H5.20398L1.16425 6.31621L12.4997 17.3376L23.8352 6.31621L19.7961 0.662407Z"
            fill="#33AAAF" />
    <path d="M19.7959 0.662405L23.8374 6.31621L12.4996 17.3376L1.16408 6.31621L5.20557 0.662405H19.7959ZM19.7959 4.6373e-08H5.20381C5.09791 -3.94696e-05 4.99353 0.0251762 4.89938 0.0735438C4.80524 0.121911 4.72405 0.192028 4.6626 0.278046L0.621115 5.93127C0.528962 6.06009 0.486097 6.21756 0.500279 6.37517C0.514461 6.53278 0.584752 6.68012 0.69843 6.79052L12.0386 17.8119C12.1628 17.9325 12.3292 18 12.5025 18C12.6758 18 12.8423 17.9325 12.9664 17.8119L24.299 6.79052C24.4126 6.68012 24.4829 6.53278 24.4971 6.37517C24.5113 6.21756 24.4684 6.06009 24.3763 5.93127L20.3348 0.278046C20.2736 0.19235 20.1928 0.12243 20.0991 0.0740779C20.0054 0.0257258 19.9014 0.000332197 19.7959 4.6373e-08Z"
            fill="#286B93" />
    <path d="M16.9857 6.31621H8.01422L12.4997 17.3376L16.9857 6.31621Z" fill="#42A9E3" />
    <path d="M1.16425 6.31621H8.01428L12.4997 17.3376L1.16425 6.31621Z" fill="#3587B5" />
    <path d="M16.9857 6.31621H23.8352L12.4997 17.3376L16.9857 6.31621Z" fill="#3D93C4" />
    <path d="M5.20398 0.662407L8.01428 6.31621H1.16425L5.20398 0.662407Z" fill="#46A4D9" />
    <path d="M23.8352 6.31621H16.9858L19.7961 0.662407L23.8352 6.31621Z" fill="#399ED8" />
    <path d="M12.4997 0.662407L8.01422 6.31621L5.20392 0.662407H12.4997Z" fill="#5CC4FF" />
    <path d="M16.9857 6.31621L12.4997 0.662407H19.796L16.9857 6.31621Z" fill="#61C6FF" />
    <path d="M8.01422 6.31621H16.9857L12.4997 0.662407L8.01422 6.31621Z" fill="#4EB5EF" />
    <path d="M16.9858 6.31621L9.3591 5.88921C9.31154 5.88646 9.26557 5.87113 9.22592 5.84479C9.18627 5.81846 9.15437 5.78206 9.13349 5.73936C9.11262 5.69665 9.10352 5.64917 9.10714 5.60179C9.11076 5.55442 9.12697 5.50886 9.15409 5.46981L12.4997 0.662407L8.73647 5.40555C8.62556 5.54555 8.48638 5.66075 8.32797 5.74366C8.16955 5.82658 7.99543 5.87537 7.81689 5.88688L1.16425 6.31563H7.59314C7.71762 6.31564 7.83928 6.35266 7.94256 6.42196C8.04585 6.49125 8.12608 6.58967 8.17301 6.70466L12.4997 17.3358L8.69254 6.67078C8.67819 6.63049 8.67375 6.58735 8.6796 6.54499C8.68545 6.50263 8.70142 6.46229 8.72616 6.42736C8.7509 6.39244 8.78369 6.36396 8.82178 6.34431C8.85986 6.32466 8.90211 6.31442 8.94499 6.31446L16.9858 6.31621Z"
            fill="url(#paint0_linear_1132_3782)" />

</svg>
