<svg width="24" height="24" viewBox="0 0 24 24" fill="none" xmlns="http://www.w3.org/2000/svg">
    <defs>
        <radialGradient id="paint0_radial_1_107" cx="0" cy="0" r="1" gradientUnits="userSpaceOnUse" gradientTransform="translate(4.93268 4.90991) scale(19.9663)">
            <stop stop-color="white" stop-opacity="0.1"/>
            <stop offset="1" stop-color="white" stop-opacity="0"/>
        </radialGradient>
        <clipPath id="clip0_1_107">
            <rect width="20" height="20" fill="white" transform="translate(2 2)"/>
        </clipPath>
    </defs>

    <g clip-path="url(#clip0_1_107)">
        <path d="M12.0004 22.0008C17.5235 22.0008 22.0008 17.5235 22.0008 12.0004C22.0008 6.47733 17.5235 2 12.0004 2C6.47733 2 2 6.47733 2 12.0004C2 17.5235 6.47733 22.0008 12.0004 22.0008Z" fill="#9E95F5"/>
        <path d="M12.0004 18.3641C8.48535 18.3641 5.63673 15.5155 5.63673 12.0004C5.63673 8.48535 8.48535 5.63673 12.0004 5.63673C13.7571 5.63673 15.3478 6.34909 16.5002 7.50062L19.0716 4.92921C17.2617 3.1193 14.7612 2 12.0004 2C6.47721 2 2 6.47721 2 12.0004C2 17.5236 6.47721 22.0008 12.0004 22.0008C14.762 22.0008 17.2617 20.8815 19.0724 19.0724L16.501 16.501C15.3478 17.6517 13.7571 18.3641 12.0004 18.3641Z" fill="#7367F0"/>
        <path d="M18.3641 12.0004H15.1819C15.1819 10.2437 13.7571 8.81816 11.9996 8.81816C10.2421 8.81816 8.81818 10.2429 8.81818 12.0004C8.81818 12.8562 9.15663 13.6322 9.70701 14.2052L9.70459 14.2076L13.6443 18.1473L13.6451 18.1481C16.3624 17.4229 18.3641 14.9457 18.3641 12.0004Z" fill="#7367F0"/>
        <path d="M22 12.0004H18.3633C18.3633 14.9457 16.3608 17.4229 13.6451 18.1481L16.4534 20.9564C19.7412 19.3182 22 15.9232 22 12.0004Z" fill="#9E95F5"/>
        <path d="M12.0004 21.8864C6.49655 21.8864 2.03223 17.4398 2.00081 11.9432C2.00081 11.9625 2 11.9811 2 12.0004C2 17.5236 6.47721 22.0008 12.0004 22.0008C17.5236 22.0008 22.0008 17.5236 22.0008 12.0004C22.0008 11.9811 22 11.9625 22 11.9432C21.9686 17.4398 17.5034 21.8864 12.0004 21.8864Z" fill="#9E95F5"/>
        <path d="M13.6459 18.1481L13.7345 18.2368C16.4051 17.4825 18.3641 15.0279 18.3641 12.114V12.0004C18.3641 14.9457 16.3616 17.4229 13.6459 18.1481Z" fill="white" fill-opacity="0.05"/>
        <path d="M20.1825 11.0911H12C11.498 11.0911 11.0911 11.498 11.0911 12C11.0911 12.5021 11.498 12.909 12 12.909H20.1817C20.6837 12.909 21.0907 12.5021 21.0907 12C21.0915 11.498 20.6845 11.0911 20.1825 11.0911Z" fill="white"/>
        <path opacity="0.5" d="M20.1825 11.0911H12C11.498 11.0911 11.0911 11.498 11.0911 12C11.0911 12.5021 11.498 12.909 12 12.909H20.1817C20.6837 12.909 21.0907 12.5021 21.0907 12C21.0915 11.498 20.6845 11.0911 20.1825 11.0911Z" fill="white"/>
        <path d="M3.81797 12.6821C4.19448 12.6821 4.4997 12.3769 4.4997 12.0004C4.4997 11.6239 4.19448 11.3187 3.81797 11.3187C3.44145 11.3187 3.13623 11.6239 3.13623 12.0004C3.13623 12.3769 3.44145 12.6821 3.81797 12.6821Z" fill="white"/>
        <path d="M12.0004 4.49969C12.3769 4.49969 12.6821 4.19447 12.6821 3.81796C12.6821 3.44145 12.3769 3.13622 12.0004 3.13622C11.6239 3.13622 11.3187 3.44145 11.3187 3.81796C11.3187 4.19447 11.6239 4.49969 12.0004 4.49969Z" fill="white"/>
        <path d="M12.0004 20.8638C12.3769 20.8638 12.6821 20.5585 12.6821 20.182C12.6821 19.8055 12.3769 19.5003 12.0004 19.5003C11.6239 19.5003 11.3187 19.8055 11.3187 20.182C11.3187 20.5585 11.6239 20.8638 12.0004 20.8638Z" fill="white"/>
        <path d="M6.20484 6.89625C6.58135 6.89625 6.88657 6.59102 6.88657 6.21451C6.88657 5.838 6.58135 5.53278 6.20484 5.53278C5.82832 5.53278 5.5231 5.838 5.5231 6.21451C5.5231 6.59102 5.82832 6.89625 6.20484 6.89625Z" fill="white"/>
        <path d="M6.20484 18.4777C6.58135 18.4777 6.88657 18.1725 6.88657 17.796C6.88657 17.4194 6.58135 17.1142 6.20484 17.1142C5.82832 17.1142 5.5231 17.4194 5.5231 17.796C5.5231 18.1725 5.82832 18.4777 6.20484 18.4777Z" fill="white"/>
        <path d="M17.796 18.4777C18.1725 18.4777 18.4777 18.1725 18.4777 17.796C18.4777 17.4195 18.1725 17.1142 17.796 17.1142C17.4195 17.1142 17.1142 17.4195 17.1142 17.796C17.1142 18.1725 17.4195 18.4777 17.796 18.4777Z" fill="#7367F0"/>
        <path d="M12.0004 11.205H20.182C20.6647 11.205 21.0596 11.5822 21.0878 12.0576C21.0886 12.0383 21.091 12.0197 21.091 12.0004C21.091 11.4984 20.6841 11.0914 20.182 11.0914H12.0004C11.4984 11.0914 11.0914 11.4984 11.0914 12.0004C11.0914 12.0197 11.0922 12.0383 11.0947 12.0576C11.1229 11.5822 11.5169 11.205 12.0004 11.205Z" fill="#7367F0"/>
        <path d="M21.0878 12.0568C21.058 12.5314 20.6639 12.9094 20.182 12.9094H12.0004C11.5177 12.9094 11.1229 12.5323 11.0947 12.0568C11.0922 12.0761 11.0914 12.0947 11.0914 12.1132C11.0914 12.6153 11.4984 13.0222 12.0004 13.0222H20.182C20.6841 13.0222 21.091 12.6153 21.091 12.1132C21.091 12.0947 21.0902 12.0761 21.0878 12.0568Z" fill="white"/>
        <path d="M12.0004 5.75036C13.7571 5.75036 15.3478 6.46271 16.5002 7.61425L19.1272 4.98562C19.1078 4.96628 19.0893 4.94694 19.0708 4.92841L16.5002 7.49982C15.3478 6.34829 13.7571 5.63593 12.0004 5.63593C8.48534 5.63593 5.63672 8.48455 5.63672 11.9996C5.63672 12.0189 5.63752 12.0375 5.63752 12.0568C5.66815 8.56836 8.50468 5.75036 12.0004 5.75036Z" fill="#9E95F5"/>
        <path d="M12.0004 22.0008C17.5235 22.0008 22.0008 17.5235 22.0008 12.0004C22.0008 6.47733 17.5235 2 12.0004 2C6.47733 2 2 6.47733 2 12.0004C2 17.5235 6.47733 22.0008 12.0004 22.0008Z" fill="url(#paint0_radial_1_107)"/>
    </g>

</svg>
