<svg width="60" height="60" viewBox="0 0 60 60" fill="none" xmlns="http://www.w3.org/2000/svg">
    <defs>
        <radialGradient id="paint0_radial_561_6959" cx="0" cy="0" r="1" gradientUnits="userSpaceOnUse" gradientTransform="translate(12.3317 12.2748) scale(49.9157)">
            <stop stop-color="white" stop-opacity="0.1"/>
            <stop offset="1" stop-color="white" stop-opacity="0"/>
        </radialGradient>
        <clipPath id="clip0_561_6959">
            <rect width="50" height="50" fill="white" transform="translate(5 5)"/>
        </clipPath>
    </defs>

    <g clip-path="url(#clip0_561_6959)">
        <path d="M30.001 55.002C43.8087 55.002 55.002 43.8087 55.002 30.001C55.002 16.1933 43.8087 5 30.001 5C16.1933 5 5 16.1933 5 30.001C5 43.8087 16.1933 55.002 30.001 55.002Z" fill="#9E95F5"/>
        <path d="M30.001 45.9102C21.2134 45.9102 14.0918 38.7886 14.0918 30.001C14.0918 21.2134 21.2134 14.0918 30.001 14.0918C34.3928 14.0918 38.3696 15.8727 41.2505 18.7516L47.679 12.323C43.1542 7.79826 36.903 5 30.001 5C16.193 5 5 16.193 5 30.001C5 43.809 16.193 55.002 30.001 55.002C36.905 55.002 43.1542 52.2038 47.681 47.681L41.2525 41.2525C38.3696 44.1293 34.3928 45.9102 30.001 45.9102Z" fill="#7367F0"/>
        <path d="M45.9097 30.001H37.9541C37.9541 25.6092 34.3923 22.0454 29.9985 22.0454C25.6047 22.0454 22.0449 25.6072 22.0449 30.001C22.0449 32.1405 22.891 34.0805 24.267 35.5129L24.261 35.519L34.1103 45.3683L34.1123 45.3703C40.9055 43.5572 45.9097 37.3643 45.9097 30.001Z" fill="#7367F0"/>
        <path d="M54.9995 30.001H45.9077C45.9077 37.3643 40.9015 43.5571 34.1123 45.3703L41.1331 52.3911C49.3526 48.2954 54.9995 39.808 54.9995 30.001Z" fill="#9E95F5"/>
        <path d="M30.001 54.7159C16.2414 54.7159 5.08058 43.5995 5.00201 29.858C5.00201 29.9063 5 29.9527 5 30.001C5 43.809 16.193 55.002 30.001 55.002C43.809 55.002 55.002 43.809 55.002 30.001C55.002 29.9527 55 29.9063 55 29.858C54.9214 43.5995 43.7586 54.7159 30.001 54.7159Z" fill="#9E95F5"/>
        <path d="M34.1152 45.3702L34.3368 45.5918C41.0132 43.7062 45.9106 37.5698 45.9106 30.285V30.001C45.9106 37.3643 40.9044 43.5571 34.1152 45.3702Z" fill="white" fill-opacity="0.05"/>
        <path d="M50.4561 27.7277H30C28.7449 27.7277 27.7275 28.745 27.7275 30.0001C27.7275 31.2552 28.7449 32.2726 30 32.2726H50.4541C51.7092 32.2726 52.7265 31.2552 52.7265 30.0001C52.7285 28.745 51.7112 27.7277 50.4561 27.7277Z" fill="white"/>
        <path opacity="0.5" d="M50.4561 27.7277H30C28.7449 27.7277 27.7275 28.745 27.7275 30.0001C27.7275 31.2552 28.7449 32.2726 30 32.2726H50.4541C51.7092 32.2726 52.7265 31.2552 52.7265 30.0001C52.7285 28.745 51.7112 27.7277 50.4561 27.7277Z" fill="white"/>
        <path d="M9.54516 31.7054C10.4864 31.7054 11.2495 30.9423 11.2495 30.001C11.2495 29.0598 10.4864 28.2967 9.54516 28.2967C8.60388 28.2967 7.84082 29.0598 7.84082 30.001C7.84082 30.9423 8.60388 31.7054 9.54516 31.7054Z" fill="white"/>
        <path d="M30.0012 11.2493C30.9425 11.2493 31.7056 10.4862 31.7056 9.54492C31.7056 8.60364 30.9425 7.84058 30.0012 7.84058C29.0599 7.84058 28.2969 8.60364 28.2969 9.54492C28.2969 10.4862 29.0599 11.2493 30.0012 11.2493Z" fill="white"/>
        <path d="M30.0012 52.1594C30.9425 52.1594 31.7056 51.3964 31.7056 50.4551C31.7056 49.5138 30.9425 48.7507 30.0012 48.7507C29.0599 48.7507 28.2969 49.5138 28.2969 50.4551C28.2969 51.3964 29.0599 52.1594 30.0012 52.1594Z" fill="white"/>
        <path d="M15.512 17.2406C16.4532 17.2406 17.2163 16.4776 17.2163 15.5363C17.2163 14.595 16.4532 13.832 15.512 13.832C14.5707 13.832 13.8076 14.595 13.8076 15.5363C13.8076 16.4776 14.5707 17.2406 15.512 17.2406Z" fill="white"/>
        <path d="M15.512 46.1943C16.4532 46.1943 17.2163 45.4312 17.2163 44.4899C17.2163 43.5487 16.4532 42.7856 15.512 42.7856C14.5707 42.7856 13.8076 43.5487 13.8076 44.4899C13.8076 45.4312 14.5707 46.1943 15.512 46.1943Z" fill="white"/>
        <path d="M44.4895 46.1943C45.4308 46.1943 46.1938 45.4312 46.1938 44.4899C46.1938 43.5486 45.4308 42.7856 44.4895 42.7856C43.5482 42.7856 42.7852 43.5486 42.7852 44.4899C42.7852 45.4312 43.5482 46.1943 44.4895 46.1943Z" fill="#7367F0"/>
        <path d="M30.001 28.0126H50.4551C51.6618 28.0126 52.6489 28.9555 52.7194 30.1441C52.7215 30.0957 52.7275 30.0494 52.7275 30.001C52.7275 28.7459 51.7101 27.7286 50.4551 27.7286H30.001C28.7459 27.7286 27.7285 28.7459 27.7285 30.001C27.7285 30.0494 27.7305 30.0957 27.7366 30.1441C27.8071 28.9555 28.7922 28.0126 30.001 28.0126Z" fill="#7367F0"/>
        <path d="M52.7194 30.142C52.6449 31.3286 51.6598 32.2735 50.4551 32.2735H30.001C28.7942 32.2735 27.8071 31.3306 27.7366 30.142C27.7305 30.1904 27.7285 30.2367 27.7285 30.283C27.7285 31.5381 28.7459 32.5555 30.001 32.5555H50.4551C51.7101 32.5555 52.7275 31.5381 52.7275 30.283C52.7275 30.2367 52.7255 30.1904 52.7194 30.142Z" fill="white"/>
        <path d="M30.001 14.3759C34.3928 14.3759 38.3696 16.1568 41.2504 19.0356L47.818 12.464C47.7696 12.4157 47.7233 12.3673 47.6769 12.321L41.2504 18.7495C38.3696 15.8707 34.3928 14.0898 30.001 14.0898C21.2134 14.0898 14.0918 21.2113 14.0918 29.999C14.0918 30.0473 14.0938 30.0936 14.0938 30.142C14.1704 21.4209 21.2617 14.3759 30.001 14.3759Z" fill="#9E95F5"/>
        <path d="M30.001 55.002C43.8087 55.002 55.002 43.8087 55.002 30.001C55.002 16.1933 43.8087 5 30.001 5C16.1933 5 5 16.1933 5 30.001C5 43.8087 16.1933 55.002 30.001 55.002Z" fill="url(#paint0_radial_561_6959)"/>
    </g>

</svg>
