<svg width="24" height="25" viewBox="0 0 24 25" fill="none" xmlns="http://www.w3.org/2000/svg">
<g id="Icon awesome-code-branch">
<path id="Icon awesome-code-branch_2" d="M19 8.12347C19.0001 7.54335 18.8388 6.97465 18.534 6.48111C18.2291 5.98758 17.793 5.58871 17.2743 5.32921C16.7556 5.06971 16.1749 4.95983 15.5973 5.0119C15.0197 5.06396 14.468 5.27591 14.004 5.62398C13.5401 5.97205 13.1822 6.4425 12.9705 6.98259C12.7588 7.52268 12.7017 8.11108 12.8055 8.68183C12.9093 9.25258 13.17 9.78314 13.5583 10.214C13.9466 10.6449 14.4472 10.9591 15.0039 11.1214C15.0191 11.6362 14.8685 12.1422 14.5744 12.5649C13.9738 13.3144 12.6507 13.4399 11.2443 13.5642C10.1567 13.5991 9.08333 13.8223 8.07188 14.2238V8.60314C8.7836 8.37937 9.39171 7.90807 9.7861 7.27459C10.1805 6.64111 10.3351 5.88731 10.2219 5.14966C10.1088 4.41201 9.73531 3.73927 9.16917 3.25324C8.60303 2.76721 7.88163 2.5 7.13558 2.5C6.38953 2.5 5.66813 2.76721 5.10199 3.25324C4.53585 3.73927 4.1624 4.41201 4.04923 5.14966C3.93607 5.88731 4.09067 6.64111 4.48506 7.27459C4.87945 7.90807 5.48756 8.37937 6.19928 8.60314V16.3812C5.4934 16.601 4.8881 17.0636 4.49066 17.6872C4.09322 18.3107 3.92932 19.0549 4.02801 19.7878C4.1267 20.5206 4.48161 21.1949 5.02982 21.691C5.57803 22.1872 6.28414 22.4731 7.02299 22.4982C7.76184 22.5233 8.48571 22.2859 9.06629 21.8281C9.64687 21.3703 10.0467 20.7216 10.1948 19.9971C10.343 19.2726 10.2299 18.5191 9.87563 17.87C9.52138 17.2209 8.94883 16.7183 8.25947 16.4512C8.39858 16.2241 8.60066 16.0424 8.84112 15.9282C9.66685 15.6178 10.539 15.4489 11.4208 15.4285C13.0681 15.2764 14.9329 15.0954 16.0329 13.7341C16.6063 12.9719 16.9034 12.0372 16.8754 11.0837C17.4937 10.8732 18.0308 10.4747 18.4117 9.94399C18.7926 9.41327 18.9983 8.7768 19 8.12347ZM7.13724 5.00003C7.26085 5.00003 7.38167 5.0367 7.48444 5.10539C7.58721 5.17408 7.66731 5.27171 7.71461 5.38594C7.76191 5.50017 7.77429 5.62586 7.75018 5.74712C7.72606 5.86839 7.66654 5.97977 7.57914 6.0672C7.49174 6.15463 7.38039 6.21416 7.25916 6.23828C7.13794 6.26241 7.01228 6.25003 6.89809 6.20271C6.7839 6.1554 6.6863 6.07527 6.61763 5.97247C6.54896 5.86967 6.51231 5.7488 6.51231 5.62516C6.5126 5.45946 6.57853 5.30063 6.69567 5.18345C6.81281 5.06628 6.97159 5.00033 7.13724 5.00003ZM7.13724 19.9899C7.01396 19.9896 6.8935 19.9529 6.79108 19.8842C6.68866 19.8156 6.60888 19.7181 6.5618 19.6041C6.51472 19.4902 6.50246 19.3648 6.52657 19.2438C6.55067 19.1229 6.61006 19.0118 6.69724 18.9246C6.78442 18.8374 6.89547 18.778 7.01638 18.7539C7.13729 18.7298 7.26263 18.742 7.37657 18.7891C7.49052 18.8362 7.58796 18.916 7.65659 19.0185C7.72522 19.1209 7.76197 19.2414 7.76218 19.3647C7.76189 19.5304 7.69596 19.6893 7.57882 19.8064C7.46168 19.9236 7.3029 19.9896 7.13724 19.9899ZM15.8786 7.49834C16.0023 7.49812 16.1232 7.5346 16.2261 7.60315C16.329 7.67171 16.4093 7.76926 16.4568 7.88347C16.5043 7.99768 16.5168 8.12341 16.4928 8.24475C16.4688 8.36608 16.4094 8.47757 16.322 8.56511C16.2347 8.65265 16.1233 8.7123 16.0021 8.73651C15.8808 8.76072 15.7551 8.7484 15.6408 8.70112C15.5266 8.65384 15.4289 8.57372 15.3602 8.47089C15.2915 8.36806 15.2548 8.24716 15.2548 8.12347C15.2551 7.95796 15.3209 7.79929 15.4378 7.68215C15.5547 7.56501 15.7132 7.49893 15.8786 7.49834Z" fill="#7367F0"/>
</g>
</svg>
