<svg width="21" height="20" viewBox="0 0 21 20" fill="none" xmlns="http://www.w3.org/2000/svg">
<g id="Icon metro-flow-tree">
<g id="Frame" clip-path="url(#clip0_753_3422)">
<path id="Icon metro-flow-tree_2" d="M17.3433 14.2768V12.2157C17.3433 11.8079 17.2629 11.404 17.1067 11.0273C16.9505 10.6505 16.7215 10.3083 16.4329 10.0201C16.1443 9.73192 15.8017 9.50347 15.4247 9.34781C15.0477 9.19215 14.6438 9.11235 14.2359 9.11295H12.4674C12.1148 9.11271 11.7768 8.97255 11.5275 8.72324C11.2782 8.47394 11.138 8.13589 11.1378 7.78333V5.72314C11.5797 5.52082 11.939 5.17344 12.1563 4.73869C12.3735 4.30394 12.4355 3.80796 12.3319 3.33312C12.2284 2.85828 11.9656 2.43314 11.5871 2.12828C11.2086 1.82342 10.7372 1.6572 10.2512 1.6572C9.7652 1.6572 9.29383 1.82342 8.91533 2.12828C8.53684 2.43314 8.274 2.85828 8.17046 3.33312C8.06693 3.80796 8.12891 4.30394 8.34614 4.73869C8.56336 5.17344 8.92275 5.52082 9.36463 5.72314V7.78333C9.36451 7.95813 9.32994 8.13121 9.2629 8.29265C9.19587 8.45409 9.09767 8.60075 8.97394 8.72423C8.8502 8.84771 8.70334 8.94559 8.54176 9.01229C8.38017 9.07899 8.20703 9.1132 8.03222 9.11295H6.26185C5.43894 9.11295 4.64974 9.43985 4.06786 10.0217C3.48597 10.6036 3.15907 11.3928 3.15907 12.2157V14.2759C2.71719 14.4782 2.3578 14.8256 2.14058 15.2604C1.92336 15.6951 1.86137 16.1911 1.96491 16.6659C2.06845 17.1408 2.33128 17.5659 2.70978 17.8708C3.08827 18.1756 3.55965 18.3419 4.04565 18.3419C4.53165 18.3419 5.00303 18.1756 5.38152 17.8708C5.76001 17.5659 6.02285 17.1408 6.12639 16.6659C6.22993 16.1911 6.16794 15.6951 5.95071 15.2604C5.73349 14.8256 5.3741 14.4782 4.93222 14.2759V12.2157C4.93247 11.8632 5.07263 11.5251 5.32193 11.2758C5.57123 11.0265 5.90929 10.8863 6.26185 10.8861H8.03222C8.49309 10.8838 8.94754 10.7778 9.36185 10.5759V14.2796C8.91997 14.4819 8.56058 14.8293 8.34336 15.2641C8.12614 15.6988 8.06415 16.1948 8.16769 16.6696C8.27122 17.1445 8.53406 17.5696 8.91255 17.8745C9.29105 18.1793 9.76243 18.3456 10.2484 18.3456C10.7344 18.3456 11.2058 18.1793 11.5843 17.8745C11.9628 17.5696 12.2256 17.1445 12.3292 16.6696C12.4327 16.1948 12.3707 15.6988 12.1535 15.2641C11.9363 14.8293 11.5769 14.4819 11.135 14.2796V10.5759C11.5493 10.7778 12.0038 10.8838 12.4646 10.8861H14.2359C14.5885 10.8863 14.9265 11.0265 15.1758 11.2758C15.4251 11.5251 15.5653 11.8632 15.5656 12.2157V14.2759C15.1237 14.4782 14.7643 14.8256 14.5471 15.2604C14.3298 15.6951 14.2679 16.1911 14.3714 16.6659C14.4749 17.1408 14.7378 17.5659 15.1163 17.8708C15.4948 18.1756 15.9661 18.3419 16.4521 18.3419C16.9381 18.3419 17.4095 18.1756 17.788 17.8708C18.1665 17.5659 18.4293 17.1408 18.5329 16.6659C18.6364 16.1911 18.5744 15.6951 18.3572 15.2604C18.14 14.8256 17.7806 14.4782 17.3387 14.2759L17.3433 14.2768ZM10.2544 2.56666C10.4973 2.56647 10.7348 2.63833 10.9368 2.77313C11.1388 2.90792 11.2964 3.09961 11.3894 3.32394C11.4825 3.54827 11.5069 3.79517 11.4597 4.0334C11.4124 4.27162 11.2955 4.49048 11.1239 4.66228C10.9522 4.83408 10.7334 4.9511 10.4952 4.99855C10.257 5.046 10.0101 5.02174 9.78573 4.92884C9.56133 4.83594 9.36952 4.67858 9.23457 4.47665C9.09962 4.27472 9.02759 4.03731 9.02759 3.79444C9.02747 3.63324 9.05911 3.47361 9.12072 3.32466C9.18232 3.1757 9.27267 3.04034 9.3866 2.92632C9.50054 2.8123 9.63582 2.72185 9.78473 2.66013C9.93364 2.59842 10.0933 2.56666 10.2544 2.56666V2.56666ZM4.04518 17.437C3.80247 17.4372 3.56515 17.3655 3.3632 17.2308C3.16126 17.0962 3.00374 16.9047 2.91057 16.6806C2.81739 16.4565 2.79273 16.2098 2.8397 15.9717C2.88667 15.7335 3.00316 15.5147 3.17446 15.3427C3.34576 15.1708 3.56418 15.0535 3.80213 15.0056C4.04007 14.9577 4.28687 14.9815 4.51133 15.0738C4.7358 15.1661 4.92786 15.3229 5.06326 15.5243C5.19865 15.7258 5.2713 15.9628 5.27204 16.2055C5.27252 16.367 5.24116 16.527 5.17973 16.6763C5.11831 16.8256 5.02803 16.9614 4.91407 17.0758C4.80011 17.1902 4.6647 17.281 4.51561 17.343C4.36651 17.4049 4.20665 17.4369 4.04518 17.437V17.437ZM10.2489 17.437C10.006 17.4372 9.76855 17.3654 9.56652 17.2306C9.36449 17.0958 9.20698 16.9041 9.11391 16.6797C9.02084 16.4554 8.99639 16.2085 9.04366 15.9703C9.09093 15.7321 9.20779 15.5132 9.37947 15.3414C9.55114 15.1696 9.7699 15.0526 10.0081 15.0051C10.2463 14.9577 10.4932 14.9819 10.7176 15.0748C10.942 15.1677 11.1338 15.3251 11.2688 15.527C11.4037 15.729 11.4757 15.9664 11.4757 16.2093C11.4757 16.5338 11.3473 16.8451 11.1184 17.0751C10.8896 17.3052 10.5789 17.4353 10.2544 17.437H10.2489ZM16.4526 17.437C16.2097 17.4372 15.9723 17.3654 15.7702 17.2306C15.5682 17.0958 15.4107 16.9041 15.3176 16.6797C15.2245 16.4554 15.2001 16.2085 15.2474 15.9703C15.2946 15.7321 15.4115 15.5132 15.5832 15.3414C15.7548 15.1696 15.9736 15.0526 16.2118 15.0051C16.45 14.9577 16.6969 14.9819 16.9213 15.0748C17.1457 15.1677 17.3375 15.3251 17.4725 15.527C17.6074 15.729 17.6794 15.9664 17.6794 16.2093C17.6794 16.5338 17.551 16.8451 17.3221 17.0751C17.0933 17.3052 16.7827 17.4353 16.4581 17.437H16.4526Z" fill="#5E5873"/>
</g>
</g>
<defs>
<clipPath id="clip0_753_3422">
<rect width="16.6667" height="16.6667" fill="white" transform="translate(1.91699 1.66666)"/>
</clipPath>
</defs>
</svg>
