<svg width="19" height="18" viewBox="0 0 19 18" fill="none" xmlns="http://www.w3.org/2000/svg">
<g id="monetization_on">
<path id="Vector" d="M9.75 1.5C5.61 1.5 2.25 4.86 2.25 9C2.25 13.14 5.61 16.5 9.75 16.5C13.89 16.5 17.25 13.14 17.25 9C17.25 4.86 13.89 1.5 9.75 1.5ZM10.8075 13.5675V15H8.805V13.5525C7.5225 13.2825 6.435 12.4575 6.3525 11.0025H7.8225C7.8975 11.79 8.4375 12.405 9.81 12.405C11.28 12.405 11.61 11.67 11.61 11.2125C11.61 10.59 11.28 10.005 9.6075 9.6075C7.7475 9.1575 6.4725 8.3925 6.4725 6.855C6.4725 5.565 7.515 4.725 8.805 4.4475V3H10.8075V4.4625C12.2025 4.8 12.9 5.8575 12.945 7.005H11.475C11.4375 6.1725 10.995 5.6025 9.81 5.6025C8.685 5.6025 8.01 6.1125 8.01 6.8325C8.01 7.4625 8.4975 7.875 10.0125 8.265C11.5275 8.655 13.1475 9.3075 13.1475 11.1975C13.14 12.57 12.1125 13.32 10.8075 13.5675Z" fill="#7367F0"/>
</g>
</svg>
