<svg width="19" height="18" viewBox="0 0 19 18" fill="none" xmlns="http://www.w3.org/2000/svg">
<path d="M7.5 3C7.5 2.1675 8.1675 1.5 9 1.5C9.8325 1.5 10.5 2.1675 10.5 3C10.5 3.8325 9.8325 4.5 9 4.5C8.1675 4.5 7.5 3.8325 7.5 3ZM12.75 9.75C12.7425 8.745 12.1275 7.8675 11.25 7.5C11.25 6.2175 10.185 5.19 8.88 5.25C7.665 5.3175 6.75 6.405 6.75 7.62V12C6.75 12.4125 7.0875 12.75 7.5 12.75H8.25V15.375C8.25 15.9975 8.7525 16.5 9.375 16.5C9.9975 16.5 10.5 15.9975 10.5 15.375V12.75H12C12.4125 12.75 12.75 12.4125 12.75 12V9.75Z" fill="#7367F0"/>
</svg>
