<svg width="60" height="60" viewBox="0 0 60 60" fill="none" xmlns="http://www.w3.org/2000/svg">
<path d="M10.475 11.175C8.675 11.975 7.5 13.775 7.5 15.75V27.5C7.5 41.375 17.1 54.35 30 57.5C42.9 54.35 52.5 41.375 52.5 27.5V15.75C52.5 13.775 51.325 11.975 49.525 11.175L32.025 3.4C30.725 2.825 29.25 2.825 27.975 3.4L10.475 11.175ZM30 17.5C31.375 17.5 32.5 18.625 32.5 20C32.5 21.375 31.375 22.5 30 22.5C28.625 22.5 27.5 21.375 27.5 20C27.5 18.625 28.625 17.5 30 17.5ZM30 27.5C31.375 27.5 32.5 28.625 32.5 30V40C32.5 41.375 31.375 42.5 30 42.5C28.625 42.5 27.5 41.375 27.5 40V30C27.5 28.625 28.625 27.5 30 27.5Z" fill="#7367F0"/>
</svg>
