<svg width="24" height="24" viewBox="0 0 24 24" fill="none" xmlns="http://www.w3.org/2000/svg">
<g clip-path="url(#clip0_200_4339)">
<path d="M21.1532 4.86361H17.763L17.9366 2.91811C17.9464 2.80072 17.9316 2.68257 17.8931 2.57122C17.8547 2.45987 17.7935 2.35774 17.7134 2.27136C17.6333 2.18498 17.5361 2.11624 17.428 2.06952C17.3198 2.02281 17.2031 1.99914 17.0854 2.00002H6.91571C6.79814 1.99961 6.68176 2.02366 6.57397 2.07064C6.46619 2.11763 6.36936 2.18652 6.28963 2.27294C6.2099 2.35937 6.14902 2.46143 6.11086 2.57265C6.0727 2.68387 6.05809 2.80181 6.06796 2.91898L6.23109 4.86361H2.84786C2.7349 4.8637 2.6231 4.88635 2.51903 4.93025C2.41495 4.97415 2.3207 5.03841 2.2418 5.11925C2.1629 5.20009 2.10096 5.29588 2.0596 5.401C2.01824 5.50612 1.99831 5.61844 2.00097 5.73137V7.52762C2.00301 9.08744 2.59421 10.5889 3.65616 11.7314C4.71812 12.8738 6.17244 13.5729 7.7279 13.6887C8.19849 14.34 8.80935 14.8774 9.51539 15.261C9.68391 16.1402 9.66319 17.0452 9.45462 17.9157C9.24605 18.7862 8.85442 19.6023 8.3058 20.3096H6.91745C6.69742 20.3167 6.48876 20.409 6.3356 20.5672C6.18244 20.7253 6.09681 20.9368 6.09681 21.157C6.09681 21.3772 6.18244 21.5887 6.3356 21.7468C6.48876 21.905 6.69742 21.9973 6.91745 22.0044H17.0871C17.3071 21.9973 17.5158 21.905 17.6689 21.7468C17.8221 21.5887 17.9077 21.3772 17.9077 21.157C17.9077 20.9368 17.8221 20.7253 17.6689 20.5672C17.5158 20.409 17.3071 20.3167 17.0871 20.3096H15.7022C15.1535 19.6017 14.7621 18.7849 14.5541 17.9137C14.3461 17.0425 14.3264 16.137 14.4961 15.2576C15.2013 14.8741 15.8109 14.3363 16.2792 13.6843C17.8347 13.5686 19.289 12.8695 20.351 11.727C21.4129 10.5846 22.0041 9.0831 22.0062 7.52328V5.73137C22.0088 5.61837 21.9889 5.50597 21.9475 5.4008C21.9061 5.29562 21.844 5.19979 21.765 5.11894C21.6861 5.03809 21.5917 4.97385 21.4875 4.93C21.3833 4.88615 21.2714 4.86358 21.1584 4.86361H21.1532ZM6.86539 11.8308C5.94611 11.5466 5.14218 10.9752 4.57166 10.2003C4.00113 9.42549 3.69409 8.48812 3.69562 7.52588V6.55921H6.37339L6.74651 11.0715C6.7509 11.1855 6.76454 11.299 6.78729 11.4108C6.80465 11.5158 6.81419 11.5635 6.83155 11.6416C6.8489 11.7197 6.83155 11.7093 6.8515 11.7432L6.86539 11.8308ZM10.3258 20.3096C11.075 18.9481 11.4129 17.3984 11.2986 15.8485C11.5309 15.8838 11.7655 15.9021 12.0005 15.9032C12.2375 15.9004 12.474 15.8821 12.7086 15.8485C12.5948 17.3984 12.933 18.9481 13.6822 20.3096H10.3258ZM20.3046 7.52935C20.3061 8.49159 19.9991 9.42896 19.4285 10.2038C18.858 10.9786 18.0541 11.5501 17.1348 11.8343C17.1332 11.8106 17.1332 11.7868 17.1348 11.7631C17.1332 11.736 17.1332 11.7087 17.1348 11.6816C17.1522 11.6 17.1687 11.5184 17.1791 11.4342C17.1895 11.3501 17.2129 11.2034 17.2233 11.095L17.5999 6.58263H20.3046V7.52935Z" fill="#5E5873"/>
</g>
<defs>
<clipPath id="clip0_200_4339">
<rect width="20" height="20" fill="white" transform="translate(2 2)"/>
</clipPath>
</defs>
</svg>
