<svg width="18" height="19" viewBox="0 0 18 19" fill="none" xmlns="http://www.w3.org/2000/svg">
<g clip-path="url(#clip0_147_3497)">
<path d="M16.1463 2.35321C15.973 2.17895 15.7502 2.0623 15.5083 2.01911C15.2664 1.97592 15.0171 2.00829 14.7942 2.11181L2.20456 7.89807C1.98423 7.9982 1.79924 8.16253 1.67381 8.36957C1.54837 8.57661 1.48833 8.8167 1.50155 9.05844C1.51477 9.30017 1.60062 9.53229 1.74788 9.7244C1.89514 9.91652 2.09694 10.0597 2.32688 10.1352L6.18706 11.4067L8.15404 9.4409C8.27507 9.3323 8.4331 9.27423 8.59562 9.27864C8.75814 9.28305 8.91279 9.3496 9.02775 9.46461C9.14271 9.57962 9.20924 9.73433 9.21365 9.89692C9.21806 10.0595 9.16001 10.2176 9.05145 10.3387L7.09909 12.3164L8.37008 16.1781C8.44586 16.4083 8.5897 16.6101 8.78258 16.7568C8.97547 16.9034 9.2083 16.988 9.4503 16.9994H9.51677C9.74636 16.9998 9.97123 16.9342 10.1645 16.8102C10.3578 16.6863 10.5114 16.5094 10.607 16.3005L16.3902 3.70584C16.4934 3.48262 16.5253 3.23302 16.4817 2.991C16.438 2.74899 16.3209 2.52629 16.1463 2.35321V2.35321Z" fill="#5E5873"/>
</g>
<defs>
<clipPath id="clip0_147_3497">
<rect width="15" height="15" fill="white" transform="translate(1.5 2)"/>
</clipPath>
</defs>
</svg>
