<svg width="14" height="15" viewBox="0 0 14 15" fill="none" xmlns="http://www.w3.org/2000/svg">
<path d="M8.16648 1.08334H5.83315C5.51231 1.08334 5.24981 1.34584 5.24981 1.66668C5.24981 1.98751 5.51231 2.25001 5.83315 2.25001H8.16648C8.48731 2.25001 8.74981 1.98751 8.74981 1.66668C8.74981 1.34584 8.48731 1.08334 8.16648 1.08334ZM6.99981 8.66668C7.32065 8.66668 7.58315 8.40418 7.58315 8.08334V5.75001C7.58315 5.42918 7.32065 5.16668 6.99981 5.16668C6.67898 5.16668 6.41648 5.42918 6.41648 5.75001V8.08334C6.41648 8.40418 6.67898 8.66668 6.99981 8.66668ZM11.1006 4.81084L11.5381 4.37334C11.7598 4.15168 11.7656 3.78418 11.5381 3.55668L11.5323 3.55084C11.3048 3.32334 10.9431 3.32918 10.7156 3.55084L10.2781 3.98834C9.37398 3.26501 8.23648 2.83334 6.99981 2.83334C4.19981 2.83334 1.81981 5.14334 1.74981 7.94334C1.67398 10.9067 4.04815 13.3333 6.99981 13.3333C9.90481 13.3333 12.2498 10.9825 12.2498 8.08334C12.2498 6.84668 11.8181 5.70918 11.1006 4.81084ZM6.99981 12.1667C4.74231 12.1667 2.91648 10.3408 2.91648 8.08334C2.91648 5.82584 4.74231 4.00001 6.99981 4.00001C9.25731 4.00001 11.0831 5.82584 11.0831 8.08334C11.0831 10.3408 9.25731 12.1667 6.99981 12.1667Z" fill="#B9B9C3"/>
</svg>
