<svg width="24" height="24" viewBox="0 0 24 24" fill="none" xmlns="http://www.w3.org/2000/svg">
<path d="M19.0433 16.3126C19.1119 16.382 19.1937 16.4371 19.2837 16.4748C19.3737 16.5124 19.4703 16.5317 19.5679 16.5317C19.6655 16.5317 19.7621 16.5124 19.8521 16.4748C19.9422 16.4371 20.0239 16.382 20.0925 16.3126L21.7805 14.6217C21.919 14.481 21.9968 14.2914 21.9969 14.0937C21.9971 13.8961 21.9197 13.7063 21.7814 13.5654L10.4328 2.21627C10.2923 2.07816 10.1033 2.00079 9.9064 2.00079C9.70953 2.00079 9.52053 2.07816 9.38001 2.21627L7.69202 3.90711C7.62269 3.97587 7.56766 4.05772 7.5301 4.14792C7.49254 4.23812 7.4732 4.33488 7.4732 4.43261C7.4732 4.53034 7.49254 4.6271 7.5301 4.7173C7.56766 4.80749 7.62269 4.88934 7.69202 4.9581C8.05476 5.32146 8.25855 5.81427 8.25855 6.32813C8.25855 6.84199 8.05476 7.3348 7.69202 7.69816C7.32928 8.06151 6.8373 8.26564 6.32431 8.26564C5.81131 8.26564 5.31933 8.06151 4.95659 7.69816C4.88794 7.62871 4.80624 7.57359 4.71619 7.53596C4.62614 7.49834 4.52955 7.47897 4.43198 7.47897C4.33442 7.47897 4.23782 7.49834 4.14777 7.53596C4.05773 7.57359 3.97602 7.62871 3.90737 7.69816L2.21938 9.389C2.08151 9.52976 2.00427 9.71908 2.00427 9.91628C2.00427 10.1135 2.08151 10.3028 2.21938 10.4436L13.5849 21.7811C13.7254 21.9192 13.9144 21.9966 14.1113 21.9966C14.3081 21.9966 14.4971 21.9192 14.6377 21.7811L16.3256 20.0903C16.395 20.0215 16.45 19.9396 16.4876 19.8494C16.5251 19.7592 16.5445 19.6625 16.5445 19.5648C16.5445 19.467 16.5251 19.3703 16.4876 19.2801C16.45 19.1899 16.395 19.108 16.3256 19.0393C16.1358 18.8621 15.9835 18.6484 15.8779 18.4109C15.7723 18.1735 15.7155 17.9172 15.7109 17.6573C15.7064 17.3974 15.7541 17.1393 15.8513 16.8983C15.9484 16.6573 16.0931 16.4383 16.2766 16.2545C16.4601 16.0707 16.6786 15.9258 16.9192 15.8285C17.1599 15.7311 17.4176 15.6833 17.677 15.6879C17.9365 15.6925 18.1923 15.7494 18.4294 15.8552C18.6664 15.961 18.8797 16.1135 19.0566 16.3037L19.0433 16.3126ZM14.7007 10.7426C14.7986 10.7426 14.8956 10.762 14.9859 10.7997C15.0763 10.8375 15.1583 10.8928 15.2272 10.9625C15.2961 11.0321 15.3505 11.1148 15.3873 11.2057C15.4241 11.2965 15.4426 11.3938 15.4417 11.4919V12.5091C15.4286 12.6975 15.3447 12.8739 15.2069 13.0028C15.069 13.1316 14.8875 13.2033 14.699 13.2033C14.5104 13.2033 14.3289 13.1316 14.191 13.0028C14.0532 12.8739 13.9693 12.6975 13.9562 12.5091V11.4919C13.9558 11.3936 13.9747 11.2963 14.0119 11.2054C14.0491 11.1145 14.1039 11.0319 14.173 10.9622C14.2422 10.8926 14.3244 10.8374 14.415 10.7997C14.5056 10.762 14.6027 10.7426 14.7007 10.7426ZM9.31249 13.2584C9.11716 13.2563 8.93024 13.1784 8.79099 13.0412C8.72037 12.9716 8.66447 12.8884 8.62662 12.7967C8.58876 12.705 8.56973 12.6065 8.57066 12.5073V11.4919C8.58643 11.3057 8.67142 11.1322 8.8088 11.0058C8.94618 10.8793 9.12593 10.8092 9.31249 10.8092C9.49905 10.8092 9.6788 10.8793 9.81618 11.0058C9.95356 11.1322 10.0385 11.3057 10.0543 11.4919V12.5091C10.0548 12.6073 10.0359 12.7046 9.99867 12.7955C9.96146 12.8864 9.9067 12.9691 9.83752 13.0387C9.76834 13.1083 9.68611 13.1636 9.59555 13.2013C9.50499 13.239 9.40789 13.2584 9.30982 13.2584H9.31249ZM12.0204 16.7433C11.9232 16.7427 11.8272 16.7229 11.7377 16.685C11.6482 16.6471 11.567 16.5919 11.4989 16.5226C11.4294 16.454 11.3744 16.372 11.3371 16.2817C11.2999 16.1913 11.2812 16.0944 11.2821 15.9966V8.0034C11.2821 7.80644 11.3602 7.61755 11.4993 7.47828C11.6383 7.33901 11.8269 7.26076 12.0235 7.26076C12.2201 7.26076 12.4087 7.33901 12.5477 7.47828C12.6868 7.61755 12.7649 7.80644 12.7649 8.0034V15.9975C12.7649 16.0966 12.7452 16.1947 12.707 16.286C12.6687 16.3774 12.6127 16.4602 12.5421 16.5296C12.4716 16.5991 12.3879 16.6537 12.2961 16.6904C12.2042 16.7271 12.1059 16.745 12.0071 16.7433H12.0204Z" fill="#5E5873"/>
</svg>
